<?xml version="1.0" standalone="no"?>
<!DOCTYPE svg PUBLIC "-//W3C//DTD SVG 1.1//EN" "http://www.w3.org/Graphics/SVG/1.1/DTD/svg11.dtd" >
<svg xmlns="http://www.w3.org/2000/svg" xmlns:xlink="http://www.w3.org/1999/xlink" version="1.1">
<metadata>
Created by FontForge 20170924 at Thu Nov 21 14:35:33 2024
 By www-data
Typeface by Chequered Ink. Copyright 2024. All Rights Reserved
</metadata>
<defs>
<font id="ShredHanded" horiz-adv-x="854" >
  <font-face 
    font-family="Shred Handed"
    font-weight="400"
    font-stretch="normal"
    units-per-em="2048"
    panose-1="2 0 5 0 0 0 0 0 0 0"
    ascent="1638"
    descent="-410"
    x-height="1058"
    cap-height="1481"
    bbox="-181 -461 2388 1813"
    underline-thickness="150"
    underline-position="-292"
    unicode-range="U+001D-2248"
  />
<missing-glyph horiz-adv-x="2489" 
d="M624 1396h348q60 -5 60 -60v-404h404q60 -8 60 -52v-364q0 -44 -60 -52h-404v-404q-5 -60 -60 -60h-348q-60 0 -60 72v392h-392q-72 0 -72 60v348q0 60 72 60h392v392q0 72 60 72zM1576 1356h304q44 0 44 -52v-272q0 -64 -52 -64h-288q-52 0 -52 56v268q0 64 44 64z
M2040 892h304q44 -7 44 -44v-300q-7 -44 -44 -44h-304q-40 8 -40 40v308q8 40 40 40zM1108 804v-212q0 -48 44 -48h228q36 0 36 32v244q0 32 -36 32h-228q-44 0 -44 -48zM1584 428h288q52 0 52 -64v-272q0 -52 -44 -52h-304q-44 0 -44 64v268q0 56 52 56z" />
    <glyph glyph-name=".notdef" horiz-adv-x="2489" 
d="M624 1396h348q60 -5 60 -60v-404h404q60 -8 60 -52v-364q0 -44 -60 -52h-404v-404q-5 -60 -60 -60h-348q-60 0 -60 72v392h-392q-72 0 -72 60v348q0 60 72 60h392v392q0 72 60 72zM1576 1356h304q44 0 44 -52v-272q0 -64 -52 -64h-288q-52 0 -52 56v268q0 64 44 64z
M2040 892h304q44 -7 44 -44v-300q-7 -44 -44 -44h-304q-40 8 -40 40v308q8 40 40 40zM1108 804v-212q0 -48 44 -48h228q36 0 36 32v244q0 32 -36 32h-228q-44 0 -44 -48zM1584 428h288q52 0 52 -64v-272q0 -52 -44 -52h-304q-44 0 -44 64v268q0 56 52 56z" />
    <glyph glyph-name=".null" horiz-adv-x="0" 
 />
    <glyph glyph-name=".null" horiz-adv-x="0" 
 />
    <glyph glyph-name="nonmarkingreturn" horiz-adv-x="508" 
 />
    <glyph glyph-name="space" unicode=" " horiz-adv-x="382" 
 />
    <glyph glyph-name="space" unicode="&#xa0;" horiz-adv-x="382" 
 />
    <glyph glyph-name="exclam" unicode="!" horiz-adv-x="373" 
d="M401 1485q136 -30 159 -330v-11q0 -211 -205 -427q0 -13 -35 -86v-21h9q0 64 89 139h9v-11q-63 -139 -107 -332l-107 -10q-97 8 -97 43v21q0 143 204 684l9 65v64q0 35 -35 115v32q32 65 107 65zM142 342h45q17 0 17 -53h45q18 0 18 -32l-9 -22q17 -35 17 -64
q0 -135 -151 -171h-17q-107 29 -107 118v21q37 203 142 203z" />
    <glyph glyph-name="quotedbl" unicode="&#x22;" horiz-adv-x="708" 
d="M340 1450q18 -3 18 -18q-13 0 -136 -247v-10q18 0 173 239q0 -9 9 -9q-49 -246 -119 -318l-18 9q0 -9 -9 -9q0 9 -9 9q-6 -46 -27 -46q-18 0 -18 27h-9l-46 -45q-18 39 -18 145v37q0 158 64 181q98 55 145 55zM640 1450q18 -3 18 -18q-13 0 -27 -27v-10q18 0 64 19
q0 -9 9 -9q-49 -246 -119 -318l-18 9q0 -9 -9 -9q0 9 -9 9q-6 -46 -27 -46q-18 0 38 212l-65 -185l-46 -45q-18 39 -18 145v37q0 158 64 181q98 55 145 55z" />
    <glyph glyph-name="numbersign" unicode="#" horiz-adv-x="794" 
d="M203 1383l5 -9l-10 -5l-5 10zM564 1369q10 -2 10 -10v-5h-10q-10 0 -10 10zM500 1271h10v-5q0 -9 -10 -9q-9 0 -9 9zM164 1247l5 -10v-5h-15v5q2 10 10 10zM505 1218h10q10 -2 10 -10v-5q0 -10 -10 -10q-10 12 -10 15v10zM458 876v-5q-20 -18 -20 -29h-4l-10 5
q-44 -53 -44 -83h-10v5q34 107 88 107zM424 832v-5q-10 -22 -20 -24v5q10 22 20 24zM359 417v-14q-10 0 -10 10zM305 310h15v-10h-15v10zM281 100v-9h-10q2 9 10 9zM710 22q10 -1 10 -9v-5q0 -10 -10 -10h-5q-9 0 -9 10q0 7 14 14zM473 654q23 102 53 222q60 54 98 54v5h-15
q-170 -25 -263 -54q-30 -145 -54 -268q24 4 50 7q70 18 131 34zM699 557q58 20 111 32l-3 -8q-27 -23 -114 -51q-56 -283 -56 -352q0 -32 10 -87q-5 0 -5 -5q-22 9 -25 19l-9 -5q-59 21 -59 147h-5q0 -42 -5 -88q0 -89 74 -225v-9q-11 0 -20 -5q-78 0 -146 136l-5 20h-5v-24
l5 -59q-64 50 -64 146q0 82 53 330q-61 -13 -174 -40q-64 -345 -64 -441l15 -49h-10q-73 37 -73 171q0 5 -5 5l5 24v83h-5q-25 -126 -25 -156v-53l5 -10l-9 -5q-30 36 -30 122q0 33 34 224v5h-4q-69 -236 -69 -322h-5q-16 14 -24 93q0 55 41 254q-43 -7 -56 3q-36 40 -28 55
l30 61q19 39 95 69q28 123 66 280q63 21 63 29h-68l-34 -5l-10 15q10 19 24 19v5q-31 10 -34 10v5q0 18 20 39q-20 22 -20 24q36 36 93 54l33 156q39 187 48 283q14 0 49 -44l25 5h5l9 -5v20l-5 24l10 5q98 -50 98 -146q5 0 5 -20q0 -42 -37 -107q0 -12 -35 -156h5l214 49
q-19 29 -19 43q42 152 42 225v14q0 11 -9 69q4 0 4 5q13 -1 74 -69q8 59 19 59q20 -4 20 -10l9 5q20 -7 20 -44v-44l-5 -29v-5h5q24 66 24 73h10q10 -39 10 -49v-4l-5 -59l19 19l5 -9v-44q0 -44 -32 -85l-5 -18q21 0 117 54q11 0 19 5l5 -10q-15 -4 -39 -53h34
q0 -32 -53 -74h5l48 20q5 -10 5 -15q0 -35 -122 -83q-39 0 -39 -117q-18 -81 -33 -152q109 25 116 20l7 -5l-4 -8l-128 -54q-4 -17 -8 -35q74 19 88 11l6 -5q12 -13 6 -26q-62 -24 -113 -45q-2 -8 -3 -15z" />
    <glyph glyph-name="dollar" unicode="$" horiz-adv-x="741" 
d="M425 1058q0 -5 4 -5q-4 -9 -4 -19h-10v14q2 10 10 10zM197 13q-58 13 -145 93q0 9 -48 76l-5 29v24l14 19q0 24 -4 58q0 172 86 315h9v-29q7 0 48 39h5q11 0 19 -48h5q0 19 38 48l5 -10v-91h5q13 47 47 77v-5q-52 -212 -52 -378q0 -56 33 -86q93 0 182 139q24 42 24 86
v29q0 78 -129 244l-5 9q187 38 268 77l5 -10q-29 -19 -29 -33q105 -152 105 -268h5v105q1 10 9 10q20 -53 20 -87v-33q0 -97 -125 -316q-71 -89 -157 -114q-38 -129 -85 -178l-18 9q0 -9 -9 -9q0 9 -9 9q-6 -46 -27 -46q-18 0 -18 27h-9l-46 -45q-18 39 -18 145v37
q0 47 6 82zM686 1417q70 -14 145 -77q24 0 29 -53q-30 -9 -38 -9q14 -51 14 -87q0 -128 -62 -310h-15q0 14 -9 14h-5v-10h-10q-11 0 -14 20l-19 -15h-5q-9 0 -9 34q-34 -31 -72 -34q0 10 -10 10q0 11 5 19q-5 48 -5 72q34 220 34 282h-5q-91 -22 -210 -153h-5v5q9 44 52 119
q-100 -71 -100 -182v-4q0 -115 96 -225q0 -7 -15 -15h-71v-4q71 -5 95 -5q56 0 148 48q0 -5 5 -5q-61 -112 -201 -163q-67 -14 -86 -14h-38q-41 0 -53 38q-100 166 -100 292q0 271 206 421q57 33 107 49q10 103 61 121q98 55 145 55q18 -3 18 -18q-13 0 -27 -27v-10
q18 0 64 19q0 -9 9 -9q-22 -113 -49 -189zM611 63h14v-10h-14v10zM310 292h9v-9q-9 0 -9 9zM128 704h10q9 -2 9 -10l-9 -5q-10 0 -10 10v5zM688 723h14v-10q0 -7 -14 -14h-10q-9 0 -9 9zM501 1034q10 -2 10 -10q0 -9 -10 -9q-9 0 -9 9q1 10 9 10z" />
    <glyph glyph-name="percent" unicode="%" horiz-adv-x="1218" 
d="M960 1481h33q20 0 45 -134l56 -11v-34q-76 -87 -347 -503q-14 0 -67 -89q-306 -391 -491 -771h-12q-33 0 -33 78h-11q0 -56 -23 -56q-89 85 -89 101v22q29 190 894 1363zM754 765q23 -3 23 -22v-23q-311 -465 -338 -477h-11v12q8 72 326 510zM290 1475h37q137 0 183 -98
q22 -26 22 -71v-21q0 -279 -191 -434q-63 -38 -117 -38h-22q-196 0 -264 152v38q0 13 15 49q-15 0 -29 -33h-15v11q171 445 381 445zM114 978q0 -19 34 -26q111 0 155 179q54 102 54 169q-5 22 -20 22h-7q-96 0 -162 -217q-54 -106 -54 -127zM303 1305h14v-5
q-77 -79 -88 -135h-13q0 90 87 140zM-10 1052l-8 -55v-16l8 -27h7v98h-7zM936 651h37q137 0 183 -98q22 -26 22 -71v-21q0 -279 -191 -434q-63 -38 -117 -38h-22q-196 0 -264 152v38q0 13 15 49q-15 0 -29 -33h-15v11q171 445 381 445zM760 154q0 -19 34 -26q111 0 155 179
q54 102 54 169q-5 22 -20 22h-7q-96 0 -162 -217q-54 -106 -54 -127zM949 481h14v-5q-77 -79 -88 -135h-13q0 90 87 140z" />
    <glyph glyph-name="ampersand" unicode="&#x26;" horiz-adv-x="921" 
d="M602 108q-102 -127 -246 -127h-34q-241 0 -325 190q-22 84 -22 101q0 298 246 426q-123 89 -123 168v67q0 262 303 459q96 45 224 45q118 0 235 -157q56 -89 56 -235q-13 -235 -45 -235l-34 22q-19 -11 -44 -11q-4 22 -23 22h-11q0 -33 -22 -33h-12q-8 0 -89 89
q33 65 45 236q0 47 -68 67q-157 0 -246 -347v-23l11 -56q390 -12 403 -12h23q17 0 45 -45v-101q0 -11 -87 -19q-37 -184 -21 -224q73 -155 128 -203q-44 -113 -51 -116l-11 -4q-21 -9 -33 23l-10 -4q-18 -7 -13 -29q-23 -9 -46 -6l-23 -33q-21 -9 -80 105zM583 590
q-79 -3 -182 -4q-168 -160 -168 -336v-11l11 -79q209 0 291 370q0 33 22 33q0 -4 4 -11q11 21 22 38z" />
    <glyph glyph-name="quotesingle" unicode="'" horiz-adv-x="403" 
d="M340 1450q18 -3 18 -18q-13 0 -27 -27v-10q18 0 64 19q0 -9 9 -9q-49 -246 -119 -318l-18 9q0 -9 -9 -9q0 9 -9 9q-6 -46 -27 -46q-18 0 -18 27h-9l-46 -45q-18 39 -18 145v37q0 158 64 181q98 55 145 55z" />
    <glyph glyph-name="parenleft" unicode="(" horiz-adv-x="546" 
d="M806 1510q-56 -95 -56 -112h11q43 33 67 33q0 -11 11 -11q-16 -124 -174.5 -164.5t-208.5 -296.5q0 -31 -185 -616q-56 -229 81 -219.5t194 20.5q0 -14 -35 -93q11 -22 11 -34q-159 -112 -331 -114q-255 -11 -197 345q14 70 218 767h28q-22 0 -22 22l33 45
q86 330 287 359q168 21 268 80v-11z" />
    <glyph glyph-name="parenright" unicode=")" horiz-adv-x="546" 
d="M-145 -160q56 95 56 112h-11q-44 -34 -67 -34q0 11 -12 11q17 125 175 165.5t208 296.5q0 31 186 615q56 229 -81 219.5t-194 -19.5q0 14 34 93q-11 22 -11 34q159 112 331 114q255 11 198 -345q-14 -71 -218 -767h-28q22 0 22 -22l-33 -45q-86 -331 -287 -360
q-169 -20 -268 -79v11z" />
    <glyph glyph-name="asterisk" unicode="*" horiz-adv-x="670" 
d="M497 881q-72 -237 -88 -245l-11 -4l-8 4l-1 115l-11 -4q-29 -35 -64 -55l-11 -4q-24 -8 -37 0q6 107 16 199q-127 -59 -160 -67l-52 51q-12 13 -9 89q6 43 127 99q1 1 2 1q-183 115 -187 132l-1 11l6 7l112 -29l-1 12q-27 37 -37 76l-1 11q-2 26 9 36q139 -46 249 -91
q9 41 15 64q23 131 64 148q72 23 88 14l63 -37q43 -26 22 -168q72 27 154 54q11 -10 10 -36l-1 -11q-11 -39 -37 -76l-1 -12l111 29l6 -7l-1 -11q-3 -16 -175 -105q112 -54 118 -95q3 -76 -9 -89l-53 -51q-42 -42 -216 45z" />
    <glyph glyph-name="plus" unicode="+" horiz-adv-x="670" 
d="M753 711l-5 -4q-44 -19 -217 -22l-5 4q127 23 227 22zM462 808q342 8 352 0l4 -5l-4 -4l-315 -45l4 -4q235 17 255 3l4 -5q8 -11 0 -18q-227 -27 -287 -45q-1 2 -20 3q0 -10 1 -20q59 -4 128 -12l70 -5q8 -11 0 -18q-58 -17 -197 -15q12 -349 0 -359l-7 -4l-7 4l-25 115
l-7 -4q-14 -35 -35 -55l-7 -4q-16 -8 -27 0q-39 227 -66 287q3 2 4 27q-40 3 -84 6q-71 -21 -88 -14l-5 5q55 40 179 48v19q-53 -1 -121 -2q-131 -7 -148 10q-23 33 -14 42l38 37q44 44 244 35q-1 46 -2 101q-11 131 15 148q48 23 61 14l54 -37q62 -43 53 -229z" />
    <glyph glyph-name="comma" unicode="," horiz-adv-x="310" 
d="M201 195q18 -3 18 -18q-13 0 -27 -27v-10q18 0 64 19q0 -9 9 -9q-49 -246 -119 -318l-18 9q0 -9 -9 -9q0 9 -9 9q-6 -46 -27 -46q-18 0 -18 27h-9l-46 -45q-18 39 -18 145v37q0 158 64 181q98 55 145 55z" />
    <glyph glyph-name="hyphen" unicode="-" horiz-adv-x="670" 
d="M814 808l4 -5l-4 -4l-315 -45l4 -4q235 17 255 3l4 -5q8 -11 0 -18q-227 -27 -287 -45q-6 7 -314 2q-131 -7 -148 10q-23 33 -14 42l38 37q52 52 328 30q438 11 449 2zM753 711l-5 -4q-44 -19 -217 -22l-5 4q127 23 227 22zM654 651q8 -11 0 -18q-102 -30 -458 -2
q-71 -21 -88 -14l-5 5q109 79 481 34z" />
    <glyph glyph-name="hyphen" unicode="&#xad;" horiz-adv-x="670" 
d="M814 808l4 -5l-4 -4l-315 -45l4 -4q235 17 255 3l4 -5q8 -11 0 -18q-227 -27 -287 -45q-6 7 -314 2q-131 -7 -148 10q-23 33 -14 42l38 37q52 52 328 30q438 11 449 2zM753 711l-5 -4q-44 -19 -217 -22l-5 4q127 23 227 22zM654 651q8 -11 0 -18q-102 -30 -458 -2
q-71 -21 -88 -14l-5 5q109 79 481 34z" />
    <glyph glyph-name="period" unicode="." horiz-adv-x="373" 
d="M142 342h45q17 0 17 -53h45q18 0 18 -32l-9 -22q17 -35 17 -64q0 -135 -151 -171h-17q-107 29 -107 118v21q37 203 142 203z" />
    <glyph glyph-name="slash" unicode="/" horiz-adv-x="727" 
d="M860 1481h33q20 0 45 -134l56 -11v-34q-76 -87 -347 -503q-14 0 -67 -89q-306 -391 -491 -771h-12q-33 0 -33 78h-11q0 -56 -23 -56q-89 85 -89 101v22q29 190 894 1363zM654 765q23 -3 23 -22v-23q-311 -465 -338 -477h-11v12q8 72 326 510z" />
    <glyph glyph-name="zero" unicode="0" horiz-adv-x="928" 
d="M559 1435h55q205 0 274 -213q33 -58 33 -154v-48q0 -608 -285 -947q-94 -83 -175 -83h-33q-293 0 -394 332v83q0 29 22 106q-22 0 -44 -71h-22v24q256 971 569 971zM297 274q0 -52 54 -71q181 0 252 498q88 286 88 473q-8 60 -33 60h-11q-157 0 -263 -604
q-87 -296 -87 -356zM603 1186h22v-12q-125 -221 -142 -379h-22q0 252 142 391zM110 511l-10 -118v-36l10 -59h11v213h-11z" />
    <glyph glyph-name="one" unicode="1" horiz-adv-x="431" 
d="M314 1454q216 -71 216 -183v-76q-227 -807 -227 -1112v-11l11 -75q-11 0 -11 -11q-79 0 -97 130v54l10 64v11h-10l-43 -248q-36 2 -108 119v-76h-22q-15 0 -54 54v11q0 102 237 917h-10q-70 -65 -76 -65q-32 0 -32 152q172 80 172 194q16 0 44 151zM87 1389h32
q16 0 33 -32v-33q0 -16 -43 -43h-33q-32 11 -32 65q0 17 43 43z" />
    <glyph glyph-name="two" unicode="2" horiz-adv-x="975" 
d="M633 1445q274 0 342 -254q11 -42 11 -88q0 -203 -166 -485q-49 -44 -55 -44h-22v11q22 70 22 88v11h-11q0 -69 -397 -397l-22 -33h66q164 0 441 11v-11q-48 -55 -77 -55v-22q44 0 44 -22q-36 -34 -55 -34q88 -63 88 -77v-11q-203 11 -297 11h-56q-258 0 -397 -99h-22
q0 66 -55 66q0 -22 -22 -22q-28 37 -44 99q0 139 607 684q176 205 176 375v66l-11 56h-33q-111 0 -265 -375h-33v44h-11v-67h-33q-33 105 -33 111h-11q0 -22 -22 -111h-33v155q0 294 331 419h55zM942 507l11 -22q-66 -77 -210 -77v22q91 44 199 77z" />
    <glyph glyph-name="three" unicode="3" horiz-adv-x="817" 
d="M535 1437h34q241 0 324 -190q23 -84 23 -101q0 -298 -247 -426q124 -89 124 -168v-67q0 -262 -303 -459q-96 -45 -224 -45q-118 0 -235 157q-56 89 -56 235q13 235 45 235l33 -22q20 11 45 11q4 -22 25 -284l9 262q0 33 22 33h11q9 0 90 -89q-34 -65 -45 -236
q0 -47 67 -67q158 0 247 347v23l-11 56q-111 -23 -124 -23h-22q-17 0 -45 45v101q0 26 168 67q168 160 168 336v11l-11 79q-209 0 -291 -370q0 -33 -23 -33q0 15 23 290q-79 -279 -101 -279q-94 136 -101 168q125 403 381 403z" />
    <glyph glyph-name="four" unicode="4" horiz-adv-x="928" 
d="M785 1496q175 -44 175 -164q0 -48 -164 -754q109 11 164 11h43v-11q0 -11 -98 -99q21 -11 33 -11v-21q-15 -44 -98 -44h-99q-57 -350 -142 -437q-197 121 -197 153v65q0 98 131 219h-10q-35 0 -503 -33l-11 22v76q0 130 492 656q190 212 273 372h11zM479 1398
q22 -4 22 -22l-44 -33h-11v22q0 16 33 33zM238 534q124 33 317 33h11l131 525q-249 -349 -459 -558zM315 326q22 -3 22 -22q-122 -140 -274 -164q-40 -21 -87 -21h-11v21q91 127 317 186h33z" />
    <glyph glyph-name="five" unicode="5" horiz-adv-x="803" 
d="M1091 1461v-53q-32 -41 -382 -144q374 81 382 28q-46 -29 -339 -96q-96 -49 -286 -106q0 -16 -85 -232h22l53 10q285 -38 285 -254v-106q0 -251 -264 -455q-98 -53 -159 -53h-32q-212 0 -307 201q0 16 -21 95q25 177 64 202q105 -20 105 -75h64v-52l21 10h11l-11 -106
v-21q17 -42 74 -42q35 0 106 106h-11q-74 -43 -105 -43h-11v11q222 234 222 381v11q-21 0 -21 10q-99 0 -254 -137q-21 38 -21 84l-21 -10h-21l-11 53v21q0 108 222 698q597 64 731 64z" />
    <glyph glyph-name="six" unicode="6" horiz-adv-x="833" 
d="M671 1473h11v-22l-56 -11v-11q123 -71 123 -145v-11q0 -196 -356 -378q-31 -35 -44 -89h11q83 67 133 67h45q230 0 277 -322v-11q0 -382 -322 -534q-51 -22 -111 -22q-389 61 -389 378v78q0 230 144 533h-11q-45 -22 -66 -22v11q100 46 222 289q197 222 389 222z
M604 1262l-111 -145v-11q38 20 122 156h-11zM260 228q21 -50 44 -55h22q165 0 234 400v33q0 42 -34 134h-22q-161 0 -244 -456v-56z" />
    <glyph glyph-name="seven" unicode="7" horiz-adv-x="630" 
d="M833 1493l10 -20q-20 -3 -20 -21q91 -8 91 -30v-20q-106 -75 -305 -376q-254 -338 -254 -823v-91q0 -12 21 -112q-132 10 -51 546l-91 -465v-51l10 -20l-21 -10q-162 54 -162 264h-10q0 -112 -31 -112q-20 31 -20 71q0 292 518 1057h-10q-388 -113 -419 -113l-11 21
q31 39 31 60q-20 0 -20 21q50 142 551 214q111 10 193 10zM274 1138h10v-31h-10q-20 0 -20 20zM752 1016q14 0 30 -31v-10q0 -15 -30 -30q-15 0 -31 30v10q0 15 31 31zM630 873q0 -10 10 -10q-51 -108 -173 -233v20q43 93 163 223zM620 772h10v-10q-132 -195 -132 -224h-21
q6 93 143 234zM61 295v-21h10v21h-10z" />
    <glyph glyph-name="eight" unicode="8" horiz-adv-x="780" 
d="M541 1482h29q273 -80 273 -224v-68q0 -136 -215 -312q-62 -49 -78 -49v-10q137 -224 137 -399q0 -325 -253 -419q-36 0 -88 -10q-182 0 -361 292q-29 104 -29 156v30q10 136 39 136h10v-59h9q0 122 225 303q39 9 39 39q-69 139 -69 263v19q0 179 254 302q38 10 78 10z
M434 1102q9 -10 19 -117q80 0 175 253q20 60 20 78q-19 10 -29 10q-127 0 -185 -224zM580 1258v-10q-73 -96 -88 -97h-10v9q36 98 98 98zM716 878h20q14 0 29 -29q-16 -39 -68 -39h-39q-20 0 -20 19q25 49 78 49zM375 722q-147 -129 -224 -400q0 -149 97 -175q92 0 117 127
q10 58 30 58q26 -58 39 -58q29 101 38 214q-56 234 -97 234z" />
    <glyph glyph-name="nine" unicode="9" horiz-adv-x="741" 
d="M477 1511q325 -74 325 -326q10 -10 10 -81v-20q0 -418 -234 -875q-158 -153 -223 -153v-10h30q23 0 122 30v-20q-104 -61 -193 -61q-105 0 -275 92v10q13 10 71 10v10q-132 23 -132 51v10h82v10q-31 52 -31 102v41q16 112 51 112h10q20 0 20 -61h11q5 0 30 20l41 -31
q0 31 20 31q0 -10 10 -10q-20 -121 -30 -153q10 -20 10 -30q148 0 265 396q-111 -90 -173 -91h-31v10q169 89 173 132h-10q-97 -91 -153 -91h-20q-168 0 -193 264v10q0 501 295 652q80 20 122 20zM283 707v-20q216 0 275 539v10q-20 77 -20 82h-41q-72 0 -173 -326
q-41 -149 -41 -285zM365 697l-10 -20h10l10 20h-10zM-12 494l11 -21l-21 -10l-10 20z" />
    <glyph glyph-name="colon" unicode=":" horiz-adv-x="373" 
d="M142 342h45q17 0 17 -53h45q18 0 18 -32l-9 -22q17 -35 17 -64q0 -135 -151 -171h-17q-107 29 -107 118v21q37 203 142 203zM242 1015h45q17 0 17 -53h45q18 0 18 -32l-9 -22q17 -35 17 -64q0 -135 -151 -171h-17q-107 29 -107 118v21q37 203 142 203z" />
    <glyph glyph-name="semicolon" unicode=";" horiz-adv-x="373" 
d="M201 195q18 -3 18 -18q-13 0 -27 -27v-10q18 0 64 19q0 -9 9 -9q-49 -246 -119 -318l-18 9q0 -9 -9 -9q0 9 -9 9q-6 -46 -27 -46q-18 0 -18 27h-9l-46 -45q-18 39 -18 145v37q0 158 64 181q98 55 145 55zM281 1026h45q17 0 17 -53h45q18 0 18 -32l-9 -22q17 -35 17 -64
q0 -135 -151 -171h-17q-107 29 -107 118v21q37 203 142 203z" />
    <glyph glyph-name="semicolon" unicode="&#x37e;" horiz-adv-x="373" 
d="M201 195q18 -3 18 -18q-13 0 -27 -27v-10q18 0 64 19q0 -9 9 -9q-49 -246 -119 -318l-18 9q0 -9 -9 -9q0 9 -9 9q-6 -46 -27 -46q-18 0 -18 27h-9l-46 -45q-18 39 -18 145v37q0 158 64 181q98 55 145 55zM281 1026h45q17 0 17 -53h45q18 0 18 -32l-9 -22q17 -35 17 -64
q0 -135 -151 -171h-17q-107 29 -107 118v21q37 203 142 203z" />
    <glyph glyph-name="less" unicode="&#x3c;" 
d="M856 941l1 -8q23 -103 -131 -153q-69 -21 -366 -68l-7 -2l2 -8q446 -43 532 -97l2 -8q1 -16 -10 -20l-6 -2l-14 4l3 -16q19 6 39 -21q-5 -18 -74 -41l10 -14l2 -7l-77 -26q-96 -31 -506 114q-191 39 -200 36l-11 -12l-32 -11q-13 -4 -16 12q-23 186 82 221l44 22
q162 45 296 89l33 10l40 5q9 11 30 18l26 9q14 4 27 0q7 2 5 10q243 51 248 30q1 -5 -11 -79z" />
    <glyph glyph-name="equal" unicode="=" horiz-adv-x="670" 
d="M198 558q-16 -1 -33 -1q-131 -7 -148 10q-23 33 -14 42l38 37q52 52 328 30q438 11 449 2l4 -5l-4 -4q-76 -32 -56 -46l4 -5q8 -11 0 -18l-103 -49q8 -11 0 -18q-102 -30 -458 -2q-71 -21 -88 -14l-5 5q32 23 86 36zM66 794q-23 33 -14 42l38 37q52 52 328 30
q438 11 449 2l4 -5l-4 -4l-315 -45l4 -4q235 17 255 3l4 -5q8 -11 0 -18q-173 -21 -249 -36q37 -3 76 -8l70 -5q8 -11 0 -18q-102 -30 -458 -2q-71 -21 -88 -14l-5 5q-78 28 -95 45z" />
    <glyph glyph-name="greater" unicode="&#x3e;" 
d="M37 522l-2 8q-22 102 132 152q69 22 366 68l6 2l-2 8q-445 43 -532 97l-1 8q-2 17 9 20l7 2l14 -3l-3 15q-19 -6 -39 21q5 19 73 41l-10 14l-1 8l77 25q96 31 505 -113q191 -39 201 -36l11 12l32 10q13 4 16 -11q22 -187 -83 -221l-43 -23q-162 -44 -297 -88l-32 -11
l-40 -5q-9 -11 -31 -18l-25 -8q-15 -5 -28 -1q-6 -2 -4 -10q-243 -51 -248 -30q-1 6 10 79z" />
    <glyph glyph-name="question" unicode="?" horiz-adv-x="975" 
d="M461 384q-96 -39 -167 140q137 136 262 248q176 205 176 375v66l-11 56h-33q-111 0 -265 -375h-33v44h-11v-67h-33q-33 105 -33 111h-11q0 -22 -22 -111h-33v155q0 294 331 419h55q274 0 342 -254q11 -42 11 -88q0 -203 -166 -485q-49 -44 -55 -44h-22v11q22 70 22 88v11
h-11q0 -48 -196 -225q34 12 69 23l11 -22q-58 -68 -177 -76zM442 342h45q17 0 17 -53h45q18 0 18 -32l-9 -22q17 -35 17 -64q0 -135 -151 -171h-17q-107 29 -107 118v21q37 203 142 203z" />
    <glyph glyph-name="at" unicode="@" horiz-adv-x="1113" 
d="M756 903q1 -13 -130 -265h25q108 0 103 58q-5 74 11 199l-1 8h-8zM625 422h8l2 -17h-9zM685 1126q20 51 26 86q-210 -92 -305 -357q-43 -119 -71 -209h8q90 0 129 69l-15 -1q-48 248 186 417l40 4zM108 497l-15 -118v-36l15 -59h16v213h-16zM785 333q8 8 14 17l-4 22h-9
q0 -21 -1 -39zM921 710q0 6 1 12q133 303 89 488q-32 56 -89 51l-25 -2q-47 -4 -90 -15q32 -17 50 -17q15 8 24 8q37 -50 40 -100l2 -25q9 -121 -28 -406h8zM773 1235l-11 -3q3 -7 4 -14h8q-1 10 -1 17zM294 476q-10 -57 -4 -86q4 -22 8 -41q18 52 50 123q-30 1 -54 4z
M343 206q12 -8 28 -14q-5 24 -7 56q-14 0 -21 -42zM438 178l26 -2q70 7 129 27l-2 3h12q76 27 134 77q-3 11 -4 23l-5 74q-4 47 7 125q-58 -17 -189 -25q-76 -198 -108 -302zM503 775q130 218 180 345q-152 -201 -180 -345zM777 1435h75q284 0 378 -213q46 -58 46 -154v-48
q0 -608 -394 -947q-130 -83 -242 -83h-45q-405 0 -544 332v83q0 29 30 106q-30 0 -61 -71h-30v24q353 971 787 971z" />
    <glyph glyph-name="A" unicode="A" horiz-adv-x="704" 
d="M624 1440q33 0 33 -38q-14 -318 -24 -354q0 -4 5 -4q0 -5 -5 -14q0 -34 -9 -269h5l141 47v-5q0 -5 -85 -85h5l66 14q0 -47 -104 -103v-5h5l90 38l4 -10q-68 -80 -132 -80q-4 -207 -4 -307v-4q0 -166 14 -326h-5q-38 34 -57 179v14h-4v-75q0 -24 4 -71h-9q-66 51 -66 184
h-5l-14 -108q5 -8 5 -24q-5 0 -5 -5q-71 29 -71 104q0 62 19 368q5 0 5 5h-10q-145 -25 -146 -28q0 -48 -94 -359q-19 -58 -19 -99v-38l5 -23l-10 -5q-117 53 -123 85q-4 0 -4 28h-5q-14 -44 -14 -66q5 -9 5 -14h-5q-52 40 -52 156v4q0 83 104 302v10q0 9 -29 14v14
q29 5 29 14q-33 3 -33 14v14l14 24q-38 9 -38 19q39 22 113 42q29 100 33 137l-4 10q55 71 217 457q17 14 61 151q79 71 203 71zM468 1100q-146 -437 -146 -457h5l108 19v14q0 129 38 420v4h-5zM431 836q-33 -127 -48 -132v5q10 60 38 127h10zM34 501l5 -9h-14q1 9 9 9z
M355 468q0 -6 -38 -23h-4q-10 0 -10 9q26 14 52 14zM317 426h10v-29q-10 0 -10 10v19zM303 312h14v-23h-9zM652 261h10v-5h-10v5zM284 228h5v-10h-5v10zM261 124q9 -2 9 -10q0 -9 -9 -9q-10 0 -10 9q2 10 10 10zM718 29q10 -1 10 -9l-19 -19q-10 0 -10 9q0 8 19 19z" />
    <glyph glyph-name="B" unicode="B" horiz-adv-x="729" 
d="M577 1491l44 -10v-20q-184 -36 -184 -79h8q94 30 159 30h17q149 0 203 -158q17 -36 17 -79v-89q0 -165 -228 -425q70 -147 70 -277v-40q0 -227 -229 -375q-61 -20 -105 -20q-352 105 -352 297q-9 0 -9 39v158q11 99 35 99h9q0 -30 9 -69h8q0 36 27 168q-27 0 -44 89v59h9
q24 -29 61 -29q53 257 71 306h-9q-16 -10 -35 -10h-9l-18 10q9 13 9 49q-29 -19 -44 -19l-9 19l18 40h-27l-17 -10q0 10 -9 10q25 70 238 208q140 128 316 128zM340 769h9q127 0 290 297q26 76 26 109q-10 49 -70 49q-167 -23 -167 -79q-88 -339 -88 -376zM586 1194v-9
q-118 -113 -123 -188h-18v10q27 187 141 187zM-3 1007h17v-20q0 -20 -17 -20q-18 0 -18 20q3 20 18 20zM305 582q-88 -334 -88 -376q8 -30 52 -30h18q181 0 220 297q-20 99 -44 99h-26q-30 0 -44 -10zM349 463h8v-20h-8v20zM401 28v-10h18q24 0 88 89v10q-86 -89 -106 -89z
" />
    <glyph glyph-name="C" unicode="C" 
d="M656 1526v-10q-96 -84 -123 -133v-11q111 82 195 82h31q208 0 245 -297v-71l-40 -123l-11 -51h-20l-31 20q-34 -20 -61 -20q-11 17 -11 51q-59 -31 -102 -31l-10 21q43 137 61 234q-10 41 -10 72q-198 20 -378 -502q-82 -376 -82 -460q0 -9 40 -91h10q225 0 338 532
q-10 19 -10 30l21 10q102 -130 153 -266v-71q0 -271 -369 -431q-87 -20 -153 -20q-212 0 -307 246l-11 61v133q0 14 21 113h20v-154q0 -75 31 -82h10v41q0 284 256 830q-17 0 -102 -103h-10v62q0 36 51 123h-10q-20 -10 -31 -10l-10 20q301 256 409 256zM226 1413l10 -20
l-20 -10l-10 20zM533 666h21v-10h-21v10zM513 594h20v-20h-20v20zM-20 51l11 -20l-21 -10l-10 20z" />
    <glyph glyph-name="D" unicode="D" horiz-adv-x="850" 
d="M212 674l-68 -204v-5h5q37 72 67 204v5h-4zM504 1437q57 -9 147 -96v11q-21 78 -21 106h21q266 -222 266 -520q0 -488 -382 -849q-138 -96 -202 -96v11q209 194 212 223h-10q-139 -166 -287 -192v11q173 110 308 541q95 327 95 425q0 138 -57 209t-130 85
q-26 -164 -191 -908v-5h4q31 94 68 174h9v-5q-72 -300 -131 -610q0 -2 5 -19q-5 0 -5 -5q-123 31 -123 179l10 82v5h-5q-22 -100 -22 -184v-24q0 -13 -10 -29q-32 10 -32 68q0 9 14 97v4h-4q-29 -117 -32 -121q-45 0 -59 68q109 341 247 1083l32 160h-5q-6 0 -27 -24
q-41 23 -41 72v15q0 42 231 82h37q36 0 70 -24z" />
    <glyph glyph-name="E" unicode="E" horiz-adv-x="660" 
d="M839 1026l10 -20v-11h-31v11q3 20 21 20zM395 749q145 9 292 22l13 6q0 -3 4 -2q-1 -83 -102 -109l-57 -10h-3v-4q72 4 129 20l17 4q9 3 21 -1q-2 -21 -41 -32q-6 -1 -69 -9h-2v-3q85 3 88 1q8 -28 -36 -49q-109 3 -211 2l-46 36q-47 -202 -109 -433q233 33 380 52
q0 -13 -41 -113q10 -21 10 -32q-147 -103 -385.5 -102.5t-194.5 268.5q104 333 157 611l30 160h-5q-6 0 -25 -24q-38 23 -38 72v15q0 42 214 82h33q62 0 117 -82h-8q-38 14 -63 14h-12q-47 0 -47 -14q59 0 59 -20q-29 -156 -69 -326zM368 640l-6 -26l-2 -6h1q5 15 10 29z
M681 1254h-34q-130 -30 -455 -60q-94 0 -174 111q-5 9 -5 20q32 -10 44 -10h9v5q-25 19 -42 100q5 0 5 5q111 -37 226 -37h34q37 0 358 55v-5l10 5q261 0 334 -73l5 -9v-5l-49 14l5 -9q-5 0 -5 -5q-64 14 -101 14t-112 -14v-5q178 0 233 -87q16 -18 27 -38q-237 28 -313 28z
M452 500h10v-11q-25 -45 -72 -62l-11 21q11 0 73 52zM447 560h10v-21q-18 0 -52 -31h-21q0 16 63 52z" />
    <glyph glyph-name="F" unicode="F" horiz-adv-x="583" 
d="M961 1494v-11q0 -49 -81 -140l11 -23q0 -27 -391 -83q-90 -370 -110 -474h23q47 23 229 80v-11q-12 -62 -12 -103q23 -3 23 -23v-23q0 -36 -303 -114q-50 -131 -119 -593v-69h-23q-46 126 -46 171l12 114v12h-12q-48 -263 -68 -263q-80 144 -80 183q0 110 80 434h-12
q-114 14 -114 45l46 58q-12 20 -12 45q160 0 160 103q91 314 91 365h-11q-46 17 -46 35v11l35 46q-17 0 -80 80q43 95 810 148zM596 992l11 -23v-23q0 -15 -57 -57h-11q25 103 57 103zM527 204q23 -4 23 -23q0 -23 -23 -23q-22 0 -22 23q3 23 22 23z" />
    <glyph glyph-name="G" unicode="G" horiz-adv-x="896" 
d="M493 609h21v-21h-21v21zM472 -1q-92 -21 -161 -21q-220 0 -321 256l-10 65v139q0 14 21 117h22v-161q0 -78 32 -85h11v43q0 296 266 866q70 121 182 204q115 85 204 85h32q217 0 256 -311v-74l-43 -128l-10 -55h-21l-32 23q-35 -23 -65 -23q-11 19 -11 55
q-62 -32 -106 -32l-12 21q45 143 55 213q-11 43 -11 76q-166 0 -382 -536q-97 -339 -97 -427q0 -9 11 -91l126 -2q197 103 215 320q11 48 22 99l-17 -11q-142 3 -161 22q18 97 18 114q-18 4 -18 24v22q31 65 188 91q225 -58 225 -295q0 -61 -17 -163q-35 -293 -391 -440z
M-63 42l11 -21l-21 -11l-11 21zM234 533q146 419 398 764q-148 -116 -222 -256t-176 -508z" />
    <glyph glyph-name="H" unicode="H" horiz-adv-x="794" 
d="M349 1481q98 -50 98 -146q5 0 5 -20q0 -42 -97 -390q0 -12 -35 -156h5l214 49q-19 29 -19 43q102 435 102 508v14q0 11 -9 69q4 0 4 5q13 -1 74 -69q8 59 19 59q20 -4 20 -10l9 5q20 -7 20 -44v-44l-5 -29v-5h5q24 66 24 73h10q10 -39 10 -49v-4l-5 -59l19 19l5 -9v-44
q0 -44 -53 -171l-44 -215q21 0 117 54q11 0 19 5l5 -10q-15 -4 -39 -53h34q0 -32 -53 -74h5l48 20q5 -10 5 -15q0 -35 -122 -83q-39 0 -39 -117q-68 -306 -68 -410q0 -32 10 -87q-5 0 -5 -5q-22 9 -25 19l-9 -5q-59 21 -59 147h-5q0 -42 -5 -88q0 -89 74 -225v-9
q-11 0 -20 -5q-78 0 -146 136l-5 20h-5v-24l5 -59q-64 50 -64 146q0 136 88 454q60 54 98 54v5h-15q-170 -25 -263 -54q-93 -462 -93 -610l15 -49h-10q-73 37 -73 171q0 5 -5 5l5 24v83h-5q-25 -126 -25 -156v-53l5 -10l-9 -5q-30 36 -30 122q0 33 34 224v5h-4
q-69 -236 -69 -322h-5q-16 14 -24 93q0 104 88 439q63 21 63 29h-68l-34 -5l-10 15q10 19 24 19v5q-31 10 -34 10v5q0 18 20 39q-20 22 -20 24q36 36 93 54q73 269 93 439q39 187 48 283q14 0 49 -44l25 5h5l9 -5v20l-5 24zM203 1383l5 -9l-10 -5l-5 10zM564 1369
q10 -2 10 -10v-5h-10q-10 0 -10 10zM500 1271h10v-5q0 -9 -10 -9q-9 0 -9 9zM164 1247l5 -10v-5h-15v5q2 10 10 10zM505 1218h10q10 -2 10 -10v-5q0 -10 -10 -10q-10 12 -10 15v10zM452 1091h5v-15h-5q-10 0 -10 10zM461 998h10q10 0 10 -15q-34 -62 -34 -68q41 54 49 54
q9 -2 9 -10q-25 -52 -68 -88q0 7 -15 15q0 -7 -14 -15q-10 0 -10 10q0 32 63 117zM398 593v-5q-20 -18 -20 -29h-4l-10 5q-44 -53 -44 -83h-10v5q34 107 88 107zM364 549v-5q-10 -22 -20 -24v5q10 22 20 24zM359 417v-14q-10 0 -10 10zM305 310h15v-10h-15v10zM281 100v-9
h-10q2 9 10 9zM710 22q10 -1 10 -9v-5q0 -10 -10 -10h-5q-9 0 -9 10q0 7 14 14z" />
    <glyph glyph-name="I" unicode="I" horiz-adv-x="366" 
d="M354 1481q124 -56 124 -226v-169q0 -209 -271 -1118l-23 -11q-90 74 -90 192h-11l-11 -56v-102h-12q-90 77 -90 192q226 756 293 1072q-11 62 -11 91l23 11q19 0 79 -68v102l-11 79q11 0 11 11zM128 1097l11 -22l-22 -12l-12 23zM534 668h12v-22h-12v22zM478 397l11 -22
l-22 -12l-12 23z" />
    <glyph glyph-name="J" unicode="J" horiz-adv-x="787" 
d="M763 1472h65q206 0 206 -43q-48 -54 -87 -54v-11q87 0 87 -22q-22 -3 -22 -22l22 -32q-71 -32 -152 -32q-176 -1115 -281 -1115q0 -91 -281 -152q-336 47 -336 336v10q43 368 87 368h43q32 0 32 -43h22q0 33 22 33q25 0 -28 -372l71 296l32 21l11 -21v-33
q-65 -191 -65 -314q4 -21 22 -21h92q192 0 308 974q-129 -22 -194 -22l-11 22v11q3 22 21 22l-10 21l340 87l-330 -44q-27 -21 -32 -21q-11 21 -11 32q0 130 163 130q77 11 194 11zM482 1104q22 -3 22 -22h-22v22zM330 1082h11v-21h-11v21zM763 184h11v-22h-11v22z" />
    <glyph glyph-name="K" unicode="K" horiz-adv-x="789" 
d="M697 1537h22v-11q0 -22 -22 -22v33zM686 1482v-11q0 -22 -22 -22h-11q0 17 33 33zM357 676q243 497 318 696q8 55 30 55q49 -44 47 -55q-17 -60 -20 -88q195 165 294 165h22q19 -3 19 -22q-3 -5 -27 -33v-11l35 22h44q22 -2 20 -22q-64 -46 -291 -329
q-140 -157 -264 -384v-11h11q6 46 126 142h22l-2 -11l-39 -54q28 -333 47 -736q22 0 16 -44q-11 0 -11 -11q-148 58 -134 165h-11l-11 -88h-22q-118 118 -88 384l6 112q-184 -127 -252 -498q4 -2 4 -9l-11 -6q-1 -2 -2 -5h-9q-59 4 -98 64v-42q0 -22 -22 -22q-36 0 -66 154
v109q0 28 22 99q-30 0 -66 -186h-22v33q0 82 66 274l-11 22v231q8 175 44 175h11l22 -197h11q164 645 164 702v44h33q77 -55 77 -99h11q0 39 33 132h11q36 0 44 -143v-55l55 66l11 -22v-44q0 -43 -197 -619z" />
    <glyph glyph-name="L" unicode="L" horiz-adv-x="546" 
d="M459 1454q44 -22 44 -65h2q5 43 33 43h21v-11q0 -78 -345 -1210l22 11h170q40 0 99 11q85 -13 109 -32q-2 -53 -2 -70q22 -3 22 -22v-22q-38 -62 -361 -87q-273 57 -273 284q0 228 306 1072h33q0 -33 22 -33q22 109 44 109l32 -22q0 44 22 44zM44 897l11 -22v-22h-11
q-22 0 -22 22q3 22 22 22zM558 645q21 -3 21 -22q-41 -95 -65 -98l-11 22q0 52 55 98zM503 383l11 -22l-22 -11l-11 22z" />
    <glyph glyph-name="M" unicode="M" horiz-adv-x="850" 
d="M290 1544q23 -4 23 -23q-12 -23 -12 -35l24 -12q0 17 35 35h23l23 -12q4 24 24 24q23 -27 23 -82h23v23h24q58 -170 58 -244v-59q0 -48 -12 -128v-12h12q180 344 408 443l11 -23q-16 0 -34 -35v-12h11q23 12 35 12l23 -35q0 -14 -35 -93v-12h12q0 55 105 117
q0 -12 12 -12q-28 -70 -47 -70l12 -23q-163 -422 -373 -1317h-12q-93 34 -40 568l-65 -417v-81h-11q-35 11 -35 70v69q0 91 116 595v12h-12q-103 -313 -198 -420q-116 0 -116 140v198q0 42 11 105v12h-11q-140 -705 -140 -758v-35l11 -58l-23 -12q-186 74 -186 280
q-12 7 -12 105q268 751 268 1119q19 93 47 93zM371 203h24v-11h-24v11z" />
    <glyph glyph-name="N" unicode="N" horiz-adv-x="838" 
d="M366 1476q115 0 174 -533q66 -325 66 -424h11q141 735 152 902h11q12 0 43 -98q12 0 33 -10q0 70 22 141h10q66 -55 66 -152q0 -74 -196 -1110q-11 -102 -11 -195h-11q-22 0 -43 76h-11v-11l11 -54h-33q-43 23 -43 87h-11v-87l11 -22q-11 0 -11 -11q-174 112 -174 294
q-87 379 -87 565h-11q-152 -719 -152 -848h-11q-66 53 -66 206h-10l-22 -174q11 0 11 -10l-22 -11q-87 88 -87 174v54q22 631 87 631q22 -31 54 -218h11q0 210 163 794h11l55 -11l-11 22v11q3 22 21 22z" />
    <glyph glyph-name="O" unicode="O" 
d="M559 1435h55q205 0 274 -213q33 -58 33 -154v-48q0 -608 -285 -947q-94 -83 -175 -83h-33q-293 0 -394 332v83q0 29 22 106q-22 0 -44 -71h-22v24q256 971 569 971zM289 237q7 -51 82 -59q239 39 265 546q77 303 52 488q-19 56 -52 51l-14 -2q-208 -34 -285 -404
t-66.5 -465.5t18.5 -154.5zM570 1205l29 4l2 -11q-135 -246 -137 -406l-29 -4q-34 248 135 417zM110 511l-10 -118v-36l10 -59h11v213h-11z" />
    <glyph glyph-name="P" unicode="P" horiz-adv-x="882" 
d="M568 1468h98q221 0 328 -283q11 -95 11 -108q0 -372 -556 -609q-138 0 -138 -87q-73 -402 -91 -402q-54 0 -54 174h-11q-29 -163 -54 -163q-11 21 -11 33l-33 -22l-10 22v11q0 60 21 163h-21q21 164 21 239q-49 21 -54 43v98l11 22q72 -22 109 -22q130 505 163 587h-11
l-55 -33q-32 72 -32 98q0 39 76 130q-11 0 -11 11q155 98 304 98zM399 1066v-11h10q47 130 77 130h21q0 -58 -108 -478q353 134 353 381v32q0 120 -108 120q-235 0 -235 -142q-10 -21 -10 -32zM123 925h11q21 -4 21 -22q0 -22 -21 -22l-22 11q11 21 11 33zM394 181h11v-10
q0 -29 -108 -120h-11q32 73 108 130zM394 51v-11q0 -11 -10 -11l10 -21q-68 -142 -184 -142l-11 22v22q109 141 195 141zM68 229v-22h11v22h-11zM449 121q21 -4 21 -22q0 -22 -21 -22q-22 0 -22 22q3 22 22 22z" />
    <glyph glyph-name="Q" unicode="Q" horiz-adv-x="1009" 
d="M712 1476q320 -32 320 -199q11 -76 10 -335l23 236l11 55q22 0 33 -66q0 -263 -165 -607q22 -74 66 -144l-22 -11q-15 0 -99 78q-22 -55 -33 -55l121 -254q0 -25 -55 -33q-155 26 -155 110q-55 -25 -55 -88q118 -122 210 -122q-22 -35 -22 -55q40 -33 77 -33
q0 -88 -99 -88q-161 0 -320 176q-78 -44 -210 -55q-264 0 -309 353v100q0 78 22 121h-33q0 -32 -44 -55q0 11 -11 11q0 19 248 454v11h-11q0 -25 -237 -344h-11v11q0 79 276 497q183 331 474 331zM128 1387q22 -3 22 -22v-33q0 -22 -22 -22h-45q-22 0 -22 22v22q11 33 67 33
zM287 339q9 -143 50 -143l75 44q-75 124 -75 232v22q29 55 62 55q105 0 137 -166l25 -11q42 49 87 133q-124 195 -124 320q12 59 12 99h38q37 -64 37 -77h12q0 88 38 176h25q74 -173 74 -187h25q38 175 38 209v144q0 88 -137 88q-219 0 -399 -894v-44zM511 1264
q-161 -127 -224 -412v-22l-50 -405q88 457 129 577t145 262zM-27 1078h11v-22q0 -22 -22 -22t-22 22z" />
    <glyph glyph-name="R" unicode="R" horiz-adv-x="810" 
d="M738 1216q50 -48 54 -48q-23 48 -54 48zM201 625v-4q8 0 19 19h-4q-7 0 -15 -15zM99 1472q131 -37 246 -37h34q77 0 127 4v-5l10 5q261 0 334 -73l5 -9v-5l-49 14l5 -9q-5 0 -5 -5q-64 14 -101 14t-112 -14v-5q178 0 233 -87q58 -66 58 -160v-15q0 -141 -107 -290v-5
q58 32 107 179q29 88 29 155h9l20 -72q0 -112 -116 -296v-5l63 73h4v-5q-58 -133 -222 -208q-68 -24 -68 -34q39 -419 63 -508q18 -38 58 -83l-15 -9q-32 0 -67 29v-5l9 -20l-9 -4h-10q-82 0 -145 72q-58 72 -58 170q4 223 24 314l-49 -4h-14q-35 0 -53 9v-9q0 -72 -88 -489
q0 -24 -4 -59q9 -19 9 -29h-5q-43 20 -43 155h-5q-14 -58 -19 -106l-25 5h-9l5 -25v-4h-5q-58 60 -58 96l4 44v5h-4q-25 -82 -25 -121v-24h-4q-39 29 -39 96q0 172 53 301v5h-5q-14 -44 -53 -97q-15 41 -15 87q8 75 112 237q0 13 -24 24q9 36 63 126q63 147 96 363
q0 78 131 78q0 5 44 5h29q63 0 63 -83q5 -21 5 -106v-24h-15l-5 24h-5q0 -33 -19 -44h-5v78h-5q-61 -129 -82 -276q0 -5 -10 -83h5q171 0 300 247q15 46 15 68q0 46 -44 102v5h10l19 -15h5q-24 28 -126 87q16 10 29 10q61 0 126 -48v4q-19 34 -19 49q9 0 43 -15
q-47 68 -198 68h-34q-100 0 -224 -9q-94 0 -174 111q-5 9 -5 20q32 -10 44 -10h9v5q-65 59 -62 100q5 0 5 5zM341 141h5q10 -1 10 -9q0 -10 -10 -10l-5 10v9zM356 345h5v-10h-5v10zM709 374h5q10 -2 10 -10q0 -7 -15 -15q-9 0 -9 10v5q1 10 9 10zM385 495h10v-5h-10v5z
M482 848q10 0 10 -14q-8 -20 -15 -20q-10 0 -10 10v10q0 7 15 14z" />
    <glyph glyph-name="S" unicode="S" horiz-adv-x="741" 
d="M544 1488q120 -18 120 -38v-10q-82 0 -115 -43q44 24 72 24h24q89 0 186 -81q24 0 29 -53q-30 -9 -38 -9q14 -51 14 -87q0 -128 -62 -310h-15q0 14 -9 14h-5v-10h-10q-11 0 -14 20l-19 -15h-5q-9 0 -9 34q-34 -31 -72 -34q0 10 -10 10q0 11 5 19q-5 48 -5 72
q34 220 34 282h-5q-91 -22 -210 -153h-5v5q9 44 52 119q-100 -71 -100 -182v-4q0 -115 96 -225q0 -7 -15 -15h-71v-4q71 -5 95 -5q56 0 148 48q0 -5 5 -5q-61 -112 -201 -163q-67 -14 -86 -14h-38q-41 0 -53 38q-100 166 -100 292q0 271 206 421q107 62 186 62zM425 1058
q0 -5 4 -5q-4 -9 -4 -19h-10v14q2 10 10 10zM501 1034q10 -2 10 -10q0 -9 -10 -9q-9 0 -9 9q1 10 9 10zM597 728l5 -10q-29 -19 -29 -33q105 -152 105 -268h5v105q1 10 9 10q20 -53 20 -87v-33q0 -97 -125 -316q-99 -124 -225 -124h-9q-110 0 -110 14v5q193 81 229 153
q10 0 10 10v5q-157 -149 -263 -149q-62 0 -167 96q0 9 -48 76l-5 29v24l14 19q0 24 -4 58q0 172 86 315h9v-29q7 0 48 39h5q11 0 19 -48h5q0 19 38 48l5 -10v-91h5q13 47 47 77v-5q-52 -212 -52 -378q0 -56 33 -86q93 0 182 139q24 42 24 86v29q0 78 -129 244l-5 9
q187 38 268 77zM688 723h14v-10q0 -7 -14 -14h-10q-9 0 -9 9zM128 704h10q9 -2 9 -10l-9 -5q-10 0 -10 10v5zM310 292h9v-9q-9 0 -9 9zM233 53v-4h5q16 0 72 28v5h-5q-61 -29 -72 -29zM611 63h14v-10h-14v10z" />
    <glyph glyph-name="T" unicode="T" horiz-adv-x="565" 
d="M651 1224h-34q-100 0 -465 -30q-94 0 -174 111q-5 9 -5 20q32 -10 44 -10h9v5q-65 59 -82 140q5 0 5 5q151 -77 266 -77h34q77 0 368 25v-5l10 5q261 0 334 -73l5 -9v-5l-49 14l5 -9q-5 0 -5 -5q-64 14 -101 14t-112 -14v-5q178 0 233 -87q16 -18 27 -38q-237 28 -313 28
zM501 1184q71 0 135 -82h-9q-44 14 -73 14h-14q-54 0 -54 -14q68 0 68 -20q-48 -217 -179 -648v-5h5q33 94 72 174h10v-5q-77 -300 -140 -610q0 -2 5 -19q-5 0 -5 -5q-131 31 -131 179l10 82v5h-5q-24 -100 -24 -184v-24q0 -13 -10 -29q-34 10 -34 68q0 9 15 97v4h-5
q-31 -117 -34 -121q-48 0 -63 68q116 341 218 770l34 160h-5q-7 0 -29 -24q-44 23 -44 72v15q0 42 247 82h39zM627 986h9v-10q0 -7 -14 -15l-5 10v5q2 10 10 10zM530 734h5q9 -2 9 -10v-5q0 -9 -9 -9h-10q-10 0 -10 9q0 7 15 15zM293 710l-68 -204v-5h5q37 72 67 204v5h-4z
" />
    <glyph glyph-name="U" unicode="U" horiz-adv-x="766" 
d="M293 200h31q41 17 147 243q0 11 -9 31q0 52 42 327h20l-31 -274v-11h11q94 277 178 770h11q21 -24 21 -42q22 0 53 149h11q116 -52 116 -138v-63q0 -323 -212 -770v-11h11q190 338 190 390h22q-112 -432 -370 -717q-91 -84 -180 -84h-31q-306 34 -306 264q-10 18 -10 41
q4 157 93 499h-2q75 278 111 441q-11 64 -11 93l23 11q19 0 43 -477l37 512l-11 81q11 0 11 12q128 -59 128 -232q-137 -947 -137 -1045z" />
    <glyph glyph-name="V" unicode="V" horiz-adv-x="669" 
d="M181 1551l69 -49q146 0 146 -269q-23 -305 -90 -805v-12h11q272 897 381 1019h11q22 -4 22 -23v-11l-11 -22h23q0 33 44 56q23 -15 23 -134l22 11h11v-135q0 -167 -369 -783q-134 -297 -134 -313l11 -23v-56q0 -22 -22 -22q-258 30 -258 213l-11 78q11 280 11 515v56
l11 67q-11 18 -11 56v45q0 25 11 44q0 12 -11 12q38 414 67 414q8 0 4 -795z" />
    <glyph glyph-name="W" unicode="W" horiz-adv-x="979" 
d="M206 1493q32 0 43 -129h11q0 32 64 86l11 -21q-11 -346 -22 -387q11 -41 11 -86v-53q0 -11 -11 -11l11 -22v-53q0 -45 -11 -118v-11h11q193 537 247 633l21 11h11v-21q0 -60 -11 -151v-10h11q0 42 43 64q21 0 21 -107h11q0 38 54 85q32 -139 32 -193v-86q0 -86 -11 -204
v-10h11q0 24 247 740q-11 21 -11 33h22q53 -31 53 -65h11q7 65 32 65q65 -66 65 -108v-43q0 -41 -247 -644q-129 -393 -193 -708h-11q-54 62 -54 118h-11v-75h-10q-86 59 -86 150v161l11 107q-27 -21 -33 -21l-21 11q32 47 54 204v10h-11q-32 -98 -32 -118h-33v11l11 150v11
h-11q-193 -492 -343 -687v-43h-11q-64 39 -64 129q-22 0 -22 -32h-21q-22 0 -22 21l33 129q-65 -75 -76 -75h-21q14 74 150 322q-32 740 -32 966l22 11q53 -33 53 -76h11q0 127 43 140zM502 194h32q22 -113 22 -139h-11q-35 0 -43 139zM378 108h10q22 -3 22 -21
q0 -58 -43 -75q-27 0 -32 43q20 49 43 53z" />
    <glyph glyph-name="X" unicode="X" horiz-adv-x="727" 
d="M860 1481h33q20 0 45 -134l56 -11v-34q-76 -87 -347 -503q-14 0 -67 -89q64 -169 146 -615q27 -36 44 -122h-11q-40 0 -89 44h-12v-33l12 -23q-22 -11 -34 -11l-89 56v-45q-168 83 -168 492q-105 -134 -290 -514h-12q-33 0 -33 78h-11q0 -56 -23 -56q-89 85 -89 101v22
q29 190 413 604l-122 771l22 11h22q0 -33 45 -56l11 45h11l56 -56v44h22q68 0 123 -480q16 4 291 480zM781 844q23 -3 23 -22v-23q-63 -111 -90 -123h-11v12q8 72 78 156z" />
    <glyph glyph-name="Y" unicode="Y" horiz-adv-x="493" 
d="M871 1468h5q-56 -53 -79 -128v-5h5q44 74 69 74q5 -9 5 -20h5q26 20 44 20q-21 -94 -59 -128q-184 -194 -380 -494q-56 -70 -74 -108h5q53 104 202 237q87 49 104 49v-5q-263 -281 -385 -493q-64 -327 -64 -400v-25q0 -5 -5 -5q6 -57 20 -103q-5 0 -5 -5q-79 52 -79 89
h-5q0 -20 -5 -20q5 -47 20 -69q-5 0 -5 -5q-89 57 -89 153q15 113 30 143v5h-5q-49 -110 -49 -192q9 -52 9 -55q-69 17 -69 129q0 95 55 217v4h-5l-74 -128q-15 28 -25 89q31 217 69 217q0 12 59 74q-59 335 -103 735q-12 0 -15 74v35l-5 9q5 0 5 5q74 -53 74 -83h5
q4 103 29 103h10q4 -25 15 -25l30 25q0 -5 5 -5q-15 -30 -15 -94v-49l5 -49h5q0 159 93 202l10 -5q-10 -17 -29 -118q8 0 24 -592v-10h5q96 221 355 705h5q60 0 60 -98q117 123 187 123zM363 1103h10v-15h-10v15zM304 940h5v-15h-15v5q1 10 10 10z" />
    <glyph glyph-name="Z" unicode="Z" horiz-adv-x="757" 
d="M348 -60h-90q-337 73 -337 326q0 144 595 918q-112 11 -168 11h-68q-22 4 -22 23q22 3 291 29q-124 32 -325 16v11q0 6 56 67q-45 0 -45 3v11q52 90 203 90h45q219 0 370 -126q-11 -11 -90 -11v-11q34 0 90 -79v-23q-3 -22 -22 -22q0 19 -68 34q0 -60 -206 -295v-11
q79 0 79 -34q-16 0 -34 -33q79 -39 79 -57q-41 -22 -90 -22h-90q-83 -147 -338 -493l-11 -79l50 -86h67q162 0 214 303q0 20 -23 57q26 25 169 33q101 -43 101 -157v-56q0 -186 -281 -326q-61 -11 -101 -11zM247 917h-12v23h12v-23zM168 1007l-11 22q0 17 34 34q22 0 22 -22
z" />
    <glyph glyph-name="bracketleft" unicode="[" horiz-adv-x="546" 
d="M806 1510q-56 -95 -56 -112h11q43 33 67 33q0 -11 11 -11q-21 -166 -158 -166q-156 -4 -156 -49q0 -31 -277 -1084h11q121 0 287 23q0 -14 -35 -93q11 -22 11 -34q-159 -112 -477 -112q-65 15 -65 45q37 33 56 33l-67 68v22q0 31 9 45q0 89 280 1041h28q-22 0 -22 22
l33 45q-22 28 -22 33v112q0 37 196 56q235 35 335 94v-11z" />
    <glyph glyph-name="backslash" unicode="\" horiz-adv-x="727" 
d="M726 95q27 -36 44 -122h-11q-40 0 -89 44h-12v-33l12 -23q-22 -11 -34 -11l-89 56v-45q-148 103 -335 1498l22 11h22q0 -33 45 -56l11 45h11l56 -56v44h22q68 0 155.5 -453t169.5 -899zM343 190q-111 484 -98 578l4 15l12 -5q25 -25 119 -540l-7 -28q-5 -24 -30 -20z" />
    <glyph glyph-name="bracketright" unicode="]" horiz-adv-x="546" 
d="M-147 -105q56 95 56 112h-12q-43 -33 -67 -33q0 11 -11 11q21 166 158 166q156 4 156 49q0 31 277 1084h-11q-121 0 -287 -23q0 14 35 93q-11 22 -11 34q159 112 477 112q65 -15 65 -45q-37 -33 -56 -33l67 -68v-22q0 -31 -9 -45q0 -89 -280 -1041h-28q23 0 23 -22
l-34 -45q23 -28 23 -33v-112q0 -37 -196 -56q-236 -35 -335 -94v11z" />
    <glyph glyph-name="asciicircum" unicode="^" horiz-adv-x="405" 
d="M266 1416q61 32 91 32q15 -3 12 -18q-11 0 -27 -27l-1 -10q15 0 57 19q-1 -9 6 -9l39 -198l-14 9q-2 -9 -9 -9q1 9 -7 9q-12 -46 -30 -46q-15 0 -11 27h-7l-47 -45q-9 39 -80 130l-6 8q-51 -63 -90 -103l-14 9q-1 -9 -9 -9q1 9 -6 9q-13 -46 -30 -46q-16 0 -65 -18
q-10 39 27 139.5t95 123.5q92 55 132 55q15 -3 12 -18q-8 0 -18 -14z" />
    <glyph glyph-name="underscore" unicode="_" horiz-adv-x="653" 
d="M561 18h-34q-100 0 -465 -30q-94 0 -174 111q-5 9 -5 20q32 -10 44 -10h9v5q-65 59 -82 140q5 0 5 5q151 -77 266 -77h34q77 0 368 25v-5l10 5q261 0 334 -73l5 -9v-5l-49 14l5 -9q-5 0 -5 -5q-64 14 -101 14t-112 -14v-5q178 0 233 -87q16 -18 27 -38q-237 28 -313 28z
" />
    <glyph glyph-name="grave" unicode="`" horiz-adv-x="303" 
d="M240 1450q18 -3 18 -18q-13 0 -27 -27v-10q18 0 64 19q0 -9 9 -9l81 -198l-18 9q0 -9 -9 -9q0 9 -9 9q-6 -46 -27 -46q-18 0 -18 27h-9l-46 -45q-18 39 -118 129.5t-36 113.5q98 55 145 55z" />
    <glyph glyph-name="a" unicode="a" horiz-adv-x="669" 
d="M377 1083h8q43 -24 45 -50h8q-3 42 6 42q52 -33 77 -33q15 8 24 8q37 -50 40 -100l2 -25q9 -121 -28 -406h8q53 17 74 17h8l1 -17l-22 -33q24 0 26 -17q4 -60 -93 -91q-18 -373 -39 -373q-36 33 -63 182h-9q0 -141 -23 -141q-27 32 -30 75l-5 74q-4 47 7 125
q-58 -17 -189 -25q-99 -259 -123 -357q-50 0 -59 125q-21 0 -26 -100h-17q-22 0 -48 91q-4 57 75 233q-142 5 -145 49l7 17q28 -17 43 -17q-19 28 -20 50q15 8 24 8l-1 9q-36 42 -37 50l16 8h108q107 0 142 99q237 392 229 506zM420 718q1 -13 -130 -265h25q108 0 103 58
q-5 74 11 199l-1 8h-8zM289 237h8l2 -17h-9zM255 21h25q1 -16 -16 -16z" />
    <glyph glyph-name="b" unicode="b" horiz-adv-x="669" 
d="M493 1120l36 -7v-15q-152 -27 -152 -58h7q77 22 130 22h15q122 0 166 -116q15 -26 15 -58v-65q0 -120 -188 -311q57 -108 57 -203v-29q0 -167 -188 -276q-50 -14 -87 -14q-290 77 -290 217q-7 0 -7 29v116q9 73 29 73h7q0 -22 8 -51h7q0 27 22 123q-22 0 -37 65v44h8
q20 -22 50 -22q44 189 58 225h-7q-13 -8 -29 -8h-7l-15 8q8 9 8 36q-24 -15 -37 -15l-7 15l15 29h-22l-15 -8q0 8 -7 8q20 51 196 152q116 94 261 94zM297 591h7q105 0 239 218q22 55 22 79q-8 36 -58 36q-138 -17 -138 -58q-72 -248 -72 -275zM500 903v-8
q-98 -82 -102 -137h-14v7q22 138 116 138zM14 765h15v-14q0 -15 -15 -15q-14 0 -14 15q2 14 14 14zM268 454q-72 -245 -72 -276q7 -21 43 -21h15q148 0 181 217q-17 72 -37 72h-21q-25 0 -37 -7zM304 367h7v-15h-7v15zM348 48v-7h14q20 0 73 65v7q-71 -65 -87 -65z" />
    <glyph glyph-name="c" unicode="c" horiz-adv-x="667" 
d="M479 1134v-8q-72 -62 -92 -99v-7q82 61 145 61h23q155 0 183 -222v-53l-31 -91l-7 -39h-15l-23 16q-25 -16 -46 -16q-8 13 -8 39q-44 -23 -76 -23l-8 15q32 102 39 152q-8 31 -8 54q-118 0 -244 -382q-69 -242 -69 -305q0 -6 8 -61h7q168 0 252 382q-8 15 -8 23l16 7
q76 -97 114 -198v-53q0 -202 -274 -321q-66 -15 -115 -15q-157 0 -229 183l-7 46v99q0 10 15 84h15v-115q0 -56 23 -61h8v31q0 211 190 618q-13 0 -76 -77h-7v46q0 27 38 92h-8q-15 -8 -23 -8l-7 15q224 191 305 191zM158 1050l8 -15l-15 -8l-8 15zM387 493h15v-7h-15v7z
M372 440h15v-15h-15v15zM-25 36l8 -15l-15 -8l-8 15z" />
    <glyph glyph-name="d" unicode="d" horiz-adv-x="630" 
d="M450 1095h16q200 -167 200 -391q0 -367 -288 -639q-104 -72 -152 -72v8q157 146 160 168h-8q-104 -125 -215 -144v8q130 83 231 407q72 246 72 320v71q0 33 -80 128q-8 13 -40 120h8q43 -6 112 -72v8q-16 59 -16 80zM175 1065q23 0 87 -88q6 40 24 40q56 -39 56 -120
q0 -52 -152 -766v-80h-15l-16 40h-8q0 -88 -8 -88q-64 23 -64 112h-8q0 -20 -8 -64h-8q-32 0 -32 112q0 116 40 247v8h-8l-56 -159h-16v47h-8v-24h-24q0 99 144 336q87 217 87 319v56q0 35 -15 64q8 0 8 8zM-97 139h8v-16h-8v16z" />
    <glyph glyph-name="e" unicode="e" horiz-adv-x="512" 
d="M637 1114q-39 -64 -39 -76h8q30 23 46 23q0 -8 7 -8q-21 -167 -114 -167q-188 -11 -259 -31q76 -67 22 -251q35 0 216 33v-7q-62 -92 -99 -92v-7h8l45 7h8v-7q0 -56 -216 -57q0 -44 -76 -304h7q163 0 276 15q0 -10 -200 -101q177 2 177 -6q-109 -76 -405 -76
q-114 10 -114 30q25 23 38 23l-46 46v15q0 21 76 31q0 61 76 312q-30 12 -30 23v8l15 22l-23 31q0 29 69 38l84 274h-61q-16 0 -16 16l23 30q-15 19 -15 23v76q0 25 213 38q231 44 299 84v-8zM598 756l8 -15v-8h-23v8q3 15 15 15zM461 375h8v-15q-13 0 -38 -23h-15
q0 12 45 38zM469 322h8v-8q-19 -33 -54 -45l-7 15q7 0 53 38z" />
    <glyph glyph-name="f" unicode="f" horiz-adv-x="509" 
d="M716 1102v-9q0 -36 -69 -120l9 -17q0 -21 -250 -78q-60 -248 -120 -326h17q35 17 172 60v-9q-8 -46 -8 -77q17 -3 17 -17v-17q0 -28 -198 -86q0 -99 -120 -447v-52h-17q-35 95 -35 129l9 86v9h-9q-36 -198 -51 -198q-61 108 -61 137q0 83 61 327h-9q-86 11 -86 34l34 43
q-8 15 -8 35q120 0 120 77q69 236 69 275h-9q-34 13 -34 26v9l26 34q-13 0 -60 60q32 72 610 112zM441 724l8 -17v-18q0 -11 -43 -43h-8q19 78 43 78zM389 131q17 -3 17 -18q0 -17 -17 -17t-17 17q3 18 17 18z" />
    <glyph glyph-name="g" unicode="g" horiz-adv-x="572" 
d="M402 1039h31q185 0 237 -166q-8 0 -8 -8l-15 8h-8v-8q29 -39 47 -118l-16 -8l-23 16q-24 -34 -24 -64h-16q-11 0 -24 24l-39 -24l-16 8q0 -11 -24 -23h-31v55q16 144 16 148l-16 8q-229 10 -300 -646q10 -95 31 -95h8q110 0 158 151l24 86h-16q-46 0 -95 -39l-23 150
q14 40 79 71h23q46 0 229 16v-8l-47 -47q47 -27 47 -48q-65 -365 -126 -450q-8 15 -8 24q-45 -64 -55 -64q-8 14 -8 32h-8q0 -22 -63 -71q0 8 -8 8q17 29 55 158q-74 -134 -150 -134q-229 0 -229 237v7q0 146 47 348q-20 0 -31 63q2 16 16 16q2 -16 15 -16q14 2 71 174
q155 229 293 229zM339 691q15 -2 15 -15l-15 -8v23z" />
    <glyph glyph-name="h" unicode="h" horiz-adv-x="648" 
d="M749 1128v-9q-44 -107 -44 -149q70 70 79 70h18q17 -2 17 -17q-129 -169 -166 -341l17 8h53v-8q0 -9 -53 -79q35 0 35 -18l-96 -105l-149 -586h-8q-44 0 -53 149h-9q-20 -140 -35 -140q-70 57 -70 166l97 385q-40 -17 -175 -26v-9l-70 -315q-9 -35 -9 -61h-18
q-17 46 -17 122h-9q-30 -166 -44 -166q-52 41 -52 70h-9v-26q-35 9 -35 87q96 425 96 490l-8 44q50 0 148 376v27h27q35 -15 35 -62h17q3 33 35 53l18 -53q0 -19 -27 -105l18 9h9l17 -9q-70 -269 -70 -323h18q0 44 140 61q27 3 105 297q43 140 113 140v-26q80 79 114 79z
" />
    <glyph glyph-name="i" unicode="i" horiz-adv-x="310" 
d="M259 1105q94 -43 94 -170v-128q0 -157 -204 -841l-17 -9q-68 56 -68 145h-9l-8 -43v-76h-9q-68 57 -68 144q170 569 221 808q-8 47 -8 68l17 8q14 0 59 -51v77l-8 59q8 0 8 9zM89 816l9 -17l-17 -9l-9 17zM395 493h9v-17h-9v17zM353 289l8 -17l-17 -9l-8 17z" />
    <glyph glyph-name="j" unicode="j" horiz-adv-x="574" 
d="M526 1020h45q143 0 143 -30q-33 -38 -60 -38v-7q60 0 60 -15q-15 -3 -15 -15l15 -23q-50 -23 -105 -23q-123 -775 -196 -775q0 -63 -196 -105q-233 32 -233 233v8q30 256 60 256h30q23 0 23 -30h15q0 22 15 22q18 0 23 -53h7l23 16l7 -16v-22q-45 -133 -45 -218
q2 -15 15 -15h15q134 0 264 677q-91 -15 -136 -15l-7 15v7q2 15 15 15l-8 16l15 30h-7q-19 -15 -23 -15q-8 14 -8 22q0 90 113 90q54 8 136 8zM330 764q15 -2 15 -15h-15v15zM225 749h7v-15h-7v15zM526 124h7v-15h-7v15z" />
    <glyph glyph-name="k" unicode="k" horiz-adv-x="634" 
d="M507 1120h16v-8q0 -16 -16 -16v24zM499 1079v-8q0 -16 -16 -16h-9q0 12 25 24zM256 485q180 366 235 513q6 41 22 41q36 -32 34 -41q-12 -44 -14 -64q144 121 217 121h16q14 -2 14 -16q-2 -4 -20 -24v-8l26 16h33q16 -2 14 -16q-47 -35 -215 -244q-103 -115 -194 -283v-8
h8q4 34 93 105h16l-2 -8l-28 -41q20 -245 34 -542q17 0 12 -33q-8 0 -8 -8q-109 43 -99 122h-8l-8 -65h-16q-87 87 -65 283l6 57q-57 -57 -188 -341q4 -2 4 -7l-9 -5q-1 -2 -2 -3h-6q-43 3 -73 47v-31q0 -16 -16 -16q-26 0 -48 113v81q0 20 16 73q-22 0 -49 -138h-16v24
q0 61 49 203l-8 16v170q6 130 32 130h8l16 -146h8q122 476 122 519v32h24q57 -40 57 -73h8q0 29 24 98h8q27 0 33 -106v-40l40 48l8 -16v-32q0 -32 -145 -457z" />
    <glyph glyph-name="l" unicode="l" horiz-adv-x="495" 
d="M341 1081q33 -16 33 -49h16q4 33 25 33h16v-8q0 -58 -220 -870l17 8h89q29 0 73 8q63 -10 81 -24q-16 -69 -16 -81q16 -3 16 -17v-16q-28 -46 -268 -65q-203 42 -203 211q0 170 228 797h24q0 -25 16 -25q16 82 33 82l24 -17q0 33 16 33zM33 666l8 -16v-16h-8
q-17 0 -17 16q3 16 17 16zM415 480q16 -3 16 -17q-31 -71 -49 -73l-8 16q0 39 41 74zM374 284l8 -16l-16 -8l-8 16z" />
    <glyph glyph-name="m" unicode="m" horiz-adv-x="646" 
d="M202 1098q17 -3 17 -17q-9 -16 -9 -25l17 -8q0 12 25 25h17l17 -9q2 17 17 17q16 -19 16 -59h17v17h17q42 -122 42 -176v-42q0 -35 -8 -93v-8h8q130 248 294 319l9 -17q-13 0 -26 -25v-8h9q16 8 25 8l17 -25q0 -11 -25 -67v-9h8q0 40 76 84q0 -8 8 -8q-20 -50 -34 -50
l9 -17q-118 -304 -269 -950h-9q-67 25 -67 110h-8v-59h-9q-25 8 -25 50v51q0 65 84 428v9h-8q-74 -226 -143 -303q-84 0 -84 101v143q0 30 8 75v9h-8q-101 -508 -101 -546v-26l9 -42l-17 -8q-135 53 -135 202q-8 5 -8 75q193 542 193 807q14 67 34 67zM261 132h16v-9h-16v9z
" />
    <glyph glyph-name="n" unicode="n" horiz-adv-x="660" 
d="M267 1096q86 0 130 -398q49 -243 49 -317h8q106 549 114 674h8q9 0 33 -73q8 0 24 -8q0 53 16 106h8q49 -41 49 -114q0 -55 -146 -829q-8 -76 -8 -146h-8q-17 0 -33 57h-8v-8l8 -41h-24q-33 18 -33 65h-8v-65l8 -16q-8 0 -8 -8q-130 84 -130 219q-65 284 -65 423h-8
q-114 -538 -114 -634h-8q-49 40 -49 154h-8l-16 -130q8 0 8 -8l-16 -8q-65 66 -65 130v41q16 471 65 471q16 -23 41 -163h8q0 157 122 593h8l40 -8l-8 17v8q3 16 16 16z" />
    <glyph glyph-name="o" unicode="o" horiz-adv-x="704" 
d="M445 1058h44q164 0 219 -158q26 -43 26 -114v-35q0 -449 -228 -700q-75 -61 -140 -61h-26q-234 0 -315 245v61q0 22 18 79q-18 0 -35 -52h-18v17q204 718 455 718zM189 195q0 -40 54 -54q177 0 246 383q86 221 86 365q-7 46 -32 46h-11q-153 0 -257 -466
q-86 -228 -86 -274zM489 898h22v-9q-122 -171 -140 -292h-21q0 194 139 301zM86 375l-8 -87v-27l8 -43h9v157h-9z" />
    <glyph glyph-name="p" unicode="p" horiz-adv-x="611" 
d="M429 1067h74q181 0 260 -212q9 -71 9 -81q0 -279 -432 -456q-73 0 -73 -66q-85 -301 -98 -301q-41 0 -41 130h-8q-22 -122 -41 -122q-8 16 -8 25l-24 -17l-9 17v8q0 45 17 122h-17q17 123 17 179q-37 16 -41 33v73l8 16q54 -16 82 -16q97 378 122 440h-8l-41 -25
q-25 54 -25 74q0 29 58 98q-9 0 -9 8q117 73 228 73zM340 766v-9h8q35 98 57 98h16q0 -44 -81 -358q220 100 220 285v24q0 90 -74 90q-138 0 -138 -106q-8 -16 -8 -24zM95 660h9q16 -3 16 -17q0 -16 -16 -16l-17 8q8 16 8 25zM299 103h8v-9q0 -21 -81 -89h-8q24 55 81 98z
M299 5v-8q0 -8 -8 -8l8 -17q-51 -106 -138 -106l-8 17v16q81 106 146 106zM55 138v-16h8v16h-8zM340 57q16 -3 16 -16q0 -17 -16 -17t-16 17q2 16 16 16z" />
    <glyph glyph-name="q" unicode="q" horiz-adv-x="722" 
d="M463 1051q232 0 287 -244v-34q0 -365 -194 -699q-93 -77 -93 -84q0 -34 101 -34h59l17 8l42 -50q0 -81 -168 -118q-118 0 -261 160q-177 59 -177 93q8 0 8 8l17 -8h84v8q-143 0 -143 185h-8q-6 -59 -26 -59l-8 17v85q0 30 51 151q0 253 176 506q115 109 236 109zM312 360
q0 -51 25 -143h-17l-76 68q0 -59 -8 -68q0 -36 34 -109h33q136 123 169 286q92 265 92 387v51q0 51 -50 51q-102 0 -169 -379q-25 -42 -33 -144zM270 655v-8h8q54 124 118 210v9q-54 -36 -126 -211zM472 790q17 -32 17 -101q0 -135 -26 -135h-8v8q0 51 -9 152q7 76 26 76z
" />
    <glyph glyph-name="r" unicode="r" horiz-adv-x="611" 
d="M414 1076h7q204 0 276 -169q8 -41 8 -69v-46q0 -162 -245 -314q61 -377 115 -475h-16q-99 33 -99 84h-8v-8q15 -49 15 -61l-15 -8q-75 52 -115 230q-17 184 -31 184q-61 0 -61 -53q-69 -283 -69 -345v-31h-8q-35 0 -69 107h-7l-8 -15v-46h-15q-36 0 -54 123q8 107 46 276
q-46 18 -46 30v8q0 17 8 31q-8 13 -8 30h15q26 -23 62 -23q0 26 92 384l-31 -23h-8q-15 0 -38 69q0 130 307 130zM383 938q0 -33 -100 -376q119 0 246 215q15 50 15 69v8q0 71 -123 84h-38zM299 41v-23q-16 0 -16 15z" />
    <glyph glyph-name="s" unicode="s" horiz-adv-x="625" 
d="M421 1084q232 -35 232 -216q8 0 8 -16q0 -99 -72 -159h-8q-20 16 -32 16l-40 -8q0 24 -16 24q0 -19 -40 -24l-8 16q0 36 24 175q-16 48 -32 48h-8q-82 0 -112 -135q0 -92 64 -184l16 -8q77 8 88 16q0 -8 8 -8q0 -12 -56 -64v-8q136 -74 136 -256q0 -113 -64 -191l-24 -16
h-16q32 116 32 136v32h-8q-27 -264 -255 -264q-159 0 -232 184v88q0 112 80 183h16v-32q26 16 40 16q0 -24 24 -24v-8l-8 -16h24l-8 -56l40 40l16 -8q-48 -103 -48 -175q5 -48 24 -48h16q143 31 143 143q0 136 -199 232q-56 44 -56 80v16l48 56q-24 84 -24 120
q0 218 191 287q81 16 96 16zM6 517h16v-16q0 -16 -16 -16t-16 16q2 16 16 16z" />
    <glyph glyph-name="t" unicode="t" horiz-adv-x="444" 
d="M164 83q8 -47 8 -68l-17 -8q-14 0 -59 51v-77l8 -59q-8 0 -8 -9q-94 43 -94 170v128q0 138 159 687h-130q-16 0 -16 15l8 39q-23 0 -23 85q50 24 147 24q26 0 39 -8q12 1 24 1l13 7q3 -3 7 -6q418 14 466 21v-8q-67 -87 -149 -122q-162 -26 -162 -55
q-50 -166 -125.5 -440t-95.5 -368z" />
    <glyph glyph-name="u" unicode="u" horiz-adv-x="579" 
d="M217 147h23q30 12 108 178q0 8 -7 23q0 38 31 240h15l-23 -201v-8h8q69 203 131 565h8q15 -18 15 -31q16 0 39 109h8q85 -38 85 -101v-46q0 -237 -155 -565v-8h8q139 248 139 286h16q-82 -317 -271 -526q-67 -62 -132 -62h-23q-225 25 -225 194q-7 13 -7 30q3 115 68 366
h-1q55 204 81 324q-8 47 -8 68l17 8q14 0 59 -51v77l-8 59q8 0 8 9q94 -43 94 -170q-101 -695 -101 -767z" />
    <glyph glyph-name="v" unicode="v" horiz-adv-x="560" 
d="M190 1089h9q106 0 106 -196q-17 -222 -66 -587v-8h9q197 653 277 742h8q16 -2 16 -16v-8l-8 -17h16q0 24 33 41q16 -11 16 -98l17 8h8v-97q0 -123 -269 -571q-98 -217 -98 -229l8 -16v-41q0 -16 -16 -16q-188 22 -188 155l-8 57q8 204 8 375v41l8 49q-8 13 -8 41v32
q0 19 8 33q0 8 -8 8q27 302 49 302q6 0 73 -33v49z" />
    <glyph glyph-name="w" unicode="w" horiz-adv-x="752" 
d="M138 1074q24 0 32 -94h8q0 23 46 63l8 -16q-8 -251 -15 -281q7 -30 7 -62v-39q0 -8 -7 -8l7 -16v-39q0 -32 -7 -86v-7h7q141 390 180 460l15 8h8v-16q0 -43 -8 -109v-8h8q0 31 31 47q16 0 16 -78h8q0 28 39 62q23 -101 23 -140v-62q0 -63 -7 -149v-8h7q0 18 180 539
q-8 15 -8 23h16q39 -22 39 -46h7q5 46 24 46q47 -47 47 -78v-31q0 -30 -180 -468q-93 -286 -140 -515h-8q-39 45 -39 86h-8v-55h-8q-62 43 -62 109v117l8 78q-20 -15 -24 -15l-15 8q23 34 39 148v8h-8q-24 -72 -24 -86h-23v8l8 109v8h-8q-141 -358 -250 -500v-31h-8
q-46 28 -46 94q-16 0 -16 -24h-16q-15 0 -15 16l23 93q-46 -54 -54 -54h-16q10 54 109 234q-23 538 -23 702l15 8q39 -23 39 -54h8q0 91 31 101zM354 130h23q16 -82 16 -102h-8q-26 0 -31 102zM263 67h8q16 -2 16 -15q0 -42 -31 -55q-20 0 -24 31q15 36 31 39z" />
    <glyph glyph-name="x" unicode="x" horiz-adv-x="627" 
d="M665 1106h25q15 0 34 -101l42 -8v-25q-57 -66 -260 -377q-11 0 -50 -67q48 -127 109 -462q21 -27 33 -92h-8q-30 0 -67 34h-9v-25l9 -17q-17 -9 -25 -9l-67 42v-33q-126 62 -126 369q-79 -101 -218 -386h-9q-25 0 -25 59h-8q0 -42 -17 -42q-67 63 -67 75v17
q22 143 310 453l-92 578l17 9h17q0 -25 33 -42l8 33h9l42 -42v34h17q50 0 92 -361q11 3 218 361zM607 628q16 -3 16 -17v-16q-47 -84 -67 -93h-8v9q6 54 59 117z" />
    <glyph glyph-name="y" unicode="y" horiz-adv-x="387" 
d="M147 1112q67 -36 67 -318q7 0 17 -209q78 108 268 468h17q23 0 41 -83h9v25h25v-34q0 -111 -259 -577q-59 -273 -134 -460h-9l-58 42v17q0 20 16 75v8h-8q-62 -142 -75 -142q-25 17 -25 92h-9q0 -42 -16 -42h-9l-8 42v33q0 119 92 360q-42 592 -67 644l17 9
q75 -13 75 -67h8q6 117 25 117zM373 1045l9 -17l-17 -8l-8 17zM246 941h16l-8 -75q8 -17 8 -26l-16 -8l-9 59zM231 443v-17h8q28 109 59 109v16q-42 -16 -67 -108zM449 459q16 -2 16 -16q0 -17 -16 -17q-17 0 -17 17q3 16 17 16zM292 768q16 -2 16 -16q0 -17 -16 -17
q-17 0 -17 17q3 16 17 16zM147 91v-16h9v16h-9z" />
    <glyph glyph-name="z" unicode="z" horiz-adv-x="620" 
d="M243 -60h-67q-255 55 -255 246q0 109 450 679q-85 8 -128 8h-50q-17 3 -17 17q17 3 202 54q-228 -37 -228 -20v9q0 4 43 51q-34 0 -34 17v8q39 68 152 68h34q166 0 280 -110q-8 -9 -68 -9v-8q26 0 68 -60v-17q-2 -17 -17 -17q0 15 -51 26q0 -45 -110 -238v-8q59 0 59 -26
q-12 0 -25 -25q59 -29 59 -43q-31 -17 -67 -17h-68q-63 -111 -263 -364l-9 -60v-42h51q122 0 161 229q0 15 -17 42q20 20 128 26q76 -33 76 -119v-42q0 -141 -212 -247q-46 -8 -77 -8zM167 678h-8v17h8v-17zM108 746l-9 17q0 12 26 26q17 0 17 -17z" />
    <glyph glyph-name="braceleft" unicode="{" horiz-adv-x="646" 
d="M456 614.5q-21 -68.5 -85 -271.5q-56 -229 81 -219.5t194 20.5q0 -14 -35 -93q11 -22 11 -34q-159 -112 -331 -114q-255 -11 -197 345q7 37 66 244l1 1l32 112q6 45 -5 75q-24 61 -153 86l229 83q22 78 48 166h28q-22 0 -22 22l33 45q86 330 287 359q168 21 268 80v-11
q-56 -95 -56 -112h11q43 33 67 33q0 -11 11 -11q-16 -124 -174.5 -164.5t-208.5 -296.5q0 -17 -29.5 -114t-98.5 -118q49 -44 28 -112.5z" />
    <glyph glyph-name="bar" unicode="|" horiz-adv-x="366" 
d="M400 1631q64 -46 64 -216v-169q0 -209 -394 -1547l-23 -11l-42 34h-12q-90 77 -90 192q339 1175 406 1491q-11 62 -11 91l23 11q19 0 79 -68v102l-11 79q11 0 11 11zM174 1247l11 -22l-22 -12l-12 23z" />
    <glyph glyph-name="braceright" unicode="}" horiz-adv-x="546" 
d="M310 741q21 68 85 272q56 229 -81 219.5t-194 -20.5q0 14 35 93q-11 22 -11 34q159 112 331 114q255 11 197 -345q-7 -37 -66 -244l-1 -1l-32 -112q-6 -45 5 -75q24 -61 153 -86l-229 -83q-22 -78 -48 -166h-28q22 0 22 -22l-33 -45q-86 -330 -287 -359
q-168 -21 -268 -80v11q56 95 56 112h-11q-43 -33 -67 -33q0 11 -11 11q16 124 174.5 164.5t208.5 296.5q0 17 29.5 113.5t98.5 118.5q-49 44 -28 112z" />
    <glyph glyph-name="asciitilde" unicode="~" horiz-adv-x="924" 
d="M135 591h10q-7 -40 -10 -89l-15 -2l-13 52l-16 -54l-18 9v-18l-4 -8q-16 10 -27 -12q-9 5 -22 29l-12 -30l-13 7q-11 38 -11 76q-2 45 12 93q65 222 279 188l2 7l-25 8q-15 4 -114 0l4 15l19 20q79 44 167 18q87 -12 122 -81l7 -2q56 43 65 40q-2 -8 5 -9
q-11 -10 -38 -82l1 -18q54 -83 125 -104q74 10 109 173q6 52 10 71l11 15q30 -12 25 -31q14 -1 19 22l30 -14q10 -2 29 10l7 -1q19 -30 25 -66h2l-1 -3v-1q-16 -138 -74 -245t-264 -103q-27 8 -86 51l-57 -34l-13 3q-27 9 -45 73q7 137 -85 138q-88 26 -116 -109z" />
    <glyph glyph-name="exclamdown" unicode="&#xa1;" horiz-adv-x="373" 
d="M159 -461q-136 30 -159 330v11q0 211 205 427q0 13 35 86v21h-9q0 -64 -89 -139h-9v11q63 139 107 332l107 10q97 -8 97 -43v-21q0 -143 -204 -684l-9 -65v-64q0 -35 35 -115v-32q-32 -65 -107 -65zM418 682h-45q-17 0 -17 53h-45q-18 0 -18 32l9 22q-17 35 -17 64
q0 135 151 171h17q107 -29 107 -118v-21q-37 -203 -142 -203z" />
    <glyph glyph-name="cent" unicode="&#xa2;" 
d="M656 1526v-10q-96 -84 -123 -133v-11q111 82 195 82h31q208 0 245 -297v-71l-40 -123l-11 -51h-20l-31 20q-34 -20 -61 -20q-11 17 -11 51q-59 -31 -102 -31l-10 21q43 137 61 234q-10 41 -10 72q-198 20 -378 -502q-82 -376 -82 -460q0 -9 40 -91h10q225 0 338 532
q-10 19 -10 30l21 10q102 -130 153 -266v-71q0 -271 -369 -431q-87 -20 -153 -20q-212 0 -307 246l-11 61v133q0 14 21 113h20v-154q0 -75 31 -82h10v41q0 284 256 830q-17 0 -102 -103h-10v62q0 36 51 123h-10q-20 -10 -31 -10l-10 20q301 256 409 256zM226 1413l10 -20
l-20 -10l-10 20zM533 666h21v-10h-21v10zM513 594h20v-20h-20v20zM-20 51l11 -20l-21 -10l-10 20z" />
    <glyph glyph-name="sterling" unicode="&#xa3;" horiz-adv-x="787" 
d="M487 373q-22 3 -22 22h22v-22zM170 706q119 630 198 630q0 91 281 152q316 -47 316 -336v-10q-43 -368 -87 -368h-43q-32 0 -32 43h-22q0 -33 -22 -33q-25 0 28 372l-71 -296l-32 -21l-11 21v33q65 191 65 314q-4 21 -22 21h-72q-141 0 -241 -527q389 9 399 1l4 -5l-4 -4
l-315 -45l4 -4q235 17 255 3l4 -5q8 -11 0 -18q-227 -27 -287 -45q-3 3 -81 4q-2 -9 -3 -17q86 -3 193 -16l70 -5q8 -11 0 -18q-72 -21 -271 -13q-18 -120 -35 -260q329 22 394 22l11 -22v-11q-3 -22 -21 -22l10 -21l-540 -87l530 44q27 21 32 21q11 -21 11 -32
q0 -130 -163 -130q-277 -11 -394 -11h-65q-206 0 -206 43q48 54 87 54v11q-87 0 -87 22q22 3 22 22l-22 32q71 32 152 32q25 157 48 291q-29 -5 -39 -1l-5 5q20 15 49 25q4 20 7 40q-129 -7 -146 10q-23 33 -14 42l38 37q31 31 145 36zM741 605l-5 -4q-44 -19 -217 -22l-5 4
q127 23 227 22zM206 1293h-11v22h11v-22zM639 395h-11v21h11v-21z" />
    <glyph glyph-name="currency" unicode="&#xa4;" horiz-adv-x="741" 
d="M425 1058q0 -5 4 -5q-4 -9 -4 -19h-10v14q2 10 10 10zM197 13q-58 13 -145 93q0 9 -48 76l-5 29v24l14 19q0 24 -4 58q0 172 86 315h9v-29q7 0 48 39h5q11 0 19 -48h5q0 19 38 48l5 -10v-91h5q13 47 47 77v-5q-52 -212 -52 -378q0 -56 33 -86q93 0 182 139q24 42 24 86
v29q0 78 -129 244l-5 9q187 38 268 77l5 -10q-29 -19 -29 -33q105 -152 105 -268h5v105q1 10 9 10q20 -53 20 -87v-33q0 -97 -125 -316q-71 -89 -157 -114q-38 -129 -85 -178l-18 9q0 -9 -9 -9q0 9 -9 9q-6 -46 -27 -46q-18 0 -18 27h-9l-46 -45q-18 39 -18 145v37
q0 47 6 82zM686 1417q70 -14 145 -77q24 0 29 -53q-30 -9 -38 -9q14 -51 14 -87q0 -128 -62 -310h-15q0 14 -9 14h-5v-10h-10q-11 0 -14 20l-19 -15h-5q-9 0 -9 34q-34 -31 -72 -34q0 10 -10 10q0 11 5 19q-5 48 -5 72q34 220 34 282h-5q-91 -22 -210 -153h-5v5q9 44 52 119
q-100 -71 -100 -182v-4q0 -115 96 -225q0 -7 -15 -15h-71v-4q71 -5 95 -5q56 0 148 48q0 -5 5 -5q-61 -112 -201 -163q-67 -14 -86 -14h-38q-41 0 -53 38q-100 166 -100 292q0 271 206 421q57 33 107 49q10 103 61 121q98 55 145 55q18 -3 18 -18q-13 0 -27 -27v-10
q18 0 64 19q0 -9 9 -9q-22 -113 -49 -189zM611 63h14v-10h-14v10zM310 292h9v-9q-9 0 -9 9zM128 704h10q9 -2 9 -10l-9 -5q-10 0 -10 10v5zM688 723h14v-10q0 -7 -14 -14h-10q-9 0 -9 9zM501 1034q10 -2 10 -10q0 -9 -10 -9q-9 0 -9 9q1 10 9 10z" />
    <glyph glyph-name="yen" unicode="&#xa5;" horiz-adv-x="493" 
d="M363 1103h10v-15h-10v15zM-3 246l-2 8q-130 -7 -147 10q-23 33 -14 42l38 37q29 29 131 35q7 36 14 62q-14 -2 -20 1l-5 5q-78 28 -95 45q-23 33 -14 42l38 37q37 37 190 37q-56 324 -98 708q-12 0 -15 74v35l-5 9q5 0 5 5q74 -53 74 -83h5q4 103 29 103h10q4 -25 15 -25
l30 25q0 -5 5 -5q-15 -30 -15 -94v-49l5 -49h5q0 159 93 202l10 -5q-10 -17 -29 -118q8 0 24 -592v-10h5q96 221 355 705h5q60 0 60 -98q117 123 187 123h5q-56 -53 -79 -128v-5h5q44 74 69 74q5 -9 5 -20h5q26 20 44 20q-21 -94 -59 -128q-184 -194 -380 -494
q-56 -70 -74 -108h5q53 104 202 237q87 49 104 49v-5q-182 -195 -297 -356q264 5 272 -2l4 -5l-4 -4l-309 -44q-2 -2 -3 -4l1 -1q235 17 255 3l4 -5q8 -11 0 -18q-173 -21 -249 -36q37 -3 76 -8l70 -5q8 -11 0 -18q-60 -18 -210 -15q-7 -35 -13 -66q320 7 329 -1l4 -5l-4 -4
q-76 -32 -56 -46l4 -5q8 -11 0 -18l-103 -49q8 -11 0 -18q-59 -17 -202 -15q-18 -109 -18 -148v-25q0 -5 -5 -5q6 -57 20 -103q-5 0 -5 -5q-79 52 -79 89h-5q0 -20 -5 -20q5 -47 20 -69q-5 0 -5 -5q-89 57 -89 153q15 113 30 143h-7q-47 -107 -47 -187q9 -52 9 -55
q-69 17 -69 129q0 55 19 119l-20 2l-8 -2l-15 -26q-4 8 -8 19q-44 -10 -57 -5l-5 5q22 16 54 27zM304 940h5v-15h-15v5q1 10 10 10z" />
    <glyph glyph-name="brokenbar" unicode="&#xa6;" horiz-adv-x="366" 
d="M329 614q-95 -361 -259 -915l-23 -11l-42 34h-12q-90 77 -90 192q122 423 209 734zM166 844q108 397 143 561q-11 62 -11 91l23 11q19 0 79 -68v102l-11 79q11 0 11 11q64 -46 64 -216v-169q0 -98 -86 -443zM174 1247l11 -22l-22 -12l-12 23z" />
    <glyph glyph-name="section" unicode="&#xa7;" horiz-adv-x="741" 
d="M544 1488q120 -18 120 -38v-10q-82 0 -115 -43q44 24 72 24h24q89 0 186 -81q24 0 29 -53q-30 -9 -38 -9q14 -51 14 -87q0 -128 -62 -310h-15q0 14 -9 14h-5v-10h-10q-11 0 -14 20l-19 -15h-5q-9 0 -9 34q-34 -31 -72 -34q0 10 -10 10q0 11 5 19q-5 48 -5 72
q34 220 34 282h-5q-91 -22 -210 -153h-5v5q9 44 52 119q-100 -71 -100 -182v-4q0 -115 96 -225q0 -7 -15 -15h-71v-4q71 -5 95 -5q56 0 148 48q0 -5 5 -5q-61 -112 -201 -163q-67 -14 -86 -14h-38q-41 0 -53 38q-100 166 -100 292q0 271 206 421q107 62 186 62zM425 1058
q0 -5 4 -5q-4 -9 -4 -19h-10v14q2 10 10 10zM501 1034q10 -2 10 -10q0 -9 -10 -9q-9 0 -9 9q1 10 9 10zM597 728l5 -10q-29 -19 -29 -33q105 -152 105 -268h5v105q1 10 9 10q20 -53 20 -87v-33q0 -97 -125 -316q-99 -124 -225 -124h-9q-110 0 -110 14v5q193 81 229 153
q10 0 10 10v5q-157 -149 -263 -149q-62 0 -167 96q0 9 -48 76l-5 29v24l14 19q0 24 -4 58q0 172 86 315h9v-29q7 0 48 39h5q11 0 19 -48h5q0 19 38 48l5 -10v-91h5q13 47 47 77v-5q-52 -212 -52 -378q0 -56 33 -86q93 0 182 139q24 42 24 86v29q0 78 -129 244l-5 9
q187 38 268 77zM688 723h14v-10q0 -7 -14 -14h-10q-9 0 -9 9zM128 704h10q9 -2 9 -10l-9 -5q-10 0 -10 10v5zM310 292h9v-9q-9 0 -9 9zM233 53v-4h5q16 0 72 28v5h-5q-61 -29 -72 -29zM611 63h14v-10h-14v10z" />
    <glyph glyph-name="dieresis" unicode="&#xa8;" horiz-adv-x="797" 
d="M274 1482h38q15 0 15 -46h38q15 0 15 -27l-8 -18q15 -30 15 -55q0 -115 -128 -145h-15q-91 25 -91 100v18q31 173 121 173zM591 1186h-37q-16 0 -16 45h-37q-15 0 -15 28l7 18q-15 30 -15 54q0 116 128 146h16q90 -25 90 -100v-18q-31 -173 -121 -173z" />
    <glyph glyph-name="copyright" unicode="&#xa9;" 
d="M656 1526v-10q-96 -84 -123 -133v-11q111 82 195 82h31q208 0 245 -297v-71l-40 -123l-11 -51h-20l-31 20q-34 -20 -61 -20q-11 17 -11 51q-59 -31 -102 -31l-10 21q43 137 61 234q-10 41 -10 72q-198 20 -378 -502q-82 -376 -82 -460q0 -9 40 -91h10q225 0 338 532
q-10 19 -10 30l21 10q102 -130 153 -266v-71q0 -271 -369 -431q-87 -20 -153 -20q-212 0 -307 246l-11 61v133q0 14 21 113h20v-154q0 -75 31 -82h10v41q0 284 256 830q-17 0 -102 -103h-10v62q0 36 51 123h-10q-20 -10 -31 -10l-10 20q301 256 409 256zM226 1413l10 -20
l-20 -10l-10 20zM533 666h21v-10h-21v10zM513 594h20v-20h-20v20zM-20 51l11 -20l-21 -10l-10 20z" />
    <glyph glyph-name="ordfeminine" unicode="&#xaa;" horiz-adv-x="400" 
d="M203.81 1433.77h5.28027q28.3789 -14.3994 29.6982 -29.999h5.28027q-1.98047 25.1992 3.95996 25.1992q34.3184 -19.7988 50.8174 -19.7988q9.90039 4.7998 15.8398 4.7998q24.4189 -29.999 26.3984 -59.998l1.32031 -14.999q5.93945 -72.5967 -18.4795 -243.59h5.28027
q34.9785 10.1992 48.8379 10.1992h5.2793l0.660156 -10.1992l-14.5195 -19.7998q15.8398 0 17.1592 -10.1992q2.64062 -35.999 -61.377 -54.5977q-11.8799 -223.791 -25.7393 -223.791q-23.7588 19.7988 -41.5781 109.195h-5.93945q0 -84.5967 -15.1797 -84.5967
q-17.8193 19.1992 -19.7988 44.998l-3.30078 44.3984q-2.63965 28.1992 4.62012 74.9971q-38.2783 -10.1992 -124.734 -14.999q-65.3379 -155.394 -81.1768 -214.191q-32.999 0 -38.9385 74.9971q-13.8594 0 -17.1592 -59.998h-11.2197q-14.5195 0 -31.6787 54.5977
q-2.63965 34.1992 49.498 139.795q-93.7168 3 -95.6963 29.3984l4.62012 10.1992q18.4785 -10.1992 28.3789 -10.1992q-12.54 16.7988 -13.2002 29.999q9.89941 4.7998 15.8398 4.7998l-0.660156 5.39941q-23.7588 25.1992 -24.4189 29.999l10.5596 4.7998h71.2773
q70.6172 0 93.7158 59.3975q156.414 235.19 151.134 303.588zM232.188 1214.78q0.660156 -7.7998 -85.7959 -158.993h16.499q71.2773 0 67.9775 34.7988q-3.2998 44.3975 7.25977 119.395l-0.660156 4.7998h-5.28027zM145.732 926.194h5.2793l1.32031 -10.2002h-5.93945z
M123.293 796.6h16.5q0.65918 -9.59961 -10.5605 -9.59961zM224.5 235h-17q-50 0 -232.5 -30q-47 0 -87 111q-2.5 9 -2.5 20q16 -10 22 -10h4.5v5q-32.5 59 -41 140q2.5 0 2.5 5q75.5 -77 133 -77h17q38.5 0 184 25v-5l5 5q130.5 0 167 -73l2.5 -9v-5l-24.5 14l2.5 -9
q-2.5 0 -2.5 -5q-32 14 -50.5 14t-56 -14v-5q89 0 116.5 -87q8 -18 13.5 -38q-118.5 28 -156.5 28z" />
    <glyph glyph-name="guillemotleft" unicode="&#xab;" 
d="M856 941l1 -8q23 -103 -131 -153q-69 -21 -366 -68l-7 -2l2 -8q446 -43 532 -97l2 -8q1 -16 -10 -20l-6 -2l-14 4l3 -16q19 6 39 -21q-5 -18 -74 -41l10 -14l2 -7l-77 -26q-96 -31 -506 114q-191 39 -200 36l-11 -12l-32 -11q-13 -4 -16 12q-23 186 82 221l44 22
q162 45 296 89l33 10l40 5q9 11 30 18l26 9q14 4 27 0q7 2 5 10q243 51 248 30q1 -5 -11 -79z" />
    <glyph glyph-name="logicalnot" unicode="&#xac;" horiz-adv-x="670" 
d="M685 812q123 1 129 -4l4 -5l-4 -4l-90 -13q17 -11 23 -29q8 -2 11 -4l4 -5q8 -11 0 -18q-6 -1 -12 -1q0 -9 -2 -18h5l-5 -4h-1q-11 -52 -63 -132q-98 -276 -116 -281l-8 -1l-7 4l12 207l-8 -2q-34 -150 -63 -159l-9 -2q-19 -2 -29 5q17 148 4 190q8 1 42 82
q-117 -2 -306 13q-71 -21 -88 -14l-5 5q99 72 417 41q5 11 9 23l-3 3q2 0 5 1q1 4 3 8q-39 -7 -59 -13q-6 7 -314 2q-131 -7 -148 10q-23 33 -14 42l38 37q52 52 328 30q127 3 218 5q9 9 19 11q59 6 71 -2z" />
    <glyph glyph-name="registered" unicode="&#xae;" horiz-adv-x="810" 
d="M738 1216q50 -48 54 -48q-23 48 -54 48zM201 625v-4q8 0 19 19h-4q-7 0 -15 -15zM99 1472q131 -37 246 -37h34q77 0 127 4v-5l10 5q261 0 334 -73l5 -9v-5l-49 14l5 -9q-5 0 -5 -5q-64 14 -101 14t-112 -14v-5q178 0 233 -87q58 -66 58 -160v-15q0 -141 -107 -290v-5
q58 32 107 179q29 88 29 155h9l20 -72q0 -112 -116 -296v-5l63 73h4v-5q-58 -133 -222 -208q-68 -24 -68 -34q39 -419 63 -508q18 -38 58 -83l-15 -9q-32 0 -67 29v-5l9 -20l-9 -4h-10q-82 0 -145 72q-58 72 -58 170q4 223 24 314l-49 -4h-14q-35 0 -53 9v-9q0 -72 -88 -489
q0 -24 -4 -59q9 -19 9 -29h-5q-43 20 -43 155h-5q-14 -58 -19 -106l-25 5h-9l5 -25v-4h-5q-58 60 -58 96l4 44v5h-4q-25 -82 -25 -121v-24h-4q-39 29 -39 96q0 172 53 301v5h-5q-14 -44 -53 -97q-15 41 -15 87q8 75 112 237q0 13 -24 24q9 36 63 126q63 147 96 363
q0 78 131 78q0 5 44 5h29q63 0 63 -83q5 -21 5 -106v-24h-15l-5 24h-5q0 -33 -19 -44h-5v78h-5q-61 -129 -82 -276q0 -5 -10 -83h5q171 0 300 247q15 46 15 68q0 46 -44 102v5h10l19 -15h5q-24 28 -126 87q16 10 29 10q61 0 126 -48v4q-19 34 -19 49q9 0 43 -15
q-47 68 -198 68h-34q-100 0 -224 -9q-94 0 -174 111q-5 9 -5 20q32 -10 44 -10h9v5q-65 59 -62 100q5 0 5 5zM341 141h5q10 -1 10 -9q0 -10 -10 -10l-5 10v9zM356 345h5v-10h-5v10zM709 374h5q10 -2 10 -10q0 -7 -15 -15q-9 0 -9 10v5q1 10 9 10zM385 495h10v-5h-10v5z
M482 848q10 0 10 -14q-8 -20 -15 -20q-10 0 -10 10v10q0 7 15 14z" />
    <glyph glyph-name="macron" unicode="&#xaf;" horiz-adv-x="670" 
d="M814 1418l4 -5l-4 -4l-315 -45l4 -4q235 17 255 3l4 -5q8 -11 0 -18q-227 -27 -287 -45q-6 7 -314 2q-131 -7 -148 10q-23 33 -14 42l38 37q52 52 328 30q438 11 449 2zM753 1321l-5 -4q-44 -19 -217 -22l-5 4q127 23 227 22zM654 1261q8 -11 0 -18q-102 -30 -458 -2
q-71 -21 -88 -14l-5 5q109 79 481 34z" />
    <glyph glyph-name="degree" unicode="&#xb0;" horiz-adv-x="662" 
d="M433 1475h37q137 0 183 -98q22 -26 22 -71v-21q0 -279 -191 -434q-63 -38 -117 -38h-22q-196 0 -264 152v38q0 13 15 49q-15 0 -29 -33h-15v11q171 445 381 445zM257 978q0 -19 34 -26q111 0 155 179q54 102 54 169q-5 22 -20 22h-7q-96 0 -162 -217q-54 -106 -54 -127z
M446 1305h14v-5q-77 -79 -88 -135h-13q0 90 87 140zM133 1052l-8 -55v-16l8 -27h7v98h-7z" />
    <glyph glyph-name="plusminus" unicode="&#xb1;" horiz-adv-x="670" 
d="M767 767l-5 -4q-44 -19 -217 -22l-5 4q127 23 227 22zM675 249q8 -11 0 -19q-102 -29 -458 -2q-71 -21 -88 -13l-5 5q109 78 481 34zM774 309l-5 -5q-44 -18 -217 -21l-5 4q127 23 227 22zM437 405l-5 25l-7 -4q-5 -11 -10 -21h22zM349 407q-34 192 -59 247q3 2 4 27
q-40 3 -84 6q-71 -21 -88 -14l-5 5q55 40 179 48v19q-53 -1 -121 -2q-131 -7 -148 10q-23 33 -14 42l38 37q44 44 244 35q-1 46 -2 101q-11 131 15 148q48 23 61 14l54 -37q62 -43 53 -229q342 8 352 0l4 -5l-4 -4l-315 -45l4 -4q235 17 255 3l4 -5q8 -11 0 -18
q-227 -27 -287 -45q-1 2 -20 3q0 -10 1 -20q59 -4 128 -12l70 -5q8 -11 0 -18q-58 -17 -197 -15q6 -178 6 -268q348 8 358 0l4 -5l-4 -5l-315 -44l4 -5q235 18 255 4l4 -5q8 -11 0 -19q-227 -26 -287 -44q-6 7 -314 2q-131 -8 -148 10q-23 32 -14 41l38 37q48 48 291 34z
" />
    <glyph glyph-name="uni00B2" unicode="&#xb2;" horiz-adv-x="975" 
d="M633 1445q274 0 342 -254q11 -42 11 -88q0 -203 -166 -485q-49 -44 -55 -44h-22v11q22 70 22 88v11h-11q0 -69 -397 -397l-22 -33h66q164 0 441 11v-11q-48 -55 -77 -55v-22q44 0 44 -22q-36 -34 -55 -34q88 -63 88 -77v-11q-203 11 -297 11h-56q-258 0 -397 -99h-22
q0 66 -55 66q0 -22 -22 -22q-28 37 -44 99q0 139 607 684q176 205 176 375v66l-11 56h-33q-111 0 -265 -375h-33v44h-11v-67h-33q-33 105 -33 111h-11q0 -22 -22 -111h-33v155q0 294 331 419h55zM942 507l11 -22q-66 -77 -210 -77v22q91 44 199 77z" />
    <glyph glyph-name="uni00B3" unicode="&#xb3;" horiz-adv-x="817" 
d="M535 1437h34q241 0 324 -190q23 -84 23 -101q0 -298 -247 -426q124 -89 124 -168v-67q0 -262 -303 -459q-96 -45 -224 -45q-118 0 -235 157q-56 89 -56 235q13 235 45 235l33 -22q20 11 45 11q4 -22 25 -284l9 262q0 33 22 33h11q9 0 90 -89q-34 -65 -45 -236
q0 -47 67 -67q158 0 247 347v23l-11 56q-111 -23 -124 -23h-22q-17 0 -45 45v101q0 26 168 67q168 160 168 336v11l-11 79q-209 0 -291 -370q0 -33 -23 -33q0 15 23 290q-79 -279 -101 -279q-94 136 -101 168q125 403 381 403z" />
    <glyph glyph-name="acute" unicode="&#xb4;" horiz-adv-x="303" 
d="M240 1450q18 -3 18 -18q-13 0 -27 -27v-10q18 0 64 19q0 -9 9 -9q-99 -146 -169 -218l-18 9q0 -9 -9 -9q0 9 -9 9q-6 -46 -27 -46q-18 0 -18 27h-9l-46 -45q-18 39 7 139.5t89 123.5q98 55 145 55z" />
    <glyph glyph-name="mu" unicode="&#xb5;" horiz-adv-x="646" 
d="M202 1098q17 -3 17 -17q-9 -16 -9 -25l17 -8q0 12 25 25h17l17 -9q2 17 17 17q16 -19 16 -59h17v17h17q42 -122 42 -176v-42q0 -35 -8 -93v-8h8q130 248 294 319l9 -17q-13 0 -26 -25v-8h9q16 8 25 8l17 -25q0 -11 -25 -67v-9h8q0 40 76 84q0 -8 8 -8q-20 -50 -34 -50
l9 -17q-118 -304 -269 -950h-9q-67 25 -67 110h-8v-59h-9q-25 8 -25 50v51q0 65 84 428v9h-8q-74 -226 -143 -303q-84 0 -84 101v143q0 30 8 75v9h-8q-101 -508 -101 -546v-26l9 -42l-17 -8q-135 53 -135 202q-8 5 -8 75q193 542 193 807q14 67 34 67zM261 132h16v-9h-16v9z
" />
    <glyph glyph-name="paragraph" unicode="&#xb6;" horiz-adv-x="882" 
d="M568 1468h98q221 0 328 -283q11 -95 11 -108q0 -372 -556 -609q-138 0 -138 -87q-73 -402 -91 -402q-54 0 -54 174h-11q-29 -163 -54 -163q-11 21 -11 33l-33 -22l-10 22v11q0 60 21 163h-21q21 164 21 239q-49 21 -54 43v98l11 22q72 -22 109 -22q130 505 163 587h-11
l-55 -33q-32 72 -32 98q0 39 76 130q-11 0 -11 11q155 98 304 98zM123 925h11q21 -4 21 -22q0 -22 -21 -22l-22 11q11 21 11 33zM394 181h11v-10q0 -29 -108 -120h-11q32 73 108 130zM394 51v-11q0 -11 -10 -11l10 -21q-68 -142 -184 -142l-11 22v22q109 141 195 141z
M68 229v-22h11v22h-11zM449 121q21 -4 21 -22q0 -22 -21 -22q-22 0 -22 22q3 22 22 22z" />
    <glyph glyph-name="periodcentered" unicode="&#xb7;" horiz-adv-x="382" 
d="M120.696 862.691h38.249q14.4492 0 14.4492 -45.0488h38.249q15.2998 0 15.2998 -27.1992l-7.64941 -18.6992q14.4492 -29.749 14.4492 -54.3984q0 -114.746 -128.347 -145.346h-14.4492q-90.9473 24.6494 -90.9473 100.297v17.8496q31.4492 172.545 120.696 172.545z
" />
    <glyph glyph-name="periodcentered" unicode="&#x2219;" horiz-adv-x="382" 
d="M120.696 862.691h38.249q14.4492 0 14.4492 -45.0488h38.249q15.2998 0 15.2998 -27.1992l-7.64941 -18.6992q14.4492 -29.749 14.4492 -54.3984q0 -114.746 -128.347 -145.346h-14.4492q-90.9473 24.6494 -90.9473 100.297v17.8496q31.4492 172.545 120.696 172.545z
" />
    <glyph glyph-name="cedilla" unicode="&#xb8;" horiz-adv-x="514" 
d="M311 163q64 -5 82 -43l-11 -12q-17 6 -33 13q71 -99 61 -125h6l2 6q4 10 7 49l2 6h13q3 0 21 -25q32 -157 -11 -270q-10 -25 -25 -49q-92 -141 -245 -141h-31q-157 70 -94 233l33 87h18q-7 -50 -11 -62h6q1 3 42 62h18l-14 -38h6l9 25h19q-15 -119 47 -119h19
q45 33 46.5 83t-12.5 104q-46 62 -93 138q78 99 123 78z" />
    <glyph glyph-name="uni00B9" unicode="&#xb9;" horiz-adv-x="431" 
d="M314 1454q216 -71 216 -183v-76q-227 -807 -227 -1112v-11l11 -75q-11 0 -11 -11q-79 0 -97 130v54l10 64v11h-10l-43 -248q-36 2 -108 119v-76h-22q-15 0 -54 54v11q0 102 237 917h-10q-70 -65 -76 -65q-32 0 -32 152q172 80 172 194q16 0 44 151zM87 1389h32
q16 0 33 -32v-33q0 -16 -43 -43h-33q-32 11 -32 65q0 17 43 43z" />
    <glyph glyph-name="ordmasculine" unicode="&#xba;" horiz-adv-x="662" 
d="M433 1475h37q137 0 183 -98q22 -26 22 -71v-21q0 -279 -191 -434q-63 -38 -117 -38h-22q-196 0 -264 152v38q0 13 15 49q-15 0 -29 -33h-15v11q171 445 381 445zM257 978q0 -19 34 -26q111 0 155 179q54 102 54 169q-5 22 -20 22h-7q-96 0 -162 -217q-54 -106 -54 -127z
M446 1305h14v-5q-77 -79 -88 -135h-13q0 90 87 140zM133 1052l-8 -55v-16l8 -27h7v98h-7z" />
    <glyph glyph-name="guillemotright" unicode="&#xbb;" 
d="M37 522l-2 8q-22 102 132 152q69 22 366 68l6 2l-2 8q-445 43 -532 97l-1 8q-2 17 9 20l7 2l14 -3l-3 15q-19 -6 -39 21q5 19 73 41l-10 14l-1 8l77 25q96 31 505 -113q191 -39 201 -36l11 12l32 10q13 4 16 -11q22 -187 -83 -221l-43 -23q-162 -44 -297 -88l-32 -11
l-40 -5q-9 -11 -31 -18l-25 -8q-15 -5 -28 -1q-6 -2 -4 -10q-243 -51 -248 -30q-1 6 10 79z" />
    <glyph glyph-name="questiondown" unicode="&#xbf;" horiz-adv-x="975" 
d="M772 640q96 39 167 -140q-137 -136 -262 -248q-176 -205 -176 -375v-66l11 -56h33q111 0 265 375h33v-44h11v67h33q33 -105 33 -111h11q0 22 22 111h33v-155q0 -294 -331 -419h-55q-274 0 -342 254q-11 42 -11 88q0 203 166 485q49 44 55 44h22v-11q-22 -70 -22 -88v-11
h11q0 48 196 225q-34 -12 -69 -23l-11 22q58 68 177 76zM791 682h-45q-17 0 -17 53h-45q-18 0 -18 32l9 22q-17 35 -17 64q0 135 151 171h17q107 -29 107 -118v-21q-37 -203 -142 -203z" />
    <glyph glyph-name="Agrave" unicode="&#xc0;" horiz-adv-x="704" 
d="M624 1440q33 0 33 -38q-14 -318 -24 -354q0 -4 5 -4q0 -5 -5 -14q0 -34 -9 -269h5l141 47v-5q0 -5 -85 -85h5l66 14q0 -47 -104 -103v-5h5l90 38l4 -10q-68 -80 -132 -80q-4 -207 -4 -307v-4q0 -166 14 -326h-5q-38 34 -57 179v14h-4v-75q0 -24 4 -71h-9q-66 51 -66 184
h-5l-14 -108q5 -8 5 -24q-5 0 -5 -5q-71 29 -71 104q0 62 19 368q5 0 5 5h-10q-145 -25 -146 -28q0 -48 -94 -359q-19 -58 -19 -99v-38l5 -23l-10 -5q-117 53 -123 85q-4 0 -4 28h-5q-14 -44 -14 -66q5 -9 5 -14h-5q-52 40 -52 156v4q0 83 104 302v10q0 9 -29 14v14
q29 5 29 14q-33 3 -33 14v14l14 24q-38 9 -38 19q39 22 113 42q29 100 33 137l-4 10q55 71 217 457q17 14 61 151q79 71 203 71zM468 1100q-146 -437 -146 -457h5l108 19v14q0 129 38 420v4h-5zM431 836q-33 -127 -48 -132v5q10 60 38 127h10zM34 501l5 -9h-14q1 9 9 9z
M355 468q0 -6 -38 -23h-4q-10 0 -10 9q26 14 52 14zM317 426h10v-29q-10 0 -10 10v19zM303 312h14v-23h-9zM652 261h10v-5h-10v5zM284 228h5v-10h-5v10zM261 124q9 -2 9 -10q0 -9 -9 -9q-10 0 -10 9q2 10 10 10zM718 29q10 -1 10 -9l-19 -19q-10 0 -10 9q0 8 19 19z
M535 1806q18 -3 18 -18q-13 0 -27 -27v-10q18 0 64 19q0 -9 9 -9l81 -198l-18 9q0 -9 -9 -9q0 9 -9 9q-6 -46 -27 -46q-18 0 -18 27h-9l-46 -45q-18 39 -118 129.5t-36 113.5q98 55 145 55z" />
    <glyph glyph-name="Aacute" unicode="&#xc1;" horiz-adv-x="704" 
d="M624 1440q33 0 33 -38q-14 -318 -24 -354q0 -4 5 -4q0 -5 -5 -14q0 -34 -9 -269h5l141 47v-5q0 -5 -85 -85h5l66 14q0 -47 -104 -103v-5h5l90 38l4 -10q-68 -80 -132 -80q-4 -207 -4 -307v-4q0 -166 14 -326h-5q-38 34 -57 179v14h-4v-75q0 -24 4 -71h-9q-66 51 -66 184
h-5l-14 -108q5 -8 5 -24q-5 0 -5 -5q-71 29 -71 104q0 62 19 368q5 0 5 5h-10q-145 -25 -146 -28q0 -48 -94 -359q-19 -58 -19 -99v-38l5 -23l-10 -5q-117 53 -123 85q-4 0 -4 28h-5q-14 -44 -14 -66q5 -9 5 -14h-5q-52 40 -52 156v4q0 83 104 302v10q0 9 -29 14v14
q29 5 29 14q-33 3 -33 14v14l14 24q-38 9 -38 19q39 22 113 42q29 100 33 137l-4 10q55 71 217 457q17 14 61 151q79 71 203 71zM468 1100q-146 -437 -146 -457h5l108 19v14q0 129 38 420v4h-5zM431 836q-33 -127 -48 -132v5q10 60 38 127h10zM34 501l5 -9h-14q1 9 9 9z
M355 468q0 -6 -38 -23h-4q-10 0 -10 9q26 14 52 14zM317 426h10v-29q-10 0 -10 10v19zM303 312h14v-23h-9zM652 261h10v-5h-10v5zM284 228h5v-10h-5v10zM261 124q9 -2 9 -10q0 -9 -9 -9q-10 0 -10 9q2 10 10 10zM718 29q10 -1 10 -9l-19 -19q-10 0 -10 9q0 8 19 19z
M690 1808q18 -3 18 -18q-13 0 -27 -27v-10q18 0 64 19q0 -9 9 -9q-99 -146 -169 -218l-18 9q0 -9 -9 -9q0 9 -9 9q-6 -46 -27 -46q-18 0 -18 27h-9l-46 -45q-18 39 7 139.5t89 123.5q98 55 145 55z" />
    <glyph glyph-name="Acircumflex" unicode="&#xc2;" horiz-adv-x="704" 
d="M624 1440q33 0 33 -38q-14 -318 -24 -354q0 -4 5 -4q0 -5 -5 -14q0 -34 -9 -269h5l141 47v-5q0 -5 -85 -85h5l66 14q0 -47 -104 -103v-5h5l90 38l4 -10q-68 -80 -132 -80q-4 -207 -4 -307v-4q0 -166 14 -326h-5q-38 34 -57 179v14h-4v-75q0 -24 4 -71h-9q-66 51 -66 184
h-5l-14 -108q5 -8 5 -24q-5 0 -5 -5q-71 29 -71 104q0 62 19 368q5 0 5 5h-10q-145 -25 -146 -28q0 -48 -94 -359q-19 -58 -19 -99v-38l5 -23l-10 -5q-117 53 -123 85q-4 0 -4 28h-5q-14 -44 -14 -66q5 -9 5 -14h-5q-52 40 -52 156v4q0 83 104 302v10q0 9 -29 14v14
q29 5 29 14q-33 3 -33 14v14l14 24q-38 9 -38 19q39 22 113 42q29 100 33 137l-4 10q55 71 217 457q17 14 61 151q79 71 203 71zM468 1100q-146 -437 -146 -457h5l108 19v14q0 129 38 420v4h-5zM431 836q-33 -127 -48 -132v5q10 60 38 127h10zM34 501l5 -9h-14q1 9 9 9z
M355 468q0 -6 -38 -23h-4q-10 0 -10 9q26 14 52 14zM317 426h10v-29q-10 0 -10 10v19zM303 312h14v-23h-9zM652 261h10v-5h-10v5zM284 228h5v-10h-5v10zM261 124q9 -2 9 -10q0 -9 -9 -9q-10 0 -10 9q2 10 10 10zM718 29q10 -1 10 -9l-19 -19q-10 0 -10 9q0 8 19 19z
M589 1769q61 32 91 32q15 -3 12 -18q-11 0 -27 -27l-1 -10q15 0 57 19q-1 -9 6 -9l39 -198l-14 9q-2 -9 -9 -9q1 9 -7 9q-12 -46 -30 -46q-15 0 -11 27h-7l-47 -45q-9 39 -80 130l-6 8q-51 -63 -90 -103l-14 9q-1 -9 -9 -9q1 9 -6 9q-13 -46 -30 -46q-16 0 -65 -18
q-10 39 27 139.5t95 123.5q92 55 132 55q15 -3 12 -18q-8 0 -18 -14z" />
    <glyph glyph-name="Atilde" unicode="&#xc3;" horiz-adv-x="704" 
d="M624 1440q33 0 33 -38q-14 -318 -24 -354q0 -4 5 -4q0 -5 -5 -14q0 -34 -9 -269h5l141 47v-5q0 -5 -85 -85h5l66 14q0 -47 -104 -103v-5h5l90 38l4 -10q-68 -80 -132 -80q-4 -207 -4 -307v-4q0 -166 14 -326h-5q-38 34 -57 179v14h-4v-75q0 -24 4 -71h-9q-66 51 -66 184
h-5l-14 -108q5 -8 5 -24q-5 0 -5 -5q-71 29 -71 104q0 62 19 368q5 0 5 5h-10q-145 -25 -146 -28q0 -48 -94 -359q-19 -58 -19 -99v-38l5 -23l-10 -5q-117 53 -123 85q-4 0 -4 28h-5q-14 -44 -14 -66q5 -9 5 -14h-5q-52 40 -52 156v4q0 83 104 302v10q0 9 -29 14v14
q29 5 29 14q-33 3 -33 14v14l14 24q-38 9 -38 19q39 22 113 42q29 100 33 137l-4 10q55 71 217 457q17 14 61 151q79 71 203 71zM468 1100q-146 -437 -146 -457h5l108 19v14q0 129 38 420v4h-5zM431 836q-33 -127 -48 -132v5q10 60 38 127h10zM34 501l5 -9h-14q1 9 9 9z
M355 468q0 -6 -38 -23h-4q-10 0 -10 9q26 14 52 14zM317 426h10v-29q-10 0 -10 10v19zM303 312h14v-23h-9zM652 261h10v-5h-10v5zM284 228h5v-10h-5v10zM261 124q9 -2 9 -10q0 -9 -9 -9q-10 0 -10 9q2 10 10 10zM718 29q10 -1 10 -9l-19 -19q-10 0 -10 9q0 8 19 19z
M375 1544h9q-6 -34 -9 -75l-12 -1l-44 43l-14 -45l-14 8l-1 -16l-3 -6q-14 8 -22 -10q-8 4 -19 24l-10 -25l-11 6q-9 31 -9 64q-2 36 10 77q54 185 233 157l1 6l-20 6q-13 4 -96 0l4 13l16 17q66 36 139 15q73 -10 102 -68l6 -2q47 36 55 34q-3 -7 3 -8q-8 -8 -32 -68l2 -15
q3 -20 62 -37q62 9 74 94q6 44 9 60l8 12q26 -10 22 -26q12 -1 16 19l25 -12q8 -2 24 8l6 -1q16 -25 21 -55h2l-2 -3v0q-13 -116 -61.5 -205t-161.5 -86q-23 7 -72 43l-48 -28l-10 2q-23 8 -38 61q6 56 -71 57q-41 5 -63 -33z" />
    <glyph glyph-name="Adieresis" unicode="&#xc4;" horiz-adv-x="704" 
d="M624 1440q33 0 33 -38q-14 -318 -24 -354q0 -4 5 -4q0 -5 -5 -14q0 -34 -9 -269h5l141 47v-5q0 -5 -85 -85h5l66 14q0 -47 -104 -103v-5h5l90 38l4 -10q-68 -80 -132 -80q-4 -207 -4 -307v-4q0 -166 14 -326h-5q-38 34 -57 179v14h-4v-75q0 -24 4 -71h-9q-66 51 -66 184
h-5l-14 -108q5 -8 5 -24q-5 0 -5 -5q-71 29 -71 104q0 62 19 368q5 0 5 5h-10q-145 -25 -146 -28q0 -48 -94 -359q-19 -58 -19 -99v-38l5 -23l-10 -5q-117 53 -123 85q-4 0 -4 28h-5q-14 -44 -14 -66q5 -9 5 -14h-5q-52 40 -52 156v4q0 83 104 302v10q0 9 -29 14v14
q29 5 29 14q-33 3 -33 14v14l14 24q-38 9 -38 19q39 22 113 42q29 100 33 137l-4 10q55 71 217 457q17 14 61 151q79 71 203 71zM468 1100q-146 -437 -146 -457h5l108 19v14q0 129 38 420v4h-5zM431 836q-33 -127 -48 -132v5q10 60 38 127h10zM34 501l5 -9h-14q1 9 9 9z
M355 468q0 -6 -38 -23h-4q-10 0 -10 9q26 14 52 14zM317 426h10v-29q-10 0 -10 10v19zM303 312h14v-23h-9zM652 261h10v-5h-10v5zM284 228h5v-10h-5v10zM261 124q9 -2 9 -10q0 -9 -9 -9q-10 0 -10 9q2 10 10 10zM718 29q10 -1 10 -9l-19 -19q-10 0 -10 9q0 8 19 19z
M431 1803h38q15 0 15 -46h38q15 0 15 -27l-8 -18q15 -30 15 -55q0 -115 -128 -145h-15q-91 25 -91 100v18q31 173 121 173zM748 1507h-37q-16 0 -16 45h-37q-15 0 -15 28l7 18q-15 30 -15 54q0 116 128 146h16q90 -25 90 -100v-18q-31 -173 -121 -173z" />
    <glyph glyph-name="Aring" unicode="&#xc5;" horiz-adv-x="704" 
d="M468 1100q-146 -437 -146 -457h5l108 19v14q0 129 38 420v4h-5zM431 836q-33 -127 -48 -132v5q10 60 38 127h10zM34 501l5 -9h-14q1 9 9 9zM355 468q0 -6 -38 -23h-4q-10 0 -10 9q26 14 52 14zM317 426h10v-29q-10 0 -10 10v19zM303 312h14v-23h-9zM652 261h10v-5h-10v5z
M284 228h5v-10h-5v10zM261 124q9 -2 9 -10q0 -9 -9 -9q-10 0 -10 9q2 10 10 10zM718 29q10 -1 10 -9l-19 -19q-10 0 -10 9q0 8 19 19zM608 1643h13v-5q-76 -79 -87 -135h-14q0 90 88 140zM419 1316q0 -19 34 -26q111 0 155 179q54 102 54 169q-5 22 -20 22h-7
q-97 0 -162 -217q-54 -106 -54 -127zM294 1390l-7 -55v-16l7 -27h8v98h-8zM646 1189q-7 -120 -13 -141q0 -4 5 -4q0 -5 -5 -14q0 -34 -9 -269h5l141 47v-5q0 -5 -85 -85h5l66 14q0 -47 -104 -103v-5h5l90 38l4 -10q-68 -80 -132 -80q-4 -207 -4 -307v-4q0 -166 14 -326h-5
q-38 34 -57 179v14h-4v-75q0 -24 4 -71h-9q-66 51 -66 184h-5l-14 -108q5 -8 5 -24q-5 0 -5 -5q-71 29 -71 104q0 62 19 368q5 0 5 5h-10q-145 -25 -146 -28q0 -48 -94 -359q-19 -58 -19 -99v-38l5 -23l-10 -5q-117 53 -123 85q-4 0 -4 28h-5q-14 -44 -14 -66q5 -9 5 -14h-5
q-52 40 -52 156v4q0 83 104 302v10q0 9 -29 14v14q29 5 29 14q-33 3 -33 14v14l14 24q-38 9 -38 19q39 22 113 42q29 100 33 137l-4 10q53 68 204 426q-69 38 -104 116v38q0 13 15 49q-15 0 -30 -33h-14v11q171 445 381 445h36q138 0 184 -98q22 -26 22 -71v-21
q0 -279 -191 -434z" />
    <glyph glyph-name="AE" unicode="&#xc6;" horiz-adv-x="926" 
d="M431 836q-33 -127 -48 -132v5q10 60 38 127h10zM34 501l5 -9h-14q1 9 9 9zM450 1392q72 48 174 48q33 0 33 -38v-1q90 14 256 42v-5l10 5q261 0 334 -73l5 -9v-5l-49 14l5 -9q-5 0 -5 -5q-64 14 -101 14t-112 -14v-5q178 0 233 -87q16 -18 27 -38q-237 28 -313 28h-34
q-88 -20 -265 -41q-1 -19 -3 -37q3 0 6 1h33q62 0 117 -82h-8q-38 14 -63 14h-12q-47 0 -47 -14q59 0 59 -20q-28 -145 -64 -302l104 35v-5q0 -4 -48 -50q115 8 231 18l13 6q0 -3 4 -2q-1 -83 -102 -109l-57 -10h-3v-4q72 4 129 20l17 4q9 3 21 -1q-2 -21 -41 -32
q-6 -1 -69 -9h-2v-3q85 3 88 1q8 -28 -36 -49q-109 3 -211 2l-14 11q-21 -14 -42 -20q-15 -62 -83 -384q238 32 364 48q0 -13 -41 -113q10 -21 10 -32q-75 -52 -173 -78l-16 -16q-10 0 -10 9v1q-36 -8 -75 -13q2 -31 5 -63h-5q-19 17 -33 60v1q-14 45 -24 118v14h-4v-75
q0 -24 4 -71h-9q-66 51 -66 184h-5l-14 -108q5 -8 5 -24q-5 0 -5 -5q-71 29 -101 104q0 62 49 368q5 0 25 5h-10q-165 -25 -166 -28q0 -48 -94 -359q-19 -58 -19 -99v-38l5 -23l-10 -5q-117 53 -123 85q-4 0 -4 28h-5q-14 -44 -14 -66q5 -9 5 -14h-5q-52 40 -52 156v4
q0 83 104 302v10q0 9 -29 14v14q29 5 29 14q-33 3 -33 14v14l14 24q-38 9 -38 19q39 22 113 42q29 100 33 137l-4 10q55 71 217 457q2 2 5 6q-42 27 -81 81q-5 9 -5 20q32 -10 44 -10h9v5q-25 19 -42 100q5 0 5 5q76 -25 155 -33zM497 1037q-175 -376 -175 -394h5l102 18
l6 24q1 111 78 332q-10 8 -16 20zM718 500h10v-11q-25 -45 -72 -62l-11 21q11 0 73 52zM713 560h10v-21q-18 0 -52 -31h-21q0 16 63 52zM1105 1026l10 -20v-11h-31v11q3 20 21 20zM261 124q9 -2 9 -10q0 -9 -9 -9q-10 0 -10 9q2 10 10 10zM284 228h5v-10h-5v10zM303 312h14
v-23h-9zM317 426h10v-29q-10 0 -10 10v19zM355 468q0 -6 -38 -23h-4q-10 0 -10 9q26 14 52 14z" />
    <glyph glyph-name="Ccedilla" unicode="&#xc7;" 
d="M226 1413l10 -20l-20 -10l-10 20zM308 -9q-188 18 -276 245l-11 61v133q0 14 21 113h20v-154q0 -75 31 -82h10v41q0 284 256 830q-17 0 -102 -103h-10v62q0 36 51 123h-10q-20 -10 -31 -10l-10 20q301 256 409 256v-10q-96 -84 -123 -133v-11q111 82 195 82h31
q208 0 245 -297v-71l-40 -123l-11 -51h-20l-31 20q-34 -20 -61 -20q-11 17 -11 51q-59 -31 -102 -31l-10 21q43 137 61 234q-10 41 -10 72q-198 20 -378 -502q-82 -376 -82 -460q0 -9 40 -91h10q225 0 338 532q-10 19 -10 30l21 10q102 -130 153 -266v-71q0 -259 -338 -417
q32 -155 -12 -267q-10 -25 -25 -49q-92 -141 -244 -141h-31q-158 70 -95 233l33 87h19q-7 -50 -12 -62h6q2 3 42 62h19l-14 -38h6l9 25h18q-14 -119 48 -119h18q45 33 47 83t-12 104q-18 24 -35 49zM-20 51l11 -20l-21 -10l-10 20zM513 594h20v-20h-20v20zM533 666h21v-10
h-21v10z" />
    <glyph glyph-name="Egrave" unicode="&#xc8;" horiz-adv-x="660" 
d="M839 1026l10 -20v-11h-31v11q3 20 21 20zM395 749q145 9 292 22l13 6q0 -3 4 -2q-1 -83 -102 -109l-57 -10h-3v-4q72 4 129 20l17 4q9 3 21 -1q-2 -21 -41 -32q-6 -1 -69 -9h-2v-3q85 3 88 1q8 -28 -36 -49q-109 3 -211 2l-46 36q-47 -202 -109 -433q233 33 380 52
q0 -13 -41 -113q10 -21 10 -32q-147 -103 -385.5 -102.5t-194.5 268.5q104 333 157 611l30 160h-5q-6 0 -25 -24q-38 23 -38 72v15q0 42 214 82h33q62 0 117 -82h-8q-38 14 -63 14h-12q-47 0 -47 -14q59 0 59 -20q-29 -156 -69 -326zM368 640l-6 -26l-2 -6h1q5 15 10 29z
M681 1254h-34q-130 -30 -455 -60q-94 0 -174 111q-5 9 -5 20q32 -10 44 -10h9v5q-25 19 -42 100q5 0 5 5q111 -37 226 -37h34q37 0 358 55v-5l10 5q261 0 334 -73l5 -9v-5l-49 14l5 -9q-5 0 -5 -5q-64 14 -101 14t-112 -14v-5q178 0 233 -87q16 -18 27 -38q-237 28 -313 28z
M452 500h10v-11q-25 -45 -72 -62l-11 21q11 0 73 52zM447 560h10v-21q-18 0 -52 -31h-21q0 16 63 52zM516 1781q18 -3 18 -18q-13 0 -27 -27v-10q18 0 64 19q0 -9 9 -9l81 -198l-18 9q0 -9 -9 -9q0 9 -9 9q-6 -46 -27 -46q-18 0 -18 27h-9l-46 -45q-18 39 -118 129.5
t-36 113.5q98 55 145 55z" />
    <glyph glyph-name="Eacute" unicode="&#xc9;" horiz-adv-x="660" 
d="M839 1026l10 -20v-11h-31v11q3 20 21 20zM395 749q145 9 292 22l13 6q0 -3 4 -2q-1 -83 -102 -109l-57 -10h-3v-4q72 4 129 20l17 4q9 3 21 -1q-2 -21 -41 -32q-6 -1 -69 -9h-2v-3q85 3 88 1q8 -28 -36 -49q-109 3 -211 2l-46 36q-47 -202 -109 -433q233 33 380 52
q0 -13 -41 -113q10 -21 10 -32q-147 -103 -385.5 -102.5t-194.5 268.5q104 333 157 611l30 160h-5q-6 0 -25 -24q-38 23 -38 72v15q0 42 214 82h33q62 0 117 -82h-8q-38 14 -63 14h-12q-47 0 -47 -14q59 0 59 -20q-29 -156 -69 -326zM368 640l-6 -26l-2 -6h1q5 15 10 29z
M681 1254h-34q-130 -30 -455 -60q-94 0 -174 111q-5 9 -5 20q32 -10 44 -10h9v5q-25 19 -42 100q5 0 5 5q111 -37 226 -37h34q37 0 358 55v-5l10 5q261 0 334 -73l5 -9v-5l-49 14l5 -9q-5 0 -5 -5q-64 14 -101 14t-112 -14v-5q178 0 233 -87q16 -18 27 -38q-237 28 -313 28z
M452 500h10v-11q-25 -45 -72 -62l-11 21q11 0 73 52zM447 560h10v-21q-18 0 -52 -31h-21q0 16 63 52zM689 1776q18 -3 18 -18q-13 0 -27 -27v-10q18 0 64 19q0 -9 9 -9q-99 -146 -169 -218l-18 9q0 -9 -9 -9q0 9 -9 9q-6 -46 -27 -46q-18 0 -18 27h-9l-46 -45
q-18 39 7 139.5t89 123.5q98 55 145 55z" />
    <glyph glyph-name="Ecircumflex" unicode="&#xca;" horiz-adv-x="660" 
d="M839 1026l10 -20v-11h-31v11q3 20 21 20zM395 749q145 9 292 22l13 6q0 -3 4 -2q-1 -83 -102 -109l-57 -10h-3v-4q72 4 129 20l17 4q9 3 21 -1q-2 -21 -41 -32q-6 -1 -69 -9h-2v-3q85 3 88 1q8 -28 -36 -49q-109 3 -211 2l-46 36q-47 -202 -109 -433q233 33 380 52
q0 -13 -41 -113q10 -21 10 -32q-147 -103 -385.5 -102.5t-194.5 268.5q104 333 157 611l30 160h-5q-6 0 -25 -24q-38 23 -38 72v15q0 42 214 82h33q62 0 117 -82h-8q-38 14 -63 14h-12q-47 0 -47 -14q59 0 59 -20q-29 -156 -69 -326zM368 640l-6 -26l-2 -6h1q5 15 10 29z
M681 1254h-34q-130 -30 -455 -60q-94 0 -174 111q-5 9 -5 20q32 -10 44 -10h9v5q-25 19 -42 100q5 0 5 5q111 -37 226 -37h34q37 0 358 55v-5l10 5q261 0 334 -73l5 -9v-5l-49 14l5 -9q-5 0 -5 -5q-64 14 -101 14t-112 -14v-5q178 0 233 -87q16 -18 27 -38q-237 28 -313 28z
M452 500h10v-11q-25 -45 -72 -62l-11 21q11 0 73 52zM447 560h10v-21q-18 0 -52 -31h-21q0 16 63 52zM630 1752q61 32 91 32q15 -3 12 -18q-11 0 -27 -27l-1 -10q15 0 57 19q-1 -9 6 -9l39 -198l-14 9q-2 -9 -9 -9q1 9 -7 9q-12 -46 -30 -46q-15 0 -11 27h-7l-47 -45
q-9 39 -80 130l-6 8q-51 -63 -90 -103l-14 9q-1 -9 -9 -9q1 9 -6 9q-13 -46 -30 -46q-16 0 -65 -18q-10 39 27 139.5t95 123.5q92 55 132 55q15 -3 12 -18q-8 0 -18 -14z" />
    <glyph glyph-name="Edieresis" unicode="&#xcb;" horiz-adv-x="660" 
d="M839 1026l10 -20v-11h-31v11q3 20 21 20zM395 749q145 9 292 22l13 6q0 -3 4 -2q-1 -83 -102 -109l-57 -10h-3v-4q72 4 129 20l17 4q9 3 21 -1q-2 -21 -41 -32q-6 -1 -69 -9h-2v-3q85 3 88 1q8 -28 -36 -49q-109 3 -211 2l-46 36q-47 -202 -109 -433q233 33 380 52
q0 -13 -41 -113q10 -21 10 -32q-147 -103 -385.5 -102.5t-194.5 268.5q104 333 157 611l30 160h-5q-6 0 -25 -24q-38 23 -38 72v15q0 42 214 82h33q62 0 117 -82h-8q-38 14 -63 14h-12q-47 0 -47 -14q59 0 59 -20q-29 -156 -69 -326zM368 640l-6 -26l-2 -6h1q5 15 10 29z
M681 1254h-34q-130 -30 -455 -60q-94 0 -174 111q-5 9 -5 20q32 -10 44 -10h9v5q-25 19 -42 100q5 0 5 5q111 -37 226 -37h34q37 0 358 55v-5l10 5q261 0 334 -73l5 -9v-5l-49 14l5 -9q-5 0 -5 -5q-64 14 -101 14t-112 -14v-5q178 0 233 -87q16 -18 27 -38q-237 28 -313 28z
M452 500h10v-11q-25 -45 -72 -62l-11 21q11 0 73 52zM447 560h10v-21q-18 0 -52 -31h-21q0 16 63 52zM430 1778h38q15 0 15 -46h38q15 0 15 -27l-8 -18q15 -30 15 -55q0 -115 -128 -145h-15q-91 25 -91 100v18q31 173 121 173zM747 1482h-37q-16 0 -16 45h-37q-15 0 -15 28
l7 18q-15 30 -15 54q0 116 128 146h16q90 -25 90 -100v-18q-31 -173 -121 -173z" />
    <glyph glyph-name="Igrave" unicode="&#xcc;" horiz-adv-x="366" 
d="M354 1481q124 -56 124 -226v-169q0 -209 -271 -1118l-23 -11q-90 74 -90 192h-11l-11 -56v-102h-12q-90 77 -90 192q226 756 293 1072q-11 62 -11 91l23 11q19 0 79 -68v102l-11 79q11 0 11 11zM128 1097l11 -22l-22 -12l-12 23zM534 668h12v-22h-12v22zM478 397l11 -22
l-22 -12l-12 23zM379 1798q18 -3 18 -18q-13 0 -27 -27v-10q18 0 64 19q0 -9 9 -9l81 -198l-18 9q0 -9 -9 -9q0 9 -9 9q-6 -46 -27 -46q-18 0 -18 27h-9l-46 -45q-18 39 -118 129.5t-36 113.5q98 55 145 55z" />
    <glyph glyph-name="Iacute" unicode="&#xcd;" horiz-adv-x="366" 
d="M354 1481q124 -56 124 -226v-169q0 -209 -271 -1118l-23 -11q-90 74 -90 192h-11l-11 -56v-102h-12q-90 77 -90 192q226 756 293 1072q-11 62 -11 91l23 11q19 0 79 -68v102l-11 79q11 0 11 11zM128 1097l11 -22l-22 -12l-12 23zM534 668h12v-22h-12v22zM478 397l11 -22
l-22 -12l-12 23zM496 1813q18 -3 18 -18q-13 0 -27 -27v-10q18 0 64 19q0 -9 9 -9q-99 -146 -169 -218l-18 9q0 -9 -9 -9q0 9 -9 9q-6 -46 -27 -46q-18 0 -18 27h-9l-46 -45q-18 39 7 139.5t89 123.5q98 55 145 55z" />
    <glyph glyph-name="Icircumflex" unicode="&#xce;" horiz-adv-x="366" 
d="M354 1481q124 -56 124 -226v-169q0 -209 -271 -1118l-23 -11q-90 74 -90 192h-11l-11 -56v-102h-12q-90 77 -90 192q226 756 293 1072q-11 62 -11 91l23 11q19 0 79 -68v102l-11 79q11 0 11 11zM128 1097l11 -22l-22 -12l-12 23zM534 668h12v-22h-12v22zM478 397l11 -22
l-22 -12l-12 23zM438 1762q61 32 91 32q15 -3 12 -18q-11 0 -27 -27l-1 -10q15 0 57 19q-1 -9 6 -9l39 -198l-14 9q-2 -9 -9 -9q1 9 -7 9q-12 -46 -30 -46q-15 0 -11 27h-7l-47 -45q-9 39 -80 130l-6 8q-51 -63 -90 -103l-14 9q-1 -9 -9 -9q1 9 -6 9q-13 -46 -30 -46
q-16 0 -65 -18q-10 39 27 139.5t95 123.5q92 55 132 55q15 -3 12 -18q-8 0 -18 -14z" />
    <glyph glyph-name="Idieresis" unicode="&#xcf;" horiz-adv-x="366" 
d="M354 1481q124 -56 124 -226v-169q0 -209 -271 -1118l-23 -11q-90 74 -90 192h-11l-11 -56v-102h-12q-90 77 -90 192q226 756 293 1072q-11 62 -11 91l23 11q19 0 79 -68v102l-11 79q11 0 11 11zM128 1097l11 -22l-22 -12l-12 23zM534 668h12v-22h-12v22zM478 397l11 -22
l-22 -12l-12 23zM247 1801h38q15 0 15 -46h38q15 0 15 -27l-8 -18q15 -30 15 -55q0 -115 -128 -145h-15q-91 25 -91 100v18q31 173 121 173zM564 1505h-37q-16 0 -16 45h-37q-15 0 -15 28l7 18q-15 30 -15 54q0 116 128 146h16q90 -25 90 -100v-18q-31 -173 -121 -173z" />
    <glyph glyph-name="Eth" unicode="&#xd0;" horiz-adv-x="850" 
d="M212 674l-68 -204v-5h5q37 72 67 204v5h-4zM135 787q35 170 72 369l32 160h-5q-6 0 -27 -24q-41 23 -41 72v15q0 42 231 82h37q36 0 70 -24q57 -9 147 -96v11q-21 78 -21 106h21q266 -222 266 -520q0 -488 -382 -849q-138 -96 -202 -96v11q209 194 212 223h-10
q-139 -166 -287 -192v11q173 110 308 541q95 327 95 425q0 138 -57 209t-130 85q-18 -112 -100 -495q117 -7 152 -72l3 -9v-5l-27 14l3 -9q-3 0 -3 -5q-34 14 -54 14t-61 -14v-5q96 0 126 -87q9 -18 15 -38q-129 28 -170 28h-25q-23 -105 -50 -225v-5h4q31 94 68 174h9v-5
q-72 -300 -131 -610q0 -2 5 -19q-5 0 -5 -5q-123 31 -123 179l10 82v5h-5q-22 -100 -22 -184v-24q0 -13 -10 -29q-32 10 -32 68q0 9 14 97v4h-4q-29 -117 -32 -121q-45 0 -59 68q62 195 134 522l-16 -2q-51 0 -95 111q-2 9 -2 20q17 -10 24 -10h4v5q-35 59 -44 140q3 0 3 5
q82 -77 144 -77h23z" />
    <glyph glyph-name="Ntilde" unicode="&#xd1;" horiz-adv-x="838" 
d="M382 1473q103 -35 158 -530q66 -325 66 -424h11q141 735 152 902h11q12 0 43 -98q12 0 33 -10q0 70 22 141h10q66 -55 66 -152q0 -74 -196 -1110q-11 -102 -11 -195h-11q-22 0 -43 76h-11v-11l11 -54h-33q-43 23 -43 87h-11v-87l11 -22q-11 0 -11 -11q-174 112 -174 294
q-87 379 -87 565h-11q-152 -719 -152 -848h-11q-66 53 -66 206h-10l-22 -174q11 0 11 -10l-22 -11q-87 88 -87 174v54q22 631 87 631q22 -31 54 -218h11q0 210 163 794h11l55 -11l-11 22v12q-4 6 -8 13l-10 -25l-10 6q-9 31 -9 64q-2 36 10 77q54 185 232 157l2 6l-21 6
q-12 4 -95 0l3 13l16 17q67 36 140 15q73 -10 102 -68l5 -2q47 36 55 34q-2 -7 4 -8q-9 -8 -32 -68l1 -15q3 -20 63 -37q61 9 74 94q5 44 8 60l9 12q25 -10 22 -26q11 -1 15 19l25 -12q8 -2 24 8l7 -1q15 -25 21 -55h1l-1 -3q-14 -116 -62 -205t-161 -86q-23 7 -72 43
l-48 -28l-11 2q-22 8 -38 61q6 56 -71 57q-40 5 -63 -33l-5 -1h9q-7 -34 -9 -75l-12 -1l-44 43l-14 -45l-15 8v-3z" />
    <glyph glyph-name="Ograve" unicode="&#xd2;" 
d="M559 1435h55q205 0 274 -213q33 -58 33 -154v-48q0 -608 -285 -947q-94 -83 -175 -83h-33q-293 0 -394 332v83q0 29 22 106q-22 0 -44 -71h-22v24q256 971 569 971zM289 237q7 -51 82 -59q239 39 265 546q77 303 52 488q-19 56 -52 51l-14 -2q-208 -34 -285 -404
t-66.5 -465.5t18.5 -154.5zM570 1205l29 4l2 -11q-135 -246 -137 -406l-29 -4q-34 248 135 417zM110 511l-10 -118v-36l10 -59h11v213h-11zM595 1798q18 -3 18 -18q-13 0 -27 -27v-10q18 0 64 19q0 -9 9 -9l81 -198l-18 9q0 -9 -9 -9q0 9 -9 9q-6 -46 -27 -46q-18 0 -18 27
h-9l-46 -45q-18 39 -118 129.5t-36 113.5q98 55 145 55z" />
    <glyph glyph-name="Oacute" unicode="&#xd3;" 
d="M559 1435h55q205 0 274 -213q33 -58 33 -154v-48q0 -608 -285 -947q-94 -83 -175 -83h-33q-293 0 -394 332v83q0 29 22 106q-22 0 -44 -71h-22v24q256 971 569 971zM289 237q7 -51 82 -59q239 39 265 546q77 303 52 488q-19 56 -52 51l-14 -2q-208 -34 -285 -404
t-66.5 -465.5t18.5 -154.5zM570 1205l29 4l2 -11q-135 -246 -137 -406l-29 -4q-34 248 135 417zM110 511l-10 -118v-36l10 -59h11v213h-11zM728 1788q18 -3 18 -18q-13 0 -27 -27v-10q18 0 64 19q0 -9 9 -9q-99 -146 -169 -218l-18 9q0 -9 -9 -9q0 9 -9 9q-6 -46 -27 -46
q-18 0 -18 27h-9l-46 -45q-18 39 7 139.5t89 123.5q98 55 145 55z" />
    <glyph glyph-name="Ocircumflex" unicode="&#xd4;" 
d="M559 1435h55q205 0 274 -213q33 -58 33 -154v-48q0 -608 -285 -947q-94 -83 -175 -83h-33q-293 0 -394 332v83q0 29 22 106q-22 0 -44 -71h-22v24q256 971 569 971zM289 237q7 -51 82 -59q239 39 265 546q77 303 52 488q-19 56 -52 51l-14 -2q-208 -34 -285 -404
t-66.5 -465.5t18.5 -154.5zM570 1205l29 4l2 -11q-135 -246 -137 -406l-29 -4q-34 248 135 417zM110 511l-10 -118v-36l10 -59h11v213h-11zM697 1762q61 32 91 32q15 -3 12 -18q-11 0 -27 -27l-1 -10q15 0 57 19q-1 -9 6 -9l39 -198l-14 9q-2 -9 -9 -9q1 9 -7 9
q-12 -46 -30 -46q-15 0 -11 27h-7l-47 -45q-9 39 -80 130l-6 8q-51 -63 -90 -103l-14 9q-1 -9 -9 -9q1 9 -6 9q-13 -46 -30 -46q-16 0 -65 -18q-10 39 27 139.5t95 123.5q92 55 132 55q15 -3 12 -18q-8 0 -18 -14z" />
    <glyph glyph-name="Otilde" unicode="&#xd5;" 
d="M559 1435h55q205 0 274 -213q33 -58 33 -154v-48q0 -608 -285 -947q-94 -83 -175 -83h-33q-293 0 -394 332v83q0 29 22 106q-22 0 -44 -71h-22v24q256 971 569 971zM289 237q7 -51 82 -59q239 39 265 546q77 303 52 488q-19 56 -52 51l-14 -2q-208 -34 -285 -404
t-66.5 -465.5t18.5 -154.5zM570 1205l29 4l2 -11q-135 -246 -137 -406l-29 -4q-34 248 135 417zM110 511l-10 -118v-36l10 -59h11v213h-11zM506 1547h9q-6 -34 -9 -75l-12 -1l-44 43l-14 -45l-14 8l-1 -16l-3 -6q-14 8 -22 -10q-8 4 -19 24l-10 -25l-11 6q-9 31 -9 64
q-2 36 10 77q54 185 233 157l1 6l-20 6q-13 4 -96 0l4 13l16 17q66 36 139 15q73 -10 102 -68l6 -2q47 36 55 34q-3 -7 3 -8q-8 -8 -32 -68l2 -15q3 -20 62 -37q62 9 74 94q6 44 9 60l8 12q26 -10 22 -26q12 -1 16 19l25 -12q8 -2 24 8l6 -1q16 -25 21 -55h2l-2 -3v0
q-13 -116 -61.5 -205t-161.5 -86q-23 7 -72 43l-48 -28l-10 2q-23 8 -38 61q6 56 -71 57q-41 5 -63 -33z" />
    <glyph glyph-name="Odieresis" unicode="&#xd6;" 
d="M559 1435h55q205 0 274 -213q33 -58 33 -154v-48q0 -608 -285 -947q-94 -83 -175 -83h-33q-293 0 -394 332v83q0 29 22 106q-22 0 -44 -71h-22v24q256 971 569 971zM289 237q7 -51 82 -59q239 39 265 546q77 303 52 488q-19 56 -52 51l-14 -2q-208 -34 -285 -404
t-66.5 -465.5t18.5 -154.5zM570 1205l29 4l2 -11q-135 -246 -137 -406l-29 -4q-34 248 135 417zM110 511l-10 -118v-36l10 -59h11v213h-11zM495 1801h38q15 0 15 -46h38q15 0 15 -27l-8 -18q15 -30 15 -55q0 -115 -128 -145h-15q-91 25 -91 100v18q31 173 121 173zM812 1505
h-37q-16 0 -16 45h-37q-15 0 -15 28l7 18q-15 30 -15 54q0 116 128 146h16q90 -25 90 -100v-18q-31 -173 -121 -173z" />
    <glyph glyph-name="multiply" unicode="&#xd7;" horiz-adv-x="670" 
d="M604 446l-6 1q-43 18 -154 138v6q98 -73 160 -145zM497 721q222 -237 221 -249l-1 -7h-6l-233 191l-1 -5q161 -155 163 -179l-1 -6q-4 -13 -15 -13q-164 142 -215 171q0 3 -11 17l-15 -15q35 -45 71 -99l40 -53q-3 -14 -14 -13q-49 29 -135 128q-267 -255 -282 -253l-8 2
l-1 8l75 99l-8 2q-36 -15 -65 -14l-8 2q-16 6 -17 19q154 188 184 250q3 -1 24 16q-23 30 -48 64q-62 35 -67 52l1 7q66 -11 150 -92l15 13q-34 37 -77 84q-88 88 -86 112q12 39 24 39h53q62 0 182 -148q35 33 77 73q96 100 126 94q48 -18 49 -34l5 -64q6 -74 -146 -199z
" />
    <glyph glyph-name="Oslash" unicode="&#xd8;" 
d="M594 879q-318 -438 -326 -510v-12h11q27 12 338 477v23q0 19 -23 22zM401 1205q-169 -169 -135 -417l29 4q2 160 137 406l-2 11zM110 511l-10 -118v-36l10 -59h11v213h-11zM668 1250q-14 16 -32 13l-14 -2q-208 -34 -285 -404q-11 -53 -20 -101q148 214 351 494zM658 819
q-6 -10 -13 -20q-14 0 -67 -89q-166 -212 -296 -420q4 -29 7 -53q7 -51 82 -59q239 39 265 546q13 49 22 95zM772 1391q20 28 41 56l45 34h33q20 0 45 -134l56 -11v-34q-29 -34 -88 -116q17 -49 17 -118v-48q0 -608 -285 -947q-94 -83 -175 -83h-33q-160 0 -263 99
q-41 -75 -78 -150h-12q-33 0 -33 78h-11q0 -56 -23 -56q-89 85 -89 101v22q10 64 115 241v80q0 29 22 106q-22 0 -44 -71h-22v24q256 971 569 971h55q93 0 158 -44z" />
    <glyph glyph-name="Ugrave" unicode="&#xd9;" horiz-adv-x="766" 
d="M293 200h31q41 17 147 243q0 11 -9 31q0 52 42 327h20l-31 -274v-11h11q94 277 178 770h11q21 -24 21 -42q22 0 53 149h11q116 -52 116 -138v-63q0 -323 -212 -770v-11h11q190 338 190 390h22q-112 -432 -370 -717q-91 -84 -180 -84h-31q-306 34 -306 264q-10 18 -10 41
q4 157 93 499h-2q75 278 111 441q-11 64 -11 93l23 11q19 0 43 -477l37 512l-11 81q11 0 11 12q128 -59 128 -232q-137 -947 -137 -1045zM582 1781q18 -3 18 -18q-13 0 -27 -27v-10q18 0 64 19q0 -9 9 -9l81 -198l-18 9q0 -9 -9 -9q0 9 -9 9q-6 -46 -27 -46q-18 0 -18 27h-9
l-46 -45q-18 39 -118 129.5t-36 113.5q98 55 145 55z" />
    <glyph glyph-name="Uacute" unicode="&#xda;" horiz-adv-x="766" 
d="M293 200h31q41 17 147 243q0 11 -9 31q0 52 42 327h20l-31 -274v-11h11q94 277 178 770h11q21 -24 21 -42q22 0 53 149h11q116 -52 116 -138v-63q0 -323 -212 -770v-11h11q190 338 190 390h22q-112 -432 -370 -717q-91 -84 -180 -84h-31q-306 34 -306 264q-10 18 -10 41
q4 157 93 499h-2q75 278 111 441q-11 64 -11 93l23 11q19 0 43 -477l37 512l-11 81q11 0 11 12q128 -59 128 -232q-137 -947 -137 -1045zM749 1783q18 -3 18 -18q-13 0 -27 -27v-10q18 0 64 19q0 -9 9 -9q-99 -146 -169 -218l-18 9q0 -9 -9 -9q0 9 -9 9q-6 -46 -27 -46
q-18 0 -18 27h-9l-46 -45q-18 39 7 139.5t89 123.5q98 55 145 55z" />
    <glyph glyph-name="Ucircumflex" unicode="&#xdb;" horiz-adv-x="766" 
d="M293 200h31q41 17 147 243q0 11 -9 31q0 52 42 327h20l-31 -274v-11h11q94 277 178 770h11q21 -24 21 -42q22 0 53 149h11q116 -52 116 -138v-63q0 -323 -212 -770v-11h11q190 338 190 390h22q-112 -432 -370 -717q-91 -84 -180 -84h-31q-306 34 -306 264q-10 18 -10 41
q4 157 93 499h-2q75 278 111 441q-11 64 -11 93l23 11q19 0 43 -477l37 512l-11 81q11 0 11 12q128 -59 128 -232q-137 -947 -137 -1045zM661 1762q61 32 91 32q15 -3 12 -18q-11 0 -27 -27l-1 -10q15 0 57 19q-1 -9 6 -9l39 -198l-14 9q-2 -9 -9 -9q1 9 -7 9
q-12 -46 -30 -46q-15 0 -11 27h-7l-47 -45q-9 39 -80 130l-6 8q-51 -63 -90 -103l-14 9q-1 -9 -9 -9q1 9 -6 9q-13 -46 -30 -46q-16 0 -65 -18q-10 39 27 139.5t95 123.5q92 55 132 55q15 -3 12 -18q-8 0 -18 -14z" />
    <glyph glyph-name="Udieresis" unicode="&#xdc;" horiz-adv-x="766" 
d="M293 200h31q41 17 147 243q0 11 -9 31q0 52 42 327h20l-31 -274v-11h11q94 277 178 770h11q21 -24 21 -42q22 0 53 149h11q116 -52 116 -138v-63q0 -323 -212 -770v-11h11q190 338 190 390h22q-112 -432 -370 -717q-91 -84 -180 -84h-31q-306 34 -306 264q-10 18 -10 41
q4 157 93 499h-2q75 278 111 441q-11 64 -11 93l23 11q19 0 43 -477l37 512l-11 81q11 0 11 12q128 -59 128 -232q-137 -947 -137 -1045zM466 1791h38q15 0 15 -46h38q15 0 15 -27l-8 -18q15 -30 15 -55q0 -115 -128 -145h-15q-91 25 -91 100v18q31 173 121 173zM783 1495
h-37q-16 0 -16 45h-37q-15 0 -15 28l7 18q-15 30 -15 54q0 116 128 146h16q90 -25 90 -100v-18q-31 -173 -121 -173z" />
    <glyph glyph-name="Yacute" unicode="&#xdd;" horiz-adv-x="493" 
d="M871 1468h5q-56 -53 -79 -128v-5h5q44 74 69 74q5 -9 5 -20h5q26 20 44 20q-21 -94 -59 -128q-184 -194 -380 -494q-56 -70 -74 -108h5q53 104 202 237q87 49 104 49v-5q-263 -281 -385 -493q-64 -327 -64 -400v-25q0 -5 -5 -5q6 -57 20 -103q-5 0 -5 -5q-79 52 -79 89
h-5q0 -20 -5 -20q5 -47 20 -69q-5 0 -5 -5q-89 57 -89 153q15 113 30 143v5h-5q-49 -110 -49 -192q9 -52 9 -55q-69 17 -69 129q0 95 55 217v4h-5l-74 -128q-15 28 -25 89q31 217 69 217q0 12 59 74q-59 335 -103 735q-12 0 -15 74v35l-5 9q5 0 5 5q74 -53 74 -83h5
q4 103 29 103h10q4 -25 15 -25l30 25q0 -5 5 -5q-15 -30 -15 -94v-49l5 -49h5q0 159 93 202l10 -5q-10 -17 -29 -118q8 0 24 -592v-10h5q96 221 355 705h5q60 0 60 -98q117 123 187 123zM363 1103h10v-15h-10v15zM304 940h5v-15h-15v5q1 10 10 10zM576 1788q18 -3 18 -18
q-13 0 -27 -27v-10q18 0 64 19q0 -9 9 -9q-99 -146 -169 -218l-18 9q0 -9 -9 -9q0 9 -9 9q-6 -46 -27 -46q-18 0 -18 27h-9l-46 -45q-18 39 7 139.5t89 123.5q98 55 145 55z" />
    <glyph glyph-name="Thorn" unicode="&#xde;" horiz-adv-x="882" 
d="M629 764v-11q0 -11 -10 -11l10 -21q-68 -142 -184 -142l-11 22v22q109 141 195 141zM357 838v-11h10q47 130 77 130h21q0 -58 -108 -478q353 134 353 381v32q0 120 -108 120q-235 0 -235 -142q-10 -21 -10 -32zM41 142v-22h11v22h-11zM81 697h11q21 -4 21 -22
q0 -22 -21 -22l-22 11q11 21 11 33zM557 1240h67q221 0 328 -283q11 -95 11 -108q0 -372 -556 -609q-138 0 -138 -87q-58 -261 -76 -261q-54 0 -54 174h-11q-29 -163 -54 -163q-11 21 -11 33l-33 -22l-10 22v11q0 60 21 163h-21q6 23 6 98q-49 21 -54 43v98l11 22
q72 -22 109 -22q130 505 163 587h-11l-55 -33q-32 72 -32 98q0 39 76 130q-11 0 -11 11q29 18 58 33q41 157 63 264q-11 62 -11 91l23 11q19 0 79 -68v102l-11 79q11 0 11 11q124 -56 124 -226v-169q0 -14 -1 -30zM422 34q21 -4 21 -22q0 -22 -21 -22q-22 0 -22 22
q3 22 22 22zM367 94h11v-10q0 -29 -108 -120h-11q32 73 108 130z" />
    <glyph glyph-name="germandbls" unicode="&#xdf;" horiz-adv-x="729" 
d="M491.5 829q91.5 49 147.5 237q26 76 26 109q-10 49 -70 49q-167 -23 -167 -79q-211 -897 -211 -939l-53 -252q-112 -102 -224 -113l132 454l-167 -397l92 348q-9 0 -9 39v158q11 99 35 99h9q0 -30 9 -69h8q0 36 53 290t71 303h-9q-16 -10 -35 -10h-9l-18 10q9 13 9 49
q-29 -19 -44 -19l-9 19l18 40h-27l-17 -10q0 10 -9 10q25 70 238 208q140 128 316 128l44 -10v-20q-184 -36 -184 -79h8q94 30 159 30h17q149 0 203 -158q17 -36 17 -79v-89q0 -165 -228 -425q70 -147 70 -277v-40q0 -227 -229 -375q-61 -20 -105 -20q-89 27 -16 232
q140 35 174 292q-20 99 -44 99h-26q-30 0 -44 -10q-19 4 -6 111t104.5 156zM586 1194v-9q-118 -113 -123 -188h-18v10q27 187 141 187zM-3 1007h17v-20q0 -20 -17 -20q-18 0 -18 20q3 20 18 20zM349 463h8v-20h-8v20zM401 28v-10h18q24 0 88 89v10q-86 -89 -106 -89z" />
    <glyph glyph-name="agrave" unicode="&#xe0;" horiz-adv-x="669" 
d="M377 1083h8q43 -24 45 -50h8q-3 42 6 42q52 -33 77 -33q15 8 24 8q37 -50 40 -100l2 -25q9 -121 -28 -406h8q53 17 74 17h8l1 -17l-22 -33q24 0 26 -17q4 -60 -93 -91q-18 -373 -39 -373q-36 33 -63 182h-9q0 -141 -23 -141q-27 32 -30 75l-5 74q-4 47 7 125
q-58 -17 -189 -25q-99 -259 -123 -357q-50 0 -59 125q-21 0 -26 -100h-17q-22 0 -48 91q-4 57 75 233q-142 5 -145 49l7 17q28 -17 43 -17q-19 28 -20 50q15 8 24 8l-1 9q-36 42 -37 50l16 8h108q107 0 142 99q237 392 229 506zM420 718q1 -13 -130 -265h25q108 0 103 58
q-5 74 11 199l-1 8h-8zM289 237h8l2 -17h-9zM255 21h25q1 -16 -16 -16zM443 1431q18 -3 18 -18q-13 0 -27 -27v-10q18 0 64 19q0 -9 9 -9l81 -198l-18 9q0 -9 -9 -9q0 9 -9 9q-6 -46 -27 -46q-18 0 -18 27h-9l-46 -45q-18 39 -118 129.5t-36 113.5q98 55 145 55z" />
    <glyph glyph-name="aacute" unicode="&#xe1;" horiz-adv-x="669" 
d="M377 1083h8q43 -24 45 -50h8q-3 42 6 42q52 -33 77 -33q15 8 24 8q37 -50 40 -100l2 -25q9 -121 -28 -406h8q53 17 74 17h8l1 -17l-22 -33q24 0 26 -17q4 -60 -93 -91q-18 -373 -39 -373q-36 33 -63 182h-9q0 -141 -23 -141q-27 32 -30 75l-5 74q-4 47 7 125
q-58 -17 -189 -25q-99 -259 -123 -357q-50 0 -59 125q-21 0 -26 -100h-17q-22 0 -48 91q-4 57 75 233q-142 5 -145 49l7 17q28 -17 43 -17q-19 28 -20 50q15 8 24 8l-1 9q-36 42 -37 50l16 8h108q107 0 142 99q237 392 229 506zM420 718q1 -13 -130 -265h25q108 0 103 58
q-5 74 11 199l-1 8h-8zM289 237h8l2 -17h-9zM255 21h25q1 -16 -16 -16zM609 1421q18 -3 18 -18q-13 0 -27 -27v-10q18 0 64 19q0 -9 9 -9q-99 -146 -169 -218l-18 9q0 -9 -9 -9q0 9 -9 9q-6 -46 -27 -46q-18 0 -18 27h-9l-46 -45q-18 39 7 139.5t89 123.5q98 55 145 55z" />
    <glyph glyph-name="acircumflex" unicode="&#xe2;" horiz-adv-x="669" 
d="M377 1083h8q43 -24 45 -50h8q-3 42 6 42q52 -33 77 -33q15 8 24 8q37 -50 40 -100l2 -25q9 -121 -28 -406h8q53 17 74 17h8l1 -17l-22 -33q24 0 26 -17q4 -60 -93 -91q-18 -373 -39 -373q-36 33 -63 182h-9q0 -141 -23 -141q-27 32 -30 75l-5 74q-4 47 7 125
q-58 -17 -189 -25q-99 -259 -123 -357q-50 0 -59 125q-21 0 -26 -100h-17q-22 0 -48 91q-4 57 75 233q-142 5 -145 49l7 17q28 -17 43 -17q-19 28 -20 50q15 8 24 8l-1 9q-36 42 -37 50l16 8h108q107 0 142 99q237 392 229 506zM420 718q1 -13 -130 -265h25q108 0 103 58
q-5 74 11 199l-1 8h-8zM289 237h8l2 -17h-9zM255 21h25q1 -16 -16 -16zM508 1392q61 32 91 32q15 -3 12 -18q-11 0 -27 -27l-1 -10q15 0 57 19q-1 -9 6 -9l39 -198l-14 9q-2 -9 -9 -9q1 9 -7 9q-12 -46 -30 -46q-15 0 -11 27h-7l-47 -45q-9 39 -80 130l-6 8
q-51 -63 -90 -103l-14 9q-1 -9 -9 -9q1 9 -6 9q-13 -46 -30 -46q-16 0 -65 -18q-10 39 27 139.5t95 123.5q92 55 132 55q15 -3 12 -18q-8 0 -18 -14z" />
    <glyph glyph-name="atilde" unicode="&#xe3;" horiz-adv-x="669" 
d="M377 1083h8q43 -24 45 -50h8q-3 42 6 42q52 -33 77 -33q15 8 24 8q37 -50 40 -100l2 -25q9 -121 -28 -406h8q53 17 74 17h8l1 -17l-22 -33q24 0 26 -17q4 -60 -93 -91q-18 -373 -39 -373q-36 33 -63 182h-9q0 -141 -23 -141q-27 32 -30 75l-5 74q-4 47 7 125
q-58 -17 -189 -25q-99 -259 -123 -357q-50 0 -59 125q-21 0 -26 -100h-17q-22 0 -48 91q-4 57 75 233q-142 5 -145 49l7 17q28 -17 43 -17q-19 28 -20 50q15 8 24 8l-1 9q-36 42 -37 50l16 8h108q107 0 142 99q237 392 229 506zM420 718q1 -13 -130 -265h25q108 0 103 58
q-5 74 11 199l-1 8h-8zM289 237h8l2 -17h-9zM255 21h25q1 -16 -16 -16zM314 1198h9q-6 -34 -9 -75l-12 -1l-44 43l-14 -45l-14 8l-1 -16l-3 -6q-14 8 -22 -10q-8 4 -19 24l-10 -25l-11 6q-9 31 -9 64q-2 36 10 77q54 185 233 157l1 6l-20 6q-13 4 -96 0l4 13l16 17
q66 36 139 15q73 -10 102 -68l6 -2q47 36 55 34q-3 -7 3 -8q-8 -8 -32 -68l2 -15q3 -20 62 -37q62 9 74 94q6 44 9 60l8 12q26 -10 22 -26q12 -1 16 19l25 -12q8 -2 24 8l6 -1q16 -25 21 -55h2l-2 -3v0q-13 -116 -61.5 -205t-161.5 -86q-23 7 -72 43l-48 -28l-10 2
q-23 8 -38 61q6 56 -71 57q-41 5 -63 -33z" />
    <glyph glyph-name="adieresis" unicode="&#xe4;" horiz-adv-x="669" 
d="M377 1083h8q43 -24 45 -50h8q-3 42 6 42q52 -33 77 -33q15 8 24 8q37 -50 40 -100l2 -25q9 -121 -28 -406h8q53 17 74 17h8l1 -17l-22 -33q24 0 26 -17q4 -60 -93 -91q-18 -373 -39 -373q-36 33 -63 182h-9q0 -141 -23 -141q-27 32 -30 75l-5 74q-4 47 7 125
q-58 -17 -189 -25q-99 -259 -123 -357q-50 0 -59 125q-21 0 -26 -100h-17q-22 0 -48 91q-4 57 75 233q-142 5 -145 49l7 17q28 -17 43 -17q-19 28 -20 50q15 8 24 8l-1 9q-36 42 -37 50l16 8h108q107 0 142 99q237 392 229 506zM420 718q1 -13 -130 -265h25q108 0 103 58
q-5 74 11 199l-1 8h-8zM289 237h8l2 -17h-9zM255 21h25q1 -16 -16 -16zM327 1460h38q15 0 15 -46h38q15 0 15 -27l-8 -18q15 -30 15 -55q0 -115 -128 -145h-15q-91 25 -91 100v18q31 173 121 173zM644 1164h-37q-16 0 -16 45h-37q-15 0 -15 28l7 18q-15 30 -15 54
q0 116 128 146h16q90 -25 90 -100v-18q-31 -173 -121 -173z" />
    <glyph glyph-name="aring" unicode="&#xe5;" horiz-adv-x="669" 
d="M420 718q1 -13 -130 -265h25q108 0 103 58q-5 74 11 199l-1 8h-8zM289 237h8l2 -17h-9zM255 21h25q1 -16 -16 -16zM562 1322h14v-5q-77 -79 -88 -135h-13q0 90 87 140zM373 995q0 -19 34 -26q111 0 155 179q54 102 54 169q-5 22 -20 22h-7q-96 0 -162 -217
q-54 -106 -54 -127zM249 1069l-8 -55v-16l8 -27h7v98h-7zM589 861q-1 -122 -30 -342h8q53 17 74 17h8l1 -17l-22 -33q24 0 26 -17q4 -60 -93 -91q-18 -373 -39 -373q-36 33 -63 182h-9q0 -141 -23 -141q-27 32 -30 75l-5 74q-4 47 7 125q-58 -17 -189 -25
q-99 -259 -123 -357q-50 0 -59 125q-21 0 -26 -100h-17q-22 0 -48 91q-4 57 75 233q-142 5 -145 49l7 17q28 -17 43 -17q-19 28 -20 50q15 8 24 8l-1 9q-36 42 -37 50l16 8h108q107 0 142 99q108 178 165 299q-79 38 -117 123v38q0 13 15 49q-15 0 -29 -33h-15v11
q171 445 381 445h37q137 0 183 -98q22 -26 22 -71v-21q0 -279 -191 -434q-6 -3 -11 -7z" />
    <glyph glyph-name="ae" unicode="&#xe6;" horiz-adv-x="983" 
d="M472 798q2 -13 -182 -345h35q152 0 145 58q-7 74 15 279l-1 8h-12zM289 237h8l2 -17h-9zM939 322h8v-8q-19 -33 -53 -45l-8 15q8 0 53 38zM932 375h7v-15q-13 0 -38 -23h-15q0 12 46 38zM1069 756l8 -15v-8h-23v8q2 15 15 15zM439 59q-1 -3 -2 -5q3 1 6 1zM467 146
q-4 19 52 41h-9q-60 -24 -61 -44q9 2 18 3zM398 111q-1 5 -1 10l55 74q-4 47 27 125q-138 -17 -269 -25q-99 -259 -123 -357q-50 0 -59 125q-21 0 -26 -100h-17q-22 0 -48 91q-4 57 75 233q-142 5 -145 49l7 17q28 -17 43 -17q-19 28 -20 50q15 8 24 8l-1 9q-36 42 -37 50
l16 8h108q107 0 142 99q237 392 229 506l-1 17h8q43 -24 45 -50h8q-3 42 6 42q52 -33 77 -33q15 8 24 8q37 -50 40 -100l2 -25q2 -23 2 -53l22 29q-15 19 -15 23v76q0 25 213 38q230 44 298 84v-8q-38 -64 -38 -76h8q29 23 45 23q0 -8 8 -8q-21 -167 -114 -167
q-189 -11 -260 -31q76 -67 23 -251q34 0 216 33v-7q-63 -92 -99 -92v-7h7l46 7h8v-7q0 -56 -217 -57q0 -44 -76 -304h8q162 0 275 15q0 -10 -199 -101q176 2 176 -6q-108 -76 -405 -76q-114 10 -114 30q11 10 20 16q-18 23 -25 51l-2 2v10zM255 21h25q1 -16 -16 -16z" />
    <glyph glyph-name="ccedilla" unicode="&#xe7;" horiz-adv-x="667" 
d="M158 1050l8 -15l-15 -8l-8 15zM375 13q-5 -2 -11 -5q3 -10 0 -16h6l2 6q2 4 3 15zM217 -9q-138 14 -204 182l-7 46v99q0 10 15 84h15v-115q0 -56 23 -61h8v31q0 211 190 618q-13 0 -76 -77h-7v46q0 27 38 92h-8q-15 -8 -23 -8l-7 15q224 191 305 191v-8q-72 -62 -92 -99
v-7q82 61 145 61h23q155 0 183 -222v-53l-31 -91l-7 -39h-15l-23 16q-25 -16 -46 -16q-8 13 -8 39q-44 -23 -76 -23l-8 15q32 102 39 152q-8 31 -8 54q-118 0 -244 -382q-69 -242 -69 -305q0 -6 8 -61h7q168 0 252 382q-8 15 -8 23l16 7q76 -97 114 -198v-53
q0 -182 -224 -297q2 -2 3 -4q29 -142 -10 -244q-9 -23 -22 -44q-83 -128 -222 -128h-27q-143 63 -86 211l30 78h16q-5 -45 -10 -56h6q1 3 38 56h17l-14 -34h6l9 23h16q-12 -108 44 -108h16q41 30 42 75t-11 94q-15 21 -31 43zM-25 36l8 -15l-15 -8l-8 15zM372 440h15v-15
h-15v15zM387 493h15v-7h-15v7z" />
    <glyph glyph-name="egrave" unicode="&#xe8;" horiz-adv-x="512" 
d="M637 1114q-39 -64 -39 -76h8q30 23 46 23q0 -8 7 -8q-21 -167 -114 -167q-188 -11 -259 -31q76 -67 22 -251q35 0 216 33v-7q-62 -92 -99 -92v-7h8l45 7h8v-7q0 -56 -216 -57q0 -44 -76 -304h7q163 0 276 15q0 -10 -200 -101q177 2 177 -6q-109 -76 -405 -76
q-114 10 -114 30q25 23 38 23l-46 46v15q0 21 76 31q0 61 76 312q-30 12 -30 23v8l15 22l-23 31q0 29 69 38l84 274h-61q-16 0 -16 16l23 30q-15 19 -15 23v76q0 25 213 38q231 44 299 84v-8zM598 756l8 -15v-8h-23v8q3 15 15 15zM461 375h8v-15q-13 0 -38 -23h-15
q0 12 45 38zM469 322h8v-8q-19 -33 -54 -45l-7 15q7 0 53 38zM389 1416q18 -3 18 -18q-13 0 -27 -27v-10q18 0 64 19q0 -9 9 -9l81 -198l-18 9q0 -9 -9 -9q0 9 -9 9q-6 -46 -27 -46q-18 0 -18 27h-9l-46 -45q-18 39 -118 129.5t-36 113.5q98 55 145 55z" />
    <glyph glyph-name="eacute" unicode="&#xe9;" horiz-adv-x="512" 
d="M637 1114q-39 -64 -39 -76h8q30 23 46 23q0 -8 7 -8q-21 -167 -114 -167q-188 -11 -259 -31q76 -67 22 -251q35 0 216 33v-7q-62 -92 -99 -92v-7h8l45 7h8v-7q0 -56 -216 -57q0 -44 -76 -304h7q163 0 276 15q0 -10 -200 -101q177 2 177 -6q-109 -76 -405 -76
q-114 10 -114 30q25 23 38 23l-46 46v15q0 21 76 31q0 61 76 312q-30 12 -30 23v8l15 22l-23 31q0 29 69 38l84 274h-61q-16 0 -16 16l23 30q-15 19 -15 23v76q0 25 213 38q231 44 299 84v-8zM598 756l8 -15v-8h-23v8q3 15 15 15zM461 375h8v-15q-13 0 -38 -23h-15
q0 12 45 38zM469 322h8v-8q-19 -33 -54 -45l-7 15q7 0 53 38zM545 1428q18 -3 18 -18q-13 0 -27 -27v-10q18 0 64 19q0 -9 9 -9q-99 -146 -169 -218l-18 9q0 -9 -9 -9q0 9 -9 9q-6 -46 -27 -46q-18 0 -18 27h-9l-46 -45q-18 39 7 139.5t89 123.5q98 55 145 55z" />
    <glyph glyph-name="ecircumflex" unicode="&#xea;" horiz-adv-x="512" 
d="M637 1114q-39 -64 -39 -76h8q30 23 46 23q0 -8 7 -8q-21 -167 -114 -167q-188 -11 -259 -31q76 -67 22 -251q35 0 216 33v-7q-62 -92 -99 -92v-7h8l45 7h8v-7q0 -56 -216 -57q0 -44 -76 -304h7q163 0 276 15q0 -10 -200 -101q177 2 177 -6q-109 -76 -405 -76
q-114 10 -114 30q25 23 38 23l-46 46v15q0 21 76 31q0 61 76 312q-30 12 -30 23v8l15 22l-23 31q0 29 69 38l84 274h-61q-16 0 -16 16l23 30q-15 19 -15 23v76q0 25 213 38q231 44 299 84v-8zM598 756l8 -15v-8h-23v8q3 15 15 15zM461 375h8v-15q-13 0 -38 -23h-15
q0 12 45 38zM469 322h8v-8q-19 -33 -54 -45l-7 15q7 0 53 38zM432 1380q61 32 91 32q15 -3 12 -18q-11 0 -27 -27l-1 -10q15 0 57 19q-1 -9 6 -9l39 -198l-14 9q-2 -9 -9 -9q1 9 -7 9q-12 -46 -30 -46q-15 0 -11 27h-7l-47 -45q-9 39 -80 130l-6 8q-51 -63 -90 -103l-14 9
q-1 -9 -9 -9q1 9 -6 9q-13 -46 -30 -46q-16 0 -65 -18q-10 39 27 139.5t95 123.5q92 55 132 55q15 -3 12 -18q-8 0 -18 -14z" />
    <glyph glyph-name="edieresis" unicode="&#xeb;" horiz-adv-x="512" 
d="M637 1114q-39 -64 -39 -76h8q30 23 46 23q0 -8 7 -8q-21 -167 -114 -167q-188 -11 -259 -31q76 -67 22 -251q35 0 216 33v-7q-62 -92 -99 -92v-7h8l45 7h8v-7q0 -56 -216 -57q0 -44 -76 -304h7q163 0 276 15q0 -10 -200 -101q177 2 177 -6q-109 -76 -405 -76
q-114 10 -114 30q25 23 38 23l-46 46v15q0 21 76 31q0 61 76 312q-30 12 -30 23v8l15 22l-23 31q0 29 69 38l84 274h-61q-16 0 -16 16l23 30q-15 19 -15 23v76q0 25 213 38q231 44 299 84v-8zM598 756l8 -15v-8h-23v8q3 15 15 15zM461 375h8v-15q-13 0 -38 -23h-15
q0 12 45 38zM469 322h8v-8q-19 -33 -54 -45l-7 15q7 0 53 38zM250 1385h38q15 0 15 -46h38q15 0 15 -27l-7 -18q15 -30 15 -55q0 -115 -129 -145h-15q-90 25 -90 100v18q31 173 120 173zM553 1155h-38q-15 0 -15 45h-38q-15 0 -15 28l8 18q-15 30 -15 54q0 116 128 146h15
q91 -25 91 -100v-18q-31 -173 -121 -173z" />
    <glyph glyph-name="igrave" unicode="&#xec;" horiz-adv-x="310" 
d="M259 1105q94 -43 94 -170v-128q0 -157 -204 -841l-17 -9q-68 56 -68 145h-9l-8 -43v-76h-9q-68 57 -68 144q170 569 221 808q-8 47 -8 68l17 8q14 0 59 -51v77l-8 59q8 0 8 9zM89 816l9 -17l-17 -9l-9 17zM395 493h9v-17h-9v17zM353 289l8 -17l-17 -9l-8 17zM297 1438
q18 -3 18 -18q-13 0 -27 -27v-10q18 0 64 19q0 -9 9 -9l81 -198l-18 9q0 -9 -9 -9q0 9 -9 9q-6 -46 -27 -46q-18 0 -18 27h-9l-46 -45q-18 39 -118 129.5t-36 113.5q98 55 145 55z" />
    <glyph glyph-name="iacute" unicode="&#xed;" horiz-adv-x="310" 
d="M259 1105q94 -43 94 -170v-128q0 -157 -204 -841l-17 -9q-68 56 -68 145h-9l-8 -43v-76h-9q-68 57 -68 144q170 569 221 808q-8 47 -8 68l17 8q14 0 59 -51v77l-8 59q8 0 8 9zM89 816l9 -17l-17 -9l-9 17zM395 493h9v-17h-9v17zM353 289l8 -17l-17 -9l-8 17zM447 1440
q18 -3 18 -18q-13 0 -27 -27v-10q18 0 64 19q0 -9 9 -9q-99 -146 -169 -218l-18 9q0 -9 -9 -9q0 9 -9 9q-6 -46 -27 -46q-18 0 -18 27h-9l-46 -45q-18 39 7 139.5t89 123.5q98 55 145 55z" />
    <glyph glyph-name="icircumflex" unicode="&#xee;" horiz-adv-x="310" 
d="M259 1105q94 -43 94 -170v-128q0 -157 -204 -841l-17 -9q-68 56 -68 145h-9l-8 -43v-76h-9q-68 57 -68 144q170 569 221 808q-8 47 -8 68l17 8q14 0 59 -51v77l-8 59q8 0 8 9zM89 816l9 -17l-17 -9l-9 17zM395 493h9v-17h-9v17zM353 289l8 -17l-17 -9l-8 17zM340 1406
q61 32 91 32q15 -3 12 -18q-11 0 -27 -27l-1 -10q15 0 57 19q-1 -9 6 -9l39 -198l-14 9q-2 -9 -9 -9q1 9 -7 9q-12 -46 -30 -46q-15 0 -11 27h-7l-47 -45q-9 39 -80 130l-6 8q-51 -63 -90 -103l-14 9q-1 -9 -9 -9q1 9 -6 9q-13 -46 -30 -46q-16 0 -65 -18q-10 39 27 139.5
t95 123.5q92 55 132 55q15 -3 12 -18q-8 0 -18 -14z" />
    <glyph glyph-name="idieresis" unicode="&#xef;" horiz-adv-x="310" 
d="M259 1105q94 -43 94 -170v-128q0 -157 -204 -841l-17 -9q-68 56 -68 145h-9l-8 -43v-76h-9q-68 57 -68 144q170 569 221 808q-8 47 -8 68l17 8q14 0 59 -51v77l-8 59q8 0 8 9zM89 816l9 -17l-17 -9l-9 17zM395 493h9v-17h-9v17zM353 289l8 -17l-17 -9l-8 17zM142 1438h38
q15 0 15 -46h38q15 0 15 -27l-8 -18q15 -30 15 -55q0 -115 -128 -145h-15q-91 25 -91 100v18q31 173 121 173zM459 1142h-37q-16 0 -16 45h-37q-15 0 -15 28l7 18q-15 30 -15 54q0 116 128 146h16q90 -25 90 -100v-18q-31 -173 -121 -173z" />
    <glyph glyph-name="eth" unicode="&#xf0;" horiz-adv-x="729" 
d="M3 139h8v-16h-8v16zM537 595q29 118 29 165v71q0 33 -80 128q-8 13 -40 120h8q43 -6 112 -72v8q-16 59 -16 80h16q200 -167 200 -391q0 -367 -288 -639q-104 -72 -152 -72v8q157 146 160 168h-8q-104 -125 -215 -144v8q12 8 25 18h-13l-16 40h-8q0 -88 -8 -88
q-64 23 -64 112h-8q0 -20 -8 -64h-8q-32 0 -32 112q0 116 40 247v3l-9 1l-55 -155h-16v47h-8v-24h-24q0 45 30 119q0 1 -1 1l-3 5q5 6 11 11q11 25 25 54q-84 -7 -96 10q-15 33 -9 42l25 37q27 42 149 36q6 10 13 21q87 217 87 319v56q0 35 -15 64q8 0 8 8q23 0 87 -88
q6 40 24 40q56 -39 56 -120q0 -31 -55 -301q126 3 150 -1zM290 53q114 97 204 387q23 80 39 142l-156 -34l-1 -9q119 11 129 -1l3 -5q6 -11 0 -18q-93 -17 -144 -30q0 -5 -1 -9q77 21 139 20l-3 -4q-28 -19 -138 -22q-2 -11 -4 -23q17 -3 35 -6l45 -5q5 -11 0 -18
q-29 -13 -90 -15q-25 -121 -57 -272v-78z" />
    <glyph glyph-name="ntilde" unicode="&#xf1;" horiz-adv-x="660" 
d="M267 1096q86 0 130 -398q49 -243 49 -317h8q106 549 114 674h8q9 0 33 -73q8 0 24 -8q0 53 16 106h8q49 -41 49 -114q0 -55 -146 -829q-8 -76 -8 -146h-8q-17 0 -33 57h-8v-8l8 -41h-24q-33 18 -33 65h-8v-65l8 -16q-8 0 -8 -8q-130 84 -130 219q-65 284 -65 423h-8
q-114 -538 -114 -634h-8q-49 40 -49 154h-8l-16 -130q8 0 8 -8l-16 -8q-65 66 -65 130v41q16 471 65 471q16 -23 41 -163h8q0 157 122 593h8l40 -8l-8 17v8q3 16 16 16zM309 1223h9q-6 -34 -9 -75l-12 -1l-44 43l-14 -45l-14 8l-1 -16l-3 -6q-14 8 -22 -10q-8 4 -19 24
l-10 -25l-11 6q-9 31 -9 64q-2 36 10 77q54 185 233 157l1 6l-20 6q-13 4 -96 0l4 13l16 17q66 36 139 15q73 -10 102 -68l6 -2q47 36 55 34q-3 -7 3 -8q-8 -8 -32 -68l2 -15q3 -20 62 -37q62 9 74 94q6 44 9 60l8 12q26 -10 22 -26q12 -1 16 19l25 -12q8 -2 24 8l6 -1
q16 -25 21 -55h2l-2 -3v0q-13 -116 -61.5 -205t-161.5 -86q-23 7 -72 43l-48 -28l-10 2q-23 8 -38 61q6 56 -71 57q-41 5 -63 -33z" />
    <glyph glyph-name="ograve" unicode="&#xf2;" horiz-adv-x="704" 
d="M445 1058h44q164 0 219 -158q26 -43 26 -114v-35q0 -449 -228 -700q-75 -61 -140 -61h-26q-234 0 -315 245v61q0 22 18 79q-18 0 -35 -52h-18v17q204 718 455 718zM189 195q0 -40 54 -54q177 0 246 383q86 221 86 365q-7 46 -32 46h-11q-153 0 -257 -466
q-86 -228 -86 -274zM489 898h22v-9q-122 -171 -140 -292h-21q0 194 139 301zM86 375l-8 -87v-27l8 -43h9v157h-9zM547 1416q18 -3 18 -18q-13 0 -27 -27v-10q18 0 64 19q0 -9 9 -9l81 -198l-18 9q0 -9 -9 -9q0 9 -9 9q-6 -46 -27 -46q-18 0 -18 27h-9l-46 -45
q-18 39 -118 129.5t-36 113.5q98 55 145 55z" />
    <glyph glyph-name="oacute" unicode="&#xf3;" horiz-adv-x="704" 
d="M445 1058h44q164 0 219 -158q26 -43 26 -114v-35q0 -449 -228 -700q-75 -61 -140 -61h-26q-234 0 -315 245v61q0 22 18 79q-18 0 -35 -52h-18v17q204 718 455 718zM189 195q0 -40 54 -54q177 0 246 383q86 221 86 365q-7 46 -32 46h-11q-153 0 -257 -466
q-86 -228 -86 -274zM489 898h22v-9q-122 -171 -140 -292h-21q0 194 139 301zM86 375l-8 -87v-27l8 -43h9v157h-9zM676 1426q18 -3 18 -18q-13 0 -27 -27v-10q18 0 64 19q0 -9 9 -9q-99 -146 -169 -218l-18 9q0 -9 -9 -9q0 9 -9 9q-6 -46 -27 -46q-18 0 -18 27h-9l-46 -45
q-18 39 7 139.5t89 123.5q98 55 145 55z" />
    <glyph glyph-name="ocircumflex" unicode="&#xf4;" horiz-adv-x="704" 
d="M445 1058h44q164 0 219 -158q26 -43 26 -114v-35q0 -449 -228 -700q-75 -61 -140 -61h-26q-234 0 -315 245v61q0 22 18 79q-18 0 -35 -52h-18v17q204 718 455 718zM189 195q0 -40 54 -54q177 0 246 383q86 221 86 365q-7 46 -32 46h-11q-153 0 -257 -466
q-86 -228 -86 -274zM489 898h22v-9q-122 -171 -140 -292h-21q0 194 139 301zM86 375l-8 -87v-27l8 -43h9v157h-9zM598 1387q61 32 91 32q15 -3 12 -18q-11 0 -27 -27l-1 -10q15 0 57 19q-1 -9 6 -9l39 -198l-14 9q-2 -9 -9 -9q1 9 -7 9q-12 -46 -30 -46q-15 0 -11 27h-7
l-47 -45q-9 39 -80 130l-6 8q-51 -63 -90 -103l-14 9q-1 -9 -9 -9q1 9 -6 9q-13 -46 -30 -46q-16 0 -65 -18q-10 39 27 139.5t95 123.5q92 55 132 55q15 -3 12 -18q-8 0 -18 -14z" />
    <glyph glyph-name="otilde" unicode="&#xf5;" horiz-adv-x="704" 
d="M445 1058h44q164 0 219 -158q26 -43 26 -114v-35q0 -449 -228 -700q-75 -61 -140 -61h-26q-234 0 -315 245v61q0 22 18 79q-18 0 -35 -52h-18v17q204 718 455 718zM189 195q0 -40 54 -54q177 0 246 383q86 221 86 365q-7 46 -32 46h-11q-153 0 -257 -466
q-86 -228 -86 -274zM489 898h22v-9q-122 -171 -140 -292h-21q0 194 139 301zM86 375l-8 -87v-27l8 -43h9v157h-9zM403 1181h9q-6 -34 -9 -75l-12 -1l-44 43l-14 -45l-14 8l-1 -16l-3 -6q-14 8 -22 -10q-8 4 -19 24l-10 -25l-11 6q-9 31 -9 64q-2 36 10 77q54 185 233 157
l1 6l-20 6q-13 4 -96 0l4 13l16 17q66 36 139 15q73 -10 102 -68l6 -2q47 36 55 34q-3 -7 3 -8q-8 -8 -32 -68l2 -15q3 -20 62 -37q62 9 74 94q6 44 9 60l8 12q26 -10 22 -26q12 -1 16 19l25 -12q8 -2 24 8l6 -1q16 -25 21 -55h2l-2 -3v0q-13 -116 -61.5 -205t-161.5 -86
q-23 7 -72 43l-48 -28l-10 2q-23 8 -38 61q6 56 -71 57q-41 5 -63 -33z" />
    <glyph glyph-name="odieresis" unicode="&#xf6;" horiz-adv-x="704" 
d="M445 1058h44q164 0 219 -158q26 -43 26 -114v-35q0 -449 -228 -700q-75 -61 -140 -61h-26q-234 0 -315 245v61q0 22 18 79q-18 0 -35 -52h-18v17q204 718 455 718zM189 195q0 -40 54 -54q177 0 246 383q86 221 86 365q-7 46 -32 46h-11q-153 0 -257 -466
q-86 -228 -86 -274zM489 898h22v-9q-122 -171 -140 -292h-21q0 194 139 301zM86 375l-8 -87v-27l8 -43h9v157h-9zM428 1431h38q15 0 15 -46h38q15 0 15 -27l-8 -18q15 -30 15 -55q0 -115 -128 -145h-15q-91 25 -91 100v18q31 173 121 173zM745 1135h-37q-16 0 -16 45h-37
q-15 0 -15 28l7 18q-15 30 -15 54q0 116 128 146h16q90 -25 90 -100v-18q-31 -173 -121 -173z" />
    <glyph glyph-name="divide" unicode="&#xf7;" horiz-adv-x="670" 
d="M814 808l4 -5l-4 -4l-315 -45l4 -4q235 17 255 3l4 -5q8 -11 0 -18q-227 -27 -287 -45q-6 7 -314 2q-131 -7 -148 10q-23 33 -14 42l38 37q52 52 328 30q438 11 449 2zM753 711l-5 -4q-44 -19 -217 -22l-5 4q127 23 227 22zM654 651q8 -11 0 -18q-102 -30 -458 -2
q-71 -21 -88 -14l-5 5q109 79 481 34zM362 548h45q17 0 17 -53h45q18 0 18 -32l-9 -22q17 -35 17 -64q0 -135 -151 -171h-17q-107 29 -107 118v21q37 203 142 203zM462 1221h45q17 0 17 -53h45q18 0 18 -32l-9 -22q17 -35 17 -64q0 -135 -151 -171h-17q-107 29 -107 118v21
q37 203 142 203z" />
    <glyph glyph-name="oslash" unicode="&#xf8;" horiz-adv-x="704" 
d="M419 963q-139 -107 -139 -301h21q18 121 140 292v9h-22zM224 147q9 -3 19 -6q143 0 215 249q-135 -198 -149 -204h-8v8q4 46 181 294q4 17 7 36q5 12 9 25q-5 -10 -12 -21q-151 -192 -262 -381zM48 177q-13 27 -23 58v61q0 22 18 79q-18 0 -35 -52h-18v17
q204 718 455 718h44q80 0 134 -37l34 46l33 25h25q14 0 32 -98l41 -8v-25q-22 -25 -67 -89q13 -36 13 -86v-35q0 -449 -228 -700q-75 -61 -140 -61h-26q-103 0 -177 48q-20 -38 -38 -75h-8q-25 0 -25 57h-8q0 -41 -16 -41q-65 62 -65 74v16q5 33 45 108zM557 930q-6 5 -14 5
h-11q-136 0 -233 -366q109 157 258 361zM95 258v117h-9l-8 -87v-27l4 -24q6 11 13 21z" />
    <glyph glyph-name="ugrave" unicode="&#xf9;" horiz-adv-x="579" 
d="M217 147h23q30 12 108 178q0 8 -7 23q0 38 31 240h15l-23 -201v-8h8q69 203 131 565h8q15 -18 15 -31q16 0 39 109h8q85 -38 85 -101v-46q0 -237 -155 -565v-8h8q139 248 139 286h16q-82 -317 -271 -526q-67 -62 -132 -62h-23q-225 25 -225 194q-7 13 -7 30q3 115 68 366
h-1q55 204 81 324q-8 47 -8 68l17 8q14 0 59 -51v77l-8 59q8 0 8 9q94 -43 94 -170q-101 -695 -101 -767zM440 1404q18 -3 18 -18q-13 0 -27 -27v-10q18 0 64 19q0 -9 9 -9l81 -198l-18 9q0 -9 -9 -9q0 9 -9 9q-6 -46 -27 -46q-18 0 -18 27h-9l-46 -45q-18 39 -118 129.5
t-36 113.5q98 55 145 55z" />
    <glyph glyph-name="uacute" unicode="&#xfa;" horiz-adv-x="579" 
d="M217 147h23q30 12 108 178q0 8 -7 23q0 38 31 240h15l-23 -201v-8h8q69 203 131 565h8q15 -18 15 -31q16 0 39 109h8q85 -38 85 -101v-46q0 -237 -155 -565v-8h8q139 248 139 286h16q-82 -317 -271 -526q-67 -62 -132 -62h-23q-225 25 -225 194q-7 13 -7 30q3 115 68 366
h-1q55 204 81 324q-8 47 -8 68l17 8q14 0 59 -51v77l-8 59q8 0 8 9q94 -43 94 -170q-101 -695 -101 -767zM607 1385q18 -3 18 -18q-13 0 -27 -27v-10q18 0 64 19q0 -9 9 -9q-99 -146 -169 -218l-18 9q0 -9 -9 -9q0 9 -9 9q-6 -46 -27 -46q-18 0 -18 27h-9l-46 -45
q-18 39 7 139.5t89 123.5q98 55 145 55z" />
    <glyph glyph-name="ucircumflex" unicode="&#xfb;" horiz-adv-x="579" 
d="M217 147h23q30 12 108 178q0 8 -7 23q0 38 31 240h15l-23 -201v-8h8q69 203 131 565h8q15 -18 15 -31q16 0 39 109h8q85 -38 85 -101v-46q0 -237 -155 -565v-8h8q139 248 139 286h16q-82 -317 -271 -526q-67 -62 -132 -62h-23q-225 25 -225 194q-7 13 -7 30q3 115 68 366
h-1q55 204 81 324q-8 47 -8 68l17 8q14 0 59 -51v77l-8 59q8 0 8 9q94 -43 94 -170q-101 -695 -101 -767zM507 1360q61 32 91 32q15 -3 12 -18q-11 0 -27 -27l-1 -10q15 0 57 19q-1 -9 6 -9l39 -198l-14 9q-2 -9 -9 -9q1 9 -7 9q-12 -46 -30 -46q-15 0 -11 27h-7l-47 -45
q-9 39 -80 130l-6 8q-51 -63 -90 -103l-14 9q-1 -9 -9 -9q1 9 -6 9q-13 -46 -30 -46q-16 0 -65 -18q-10 39 27 139.5t95 123.5q92 55 132 55q15 -3 12 -18q-8 0 -18 -14z" />
    <glyph glyph-name="udieresis" unicode="&#xfc;" horiz-adv-x="579" 
d="M217 147h23q30 12 108 178q0 8 -7 23q0 38 31 240h15l-23 -201v-8h8q69 203 131 565h8q15 -18 15 -31q16 0 39 109h8q85 -38 85 -101v-46q0 -237 -155 -565v-8h8q139 248 139 286h16q-82 -317 -271 -526q-67 -62 -132 -62h-23q-225 25 -225 194q-7 13 -7 30q3 115 68 366
h-1q55 204 81 324q-8 47 -8 68l17 8q14 0 59 -51v77l-8 59q8 0 8 9q94 -43 94 -170q-101 -695 -101 -767zM309 1397h38q15 0 15 -46h38q15 0 15 -27l-8 -18q15 -30 15 -55q0 -115 -128 -145h-15q-91 25 -91 100v18q31 173 121 173zM626 1101h-37q-16 0 -16 45h-37
q-15 0 -15 28l7 18q-15 30 -15 54q0 116 128 146h16q90 -25 90 -100v-18q-31 -173 -121 -173z" />
    <glyph glyph-name="yacute" unicode="&#xfd;" horiz-adv-x="387" 
d="M147 1112q67 -36 67 -318q7 0 17 -209q78 108 268 468h17q23 0 41 -83h9v25h25v-34q0 -111 -259 -577q-59 -273 -134 -460h-9l-58 42v17q0 20 16 75v8h-8q-62 -142 -75 -142q-25 17 -25 92h-9q0 -42 -16 -42h-9l-8 42v33q0 119 92 360q-42 592 -67 644l17 9
q75 -13 75 -67h8q6 117 25 117zM373 1045l9 -17l-17 -8l-8 17zM246 941h16l-8 -75q8 -17 8 -26l-16 -8l-9 59zM231 443v-17h8q28 109 59 109v16q-42 -16 -67 -108zM449 459q16 -2 16 -16q0 -17 -16 -17q-17 0 -17 17q3 16 17 16zM292 768q16 -2 16 -16q0 -17 -16 -17
q-17 0 -17 17q3 16 17 16zM147 91v-16h9v16h-9zM518 1397q18 -3 18 -18q-13 0 -27 -27v-10q18 0 64 19q0 -9 9 -9q-99 -146 -169 -218l-18 9q0 -9 -9 -9q0 9 -9 9q-6 -46 -27 -46q-18 0 -18 27h-9l-46 -45q-18 39 7 139.5t89 123.5q98 55 145 55z" />
    <glyph glyph-name="thorn" unicode="&#xfe;" horiz-adv-x="611" 
d="M306 596v-9h8q35 98 57 98h16q0 -44 -81 -358q220 100 220 285v24q0 90 -74 90q-138 0 -138 -106q-8 -16 -8 -24zM55 138v-16h8v16h-8zM61 490h9q16 -3 16 -17q0 -16 -16 -16l-17 8q8 16 8 25zM299 103h8v-9q0 -21 -81 -89h-8q24 55 81 98zM299 5v-8q0 -8 -8 -8l8 -17
q-51 -106 -138 -106l-8 17v16q81 106 146 106zM340 57q16 -3 16 -16q0 -17 -16 -17t-16 17q2 16 16 16zM420 897h49q181 0 260 -212q9 -71 9 -81q0 -279 -432 -456q-73 0 -73 -66q-51 -131 -64 -131q-41 0 -41 130h-8q-22 -122 -41 -122q-8 16 -8 25l-24 -17l-9 17v8
q0 45 17 122h-17l-17 9q-37 16 -41 33v73l8 16q54 -16 82 -16q97 378 122 440h-8l-41 -25q-25 54 -25 74q0 29 58 98q-9 0 -9 8q22 14 45 25q30 117 47 197q-8 47 -8 68l17 8q14 0 59 -51v77l-8 59q8 0 8 9q94 -43 94 -170v-128q0 -10 -1 -21z" />
    <glyph glyph-name="ydieresis" unicode="&#xff;" horiz-adv-x="387" 
d="M147 1112q67 -36 67 -318q7 0 17 -209q78 108 268 468h17q23 0 41 -83h9v25h25v-34q0 -111 -259 -577q-59 -273 -134 -460h-9l-58 42v17q0 20 16 75v8h-8q-62 -142 -75 -142q-25 17 -25 92h-9q0 -42 -16 -42h-9l-8 42v33q0 119 92 360q-42 592 -67 644l17 9
q75 -13 75 -67h8q6 117 25 117zM373 1045l9 -17l-17 -8l-8 17zM246 941h16l-8 -75q8 -17 8 -26l-16 -8l-9 59zM231 443v-17h8q28 109 59 109v16q-42 -16 -67 -108zM449 459q16 -2 16 -16q0 -17 -16 -17q-17 0 -17 17q3 16 17 16zM292 768q16 -2 16 -16q0 -17 -16 -17
q-17 0 -17 17q3 16 17 16zM147 91v-16h9v16h-9zM208 1460h38q15 0 15 -46h38q15 0 15 -27l-8 -18q15 -30 15 -55q0 -115 -128 -145h-15q-91 25 -91 100v18q31 173 121 173zM525 1164h-37q-16 0 -16 45h-37q-15 0 -15 28l7 18q-15 30 -15 54q0 116 128 146h16q90 -25 90 -100
v-18q-31 -173 -121 -173z" />
    <glyph glyph-name="dotlessi" unicode="&#x131;" horiz-adv-x="310" 
d="M259 1105q94 -43 94 -170v-128q0 -157 -204 -841l-17 -9q-68 56 -68 145h-9l-8 -43v-76h-9q-68 57 -68 144q170 569 221 808q-8 47 -8 68l17 8q14 0 59 -51v77l-8 59q8 0 8 9zM89 816l9 -17l-17 -9l-9 17zM395 493h9v-17h-9v17zM353 289l8 -17l-17 -9l-8 17z" />
    <glyph glyph-name="circumflex" unicode="&#x2c6;" horiz-adv-x="405" 
d="M266 1416q61 32 91 32q15 -3 12 -18q-11 0 -27 -27l-1 -10q15 0 57 19q-1 -9 6 -9l39 -198l-14 9q-2 -9 -9 -9q1 9 -7 9q-12 -46 -30 -46q-15 0 -11 27h-7l-47 -45q-9 39 -80 130l-6 8q-51 -63 -90 -103l-14 9q-1 -9 -9 -9q1 9 -6 9q-13 -46 -30 -46q-16 0 -65 -18
q-10 39 27 139.5t95 123.5q92 55 132 55q15 -3 12 -18q-8 0 -18 -14z" />
    <glyph glyph-name="caron" unicode="&#x2c7;" horiz-adv-x="405" 
d="M192 1162q-61 -32 -91 -32q-15 3 -13 18q11 0 27 27l2 10q-16 0 -58 -19q2 9 -6 9l-38 198l14 -9q1 9 9 9q-2 -9 6 -9q12 46 30 46q15 0 11 -27h8l46 45q9 -39 80 -129q4 -5 7 -9q50 63 90 103l14 -9q1 9 9 9q-2 -9 6 -9q12 46 30 46q15 0 65 18q9 -39 -28 -139.5
t-95 -123.5q-91 -55 -131 -55q-15 3 -13 18q8 0 19 14z" />
    <glyph glyph-name="uni02C9" unicode="&#x2c9;" horiz-adv-x="670" 
d="M814 1418l4 -5l-4 -4l-315 -45l4 -4q235 17 255 3l4 -5q8 -11 0 -18q-227 -27 -287 -45q-6 7 -314 2q-131 -7 -148 10q-23 33 -14 42l38 37q52 52 328 30q438 11 449 2zM753 1321l-5 -4q-44 -19 -217 -22l-5 4q127 23 227 22zM654 1261q8 -11 0 -18q-102 -30 -458 -2
q-71 -21 -88 -14l-5 5q109 79 481 34z" />
    <glyph glyph-name="breve" unicode="&#x2d8;" horiz-adv-x="1024" 
 />
    <glyph glyph-name="dotaccent" unicode="&#x2d9;" horiz-adv-x="382" 
d="M120.696 1486.69h38.249q14.4492 0 14.4492 -45.0488h38.249q15.2998 0 15.2998 -27.1992l-7.64941 -18.6992q14.4492 -29.749 14.4492 -54.3984q0 -114.746 -128.347 -145.346h-14.4492q-90.9473 24.6494 -90.9473 100.297v17.8496q31.4492 172.545 120.696 172.545z
" />
    <glyph glyph-name="ring" unicode="&#x2da;" horiz-adv-x="662" 
d="M433 1475h37q137 0 183 -98q22 -26 22 -71v-21q0 -279 -191 -434q-63 -38 -117 -38h-22q-196 0 -264 152v38q0 13 15 49q-15 0 -29 -33h-15v11q171 445 381 445zM257 978q0 -19 34 -26q111 0 155 179q54 102 54 169q-5 22 -20 22h-7q-96 0 -162 -217q-54 -106 -54 -127z
M446 1305h14v-5q-77 -79 -88 -135h-13q0 90 87 140zM133 1052l-8 -55v-16l8 -27h7v98h-7z" />
    <glyph glyph-name="ogonek" unicode="&#x2db;" horiz-adv-x="1024" 
 />
    <glyph glyph-name="tilde" unicode="&#x2dc;" horiz-adv-x="813" 
d="M234 1191h9q-6 -34 -9 -75l-12 -1l-44 43l-14 -45l-14 8l-1 -16l-3 -6q-14 8 -22 -10q-8 4 -19 24l-10 -25l-11 6q-9 31 -9 64q-2 36 10 77q54 185 233 157l1 6l-20 6q-13 4 -96 0l4 13l16 17q66 36 139 15q73 -10 102 -68l6 -2q47 36 55 34q-3 -7 3 -8q-8 -8 -32 -68
l2 -15q3 -20 62 -37q62 9 74 94q6 44 9 60l8 12q26 -10 22 -26q12 -1 16 19l25 -12q8 -2 24 8l6 -1q16 -25 21 -55h2l-2 -3v0q-13 -116 -61.5 -205t-161.5 -86q-23 7 -72 43l-48 -28l-10 2q-23 8 -38 61q6 56 -71 57q-41 5 -63 -33z" />
    <glyph glyph-name="hungarumlaut" unicode="&#x2dd;" horiz-adv-x="1024" 
d="M84 1450q18 -3 18 -18q-13 0 -27 -27v-10q18 0 64 19q0 -9 9 -9q-99 -146 -169 -218l-18 9q0 -9 -9 -9q0 9 -9 9q-6 -46 -27 -46q-18 0 -18 27h-9l-46 -45q-18 39 7 139.5t89 123.5q98 55 145 55zM396 1450q18 -3 18 -18q-13 0 -27 -27v-10q18 0 64 19q0 -9 9 -9
q-99 -146 -169 -218l-18 9q0 -9 -9 -9q0 9 -9 9q-6 -46 -27 -46q-18 0 -18 27h-9l-46 -45q-18 39 7 139.5t89 123.5q98 55 145 55z" />
    <glyph glyph-name="quoteleft" unicode="&#x2018;" horiz-adv-x="403" 
d="M340 1450q18 -3 18 -18q-13 0 -27 -27v-10q18 0 64 19q0 -9 9 -9q-49 -246 -119 -318l-18 9q0 -9 -9 -9q0 9 -9 9q-6 -46 -27 -46q-18 0 -18 27h-9l-46 -45q-18 39 -18 145v37q0 158 64 181q98 55 145 55z" />
    <glyph glyph-name="quoteright" unicode="&#x2019;" horiz-adv-x="403" 
d="M340 1450q18 -3 18 -18q-13 0 -27 -27v-10q18 0 64 19q0 -9 9 -9q-49 -246 -119 -318l-18 9q0 -9 -9 -9q0 9 -9 9q-6 -46 -27 -46q-18 0 -18 27h-9l-46 -45q-18 39 -18 145v37q0 158 64 181q98 55 145 55z" />
    <glyph glyph-name="quotesinglbase" unicode="&#x201a;" horiz-adv-x="310" 
d="M201 195q18 -3 18 -18q-13 0 -27 -27v-10q18 0 64 19q0 -9 9 -9q-49 -246 -119 -318l-18 9q0 -9 -9 -9q0 9 -9 9q-6 -46 -27 -46q-18 0 -18 27h-9l-46 -45q-18 39 -18 145v37q0 158 64 181q98 55 145 55z" />
    <glyph glyph-name="quotedblleft" unicode="&#x201c;" horiz-adv-x="708" 
d="M495 1032q-19 3 -19 18q13 0 137 247v10q-18 0 -173 -239q0 9 -9 9q49 246 118 318l18 -9q0 9 9 9q0 -9 9 -9q7 46 28 46q18 0 18 -27h9l45 45q19 -39 19 -145v-37q0 -158 -64 -181q-98 -55 -145 -55zM195 1032q-19 3 -19 18q13 0 28 27v10q-18 0 -64 -19q0 9 -9 9
q49 246 118 318l18 -9q0 9 9 9q0 -9 9 -9q7 46 28 46q18 0 -38 -212l65 185l45 45q19 -39 19 -145v-37q0 -158 -64 -181q-98 -55 -145 -55z" />
    <glyph glyph-name="quotedblright" unicode="&#x201d;" horiz-adv-x="708" 
d="M340 1450q18 -3 18 -18q-13 0 -136 -247v-10q18 0 173 239q0 -9 9 -9q-49 -246 -119 -318l-18 9q0 -9 -9 -9q0 9 -9 9q-6 -46 -27 -46q-18 0 -18 27h-9l-46 -45q-18 39 -18 145v37q0 158 64 181q98 55 145 55zM640 1450q18 -3 18 -18q-13 0 -27 -27v-10q18 0 64 19
q0 -9 9 -9q-49 -246 -119 -318l-18 9q0 -9 -9 -9q0 9 -9 9q-6 -46 -27 -46q-18 0 38 212l-65 -185l-46 -45q-18 39 -18 145v37q0 158 64 181q98 55 145 55z" />
    <glyph glyph-name="quotedblbase" unicode="&#x201e;" horiz-adv-x="708" 
d="M220 237q18 -3 18 -18q-13 0 -136 -247v-10q18 0 173 239q0 -9 9 -9q-49 -246 -119 -318l-18 9q0 -9 -9 -9q0 9 -9 9q-6 -46 -27 -46q-18 0 -18 27h-9l-46 -45q-18 39 -18 145v37q0 158 64 181q98 55 145 55zM520 237q18 -3 18 -18q-13 0 -27 -27v-10q18 0 64 19
q0 -9 9 -9q-49 -246 -119 -318l-18 9q0 -9 -9 -9q0 9 -9 9q-6 -46 -27 -46q-18 0 38 212l-65 -185l-46 -45q-18 39 -18 145v37q0 158 64 181q98 55 145 55z" />
    <glyph glyph-name="bullet" unicode="&#x2022;" horiz-adv-x="1024" 
d="M282.578 1056.58h89.5498q33.8301 0 33.8301 -105.469h89.5498q35.8193 0 35.8193 -63.6797l-17.9092 -43.7803q33.8291 -69.6494 33.8291 -127.359q0 -268.648 -300.488 -340.288h-33.8301q-212.929 57.71 -212.929 234.818v41.79q73.6299 403.968 282.578 403.968z" />
    <glyph glyph-name="guilsinglleft" unicode="&#x2039;" 
d="M856 941l1 -8q23 -103 -131 -153q-69 -21 -366 -68l-7 -2l2 -8q446 -43 532 -97l2 -8q1 -16 -10 -20l-6 -2l-14 4l3 -16q19 6 39 -21q-5 -18 -74 -41l10 -14l2 -7l-77 -26q-96 -31 -506 114q-191 39 -200 36l-11 -12l-32 -11q-13 -4 -16 12q-23 186 82 221l44 22
q162 45 296 89l33 10l40 5q9 11 30 18l26 9q14 4 27 0q7 2 5 10q243 51 248 30q1 -5 -11 -79z" />
    <glyph glyph-name="guilsinglright" unicode="&#x203a;" 
d="M37 522l-2 8q-22 102 132 152q69 22 366 68l6 2l-2 8q-445 43 -532 97l-1 8q-2 17 9 20l7 2l14 -3l-3 15q-19 -6 -39 21q5 19 73 41l-10 14l-1 8l77 25q96 31 505 -113q191 -39 201 -36l11 12l32 10q13 4 16 -11q22 -187 -83 -221l-43 -23q-162 -44 -297 -88l-32 -11
l-40 -5q-9 -11 -31 -18l-25 -8q-15 -5 -28 -1q-6 -2 -4 -10q-243 -51 -248 -30q-1 6 10 79z" />
    <glyph glyph-name="fraction" unicode="&#x2044;" horiz-adv-x="727" 
d="M860 1481h33q20 0 45 -134l56 -11v-34q-76 -87 -347 -503q-14 0 -67 -89q-306 -391 -491 -771h-12q-33 0 -33 78h-11q0 -56 -23 -56q-89 85 -89 101v22q29 190 894 1363zM654 765q23 -3 23 -22v-23q-311 -465 -338 -477h-11v12q8 72 326 510z" />
    <glyph glyph-name="fraction" unicode="&#x2215;" horiz-adv-x="727" 
d="M860 1481h33q20 0 45 -134l56 -11v-34q-76 -87 -347 -503q-14 0 -67 -89q-306 -391 -491 -771h-12q-33 0 -33 78h-11q0 -56 -23 -56q-89 85 -89 101v22q29 190 894 1363zM654 765q23 -3 23 -22v-23q-311 -465 -338 -477h-11v12q8 72 326 510z" />
    <glyph glyph-name="Euro" unicode="&#x20ac;" 
d="M656 1526v-10q-96 -84 -123 -133v-11q111 82 195 82h31q208 0 245 -297v-71l-40 -123l-11 -51h-20l-31 20q-34 -20 -61 -20q-11 17 -11 51q-59 -31 -102 -31l-10 21q43 137 61 234q-10 41 -10 72q-198 20 -378 -502q-82 -376 -82 -460q0 -9 40 -91h10q225 0 338 532
q-10 19 -10 30l21 10q102 -130 153 -266v-71q0 -271 -369 -431q-87 -20 -153 -20q-212 0 -307 246l-11 61v133q0 14 21 113h20v-154q0 -75 31 -82h10v41q0 284 256 830q-17 0 -102 -103h-10v62q0 36 51 123h-10q-20 -10 -31 -10l-10 20q301 256 409 256zM226 1413l10 -20
l-20 -10l-10 20zM533 666h21v-10h-21v10zM513 594h20v-20h-20v20zM-20 51l11 -20l-21 -10l-10 20z" />
    <glyph glyph-name="uni2116" unicode="&#x2116;" horiz-adv-x="1500" 
d="M1284 1305h14v-5q-77 -79 -88 -135h-13q0 90 87 140zM1095 978q0 -19 34 -26q111 0 155 179q54 102 54 169q-5 22 -20 22h-7q-96 0 -162 -217q-54 -106 -54 -127zM971 1052l-8 -55v-16l8 -27h7v98h-7zM913 1036q-48 -279 -155 -844q-11 -102 -11 -195h-11q-22 0 -43 76
h-11v-11l11 -54h-33q-43 23 -43 87h-11v-87l11 -22q-11 0 -11 -11q-174 112 -174 294q-87 379 -87 565h-11q-152 -719 -152 -848h-11q-66 53 -66 206h-10l-22 -174q11 0 11 -10l-22 -11q-87 88 -87 174v54q22 631 87 631q22 -31 54 -218h11q0 210 163 794h11l55 -11l-11 22
v11q3 22 21 22q115 0 174 -533q66 -325 66 -424h11q141 735 152 902h11q12 0 43 -98q12 0 33 -10q0 70 22 141h10q66 -55 66 -152q0 -27 -26 -179q156 352 343 352h37q137 0 183 -98q22 -26 22 -71v-21q0 -279 -191 -434q-63 -38 -117 -38h-22q-196 0 -264 152v38
q0 13 15 49q-11 0 -21 -16z" />
    <glyph glyph-name="trademark" unicode="&#x2122;" horiz-adv-x="657" 
d="M194 1322q32 0 61 -33h-4q-20 5 -33 5h-6q-24 0 -24 -5q30 0 30 -8q-21 -87 -80 -259v-2h2q15 37 32 69h5v-2q-35 -120 -63 -244q0 -1 2 -7q-2 0 -2 -2q-59 12 -59 71l4 33v2h-2q-11 -40 -11 -74v-9q0 -5 -4 -12q-15 4 -15 27q0 4 6 39v2h-2q-14 -47 -15 -49
q-22 0 -29 28q53 136 99 308l15 64h-2q-4 0 -13 -10q-20 9 -20 29v6q0 17 111 33h17zM374 1380q-23 4 -38 4q-16 0 -50 -6v-2q56 0 85 -17zM366 1330q-76 8 -104 8h-15q-45 0 -210 -12q-42 0 -78 44q-2 4 -2 8q14 -4 20 -4h4v2q-30 24 -37 56q2 0 2 2q68 -31 120 -31h15
q35 0 166 10v-2l4 2q84 0 125 -15q2 22 2 42q9 37 21 37q11 -1 11 -9q-5 -9 -5 -14l10 -5q0 7 16 14h10l11 -4q1 9 10 9q11 -11 11 -33h10v10h11q26 -68 26 -98v-23q0 -20 -5 -52v-4h5q81 137 184 177l5 -10q-8 0 -16 -14v-4h5q10 4 16 4l11 -14q0 -5 -16 -37v-5h5
q0 22 47 47q0 -5 6 -5q-13 -28 -21 -28l5 -9q-74 -168 -168 -527h-5q-42 14 -18 228l-30 -167v-33h-5q-16 5 -16 28v28q0 36 53 238v5h-5q-47 -126 -89 -168q-53 0 -53 56v79q0 17 5 42v5h-5q-63 -282 -63 -303v-14l5 -24l-10 -4q-84 29 -84 112q-5 3 -5 41q82 205 108 338z
" />
    <glyph glyph-name="minus" unicode="&#x2212;" horiz-adv-x="670" 
d="M814 808l4 -5l-4 -4l-315 -45l4 -4q235 17 255 3l4 -5q8 -11 0 -18q-227 -27 -287 -45q-6 7 -314 2q-131 -7 -148 10q-23 33 -14 42l38 37q52 52 328 30q438 11 449 2zM753 711l-5 -4q-44 -19 -217 -22l-5 4q127 23 227 22zM654 651q8 -11 0 -18q-102 -30 -458 -2
q-71 -21 -88 -14l-5 5q109 79 481 34z" />
    <glyph glyph-name="approxequal" unicode="&#x2248;" horiz-adv-x="924" 
d="M135 635h10q-7 -40 -10 -89l-15 -2l-13 52l-16 -54l-18 9v-18l-4 -8q-16 10 -27 -12q-9 5 -22 29l-12 -30l-13 7q-11 38 -11 76q-2 45 12 93q65 222 279 188l2 7l-25 8q-15 4 -114 0l4 15l19 20q79 44 167 18q87 -12 122 -81l7 -2q56 43 65 40q-2 -8 5 -9
q-11 -10 -38 -82l1 -18q54 -83 125 -104q74 10 109 173q6 52 10 71l11 15q30 -12 25 -31q14 -1 19 22l30 -14q10 -2 29 10l7 -1q19 -30 25 -66h2l-1 -3v-1q-16 -138 -74 -245t-264 -103q-27 8 -86 51l-57 -34l-13 3q-27 9 -45 73q7 137 -85 138q-88 26 -116 -109zM135 193
h10q-7 -40 -10 -89l-15 -2l-13 52l-16 -54l-18 9v-18l-4 -8q-16 10 -27 -12q-9 5 -22 29l-12 -30l-13 7q-11 38 -11 76q-2 45 12 93q65 222 279 188l2 7l-25 8q-15 4 -114 0l4 15l19 20q79 44 167 18q87 -12 122 -81l7 -2q56 43 65 40q-2 -8 5 -9q-11 -10 -38 -82l1 -18
q54 -83 125 -104q74 10 109 173q6 52 10 71l11 15q30 -12 25 -31q14 -1 19 22l30 -14q10 -2 29 10l7 -1q19 -30 25 -66h2l-1 -3v-1q-16 -138 -74 -245t-264 -103q-27 8 -86 51l-57 -34l-13 3q-27 9 -45 73q7 137 -85 138q-88 26 -116 -109z" />
    <glyph glyph-name="perthousand" unicode="&#x2030;" horiz-adv-x="1822" 
d="M960 1481h33q20 0 45 -134l56 -11v-34q-76 -87 -347 -503q-14 0 -67 -89q-306 -391 -491 -771h-12q-33 0 -33 78h-11q0 -56 -23 -56q-89 85 -89 101v22q29 190 894 1363zM754 765q23 -3 23 -22v-23q-311 -465 -338 -477h-11v12q8 72 326 510zM290 1475h37q137 0 183 -98
q22 -26 22 -71v-21q0 -279 -191 -434q-63 -38 -117 -38h-22q-196 0 -264 152v38q0 13 15 49q-15 0 -29 -33h-15v11q171 445 381 445zM114 978q0 -19 34 -26q111 0 155 179q54 102 54 169q-5 22 -20 22h-7q-96 0 -162 -217q-54 -106 -54 -127zM303 1305h14v-5
q-77 -79 -88 -135h-13q0 90 87 140zM-10 1052l-8 -55v-16l8 -27h7v98h-7zM936 651h37q137 0 183 -98q22 -26 22 -71v-21q0 -279 -191 -434q-63 -38 -117 -38h-22q-196 0 -264 152v38q0 13 15 49q-15 0 -29 -33h-15v11q171 445 381 445zM760 154q0 -19 34 -26q111 0 155 179
q54 102 54 169q-5 22 -20 22h-7q-96 0 -162 -217q-54 -106 -54 -127zM949 481h14v-5q-77 -79 -88 -135h-13q0 90 87 140zM1535 663h37q137 0 183 -98q22 -26 22 -71v-21q0 -279 -191 -434q-63 -38 -117 -38h-22q-196 0 -264 152v38q0 13 15 49q-15 0 -29 -33h-15v11
q171 445 381 445zM1359 166q0 -19 34 -26q111 0 155 179q54 102 54 169q-5 22 -20 22h-7q-96 0 -162 -217q-54 -106 -54 -127zM1548 493h14v-5q-77 -79 -88 -135h-13q0 90 87 140z" />
    <glyph glyph-name="OE" unicode="&#x152;" horiz-adv-x="1166" 
d="M110 511l-10 -118v-36l10 -59h11v213h-11zM570 1205l29 4l2 -11q-135 -246 -137 -406l-29 -4q-34 248 135 417zM1328 1024l10 -20v-11h-31v11q3 20 21 20zM936 558h10v-21q-18 0 -52 -31h-21q0 16 63 52zM941 498h10v-11q-25 -45 -72 -62l-11 21q11 0 73 52zM588 35
q-67 -45 -127 -45h-33q-293 0 -394 332v83q0 29 22 106q-22 0 -44 -71h-22v24q256 971 569 971h55q98 0 165 -49q41 1 357 55v-5l10 5q261 0 334 -73l5 -9v-5l-49 14l5 -9q-5 0 -5 -5q-64 14 -101 14t-112 -14v-5q178 0 233 -87q16 -18 27 -38q-237 28 -313 28h-34
q-83 -19 -244 -38q9 -18 16 -39q61 0 116 -82h-8q-38 14 -63 14h-12q-12 0 -21 -1v-14q33 -4 33 -19q-16 -85 -35 -175q-4 -77 -13 -150q135 9 271 21l13 6q0 -3 4 -2q-1 -83 -102 -109l-57 -10h-3v-4q72 4 129 20l17 4q9 3 21 -1q-2 -21 -41 -32q-6 -1 -69 -9h-2v-3
q85 3 88 1q8 -28 -36 -49q-109 3 -211 2l-43 34q-17 -87 -43 -166q-32 -127 -69 -265q233 33 380 52q0 -13 -41 -113q10 -21 10 -32q-147 -103 -385 -102q-98 0 -148 44zM561 1242q-159 -72 -224 -385q-77 -370 -66.5 -465.5t18.5 -154.5q7 -51 82 -59q146 24 213 223
q9 33 18 65q26 109 34 258q41 161 53 288q-29 23 -29 66v15q0 17 34 33q0 35 -4 67q-4 -1 -9 -1q-63 0 -120 50z" />
    <glyph glyph-name="oe" unicode="&#x153;" horiz-adv-x="955" 
d="M86 375l-8 -87v-27l8 -43h9v157h-9zM489 898h22v-9q-122 -171 -140 -292h-21q0 194 139 301zM575 874v15q-7 46 -32 46h-11q-153 0 -257 -466q-86 -228 -86 -274q0 -40 54 -54q177 0 246 383l2 6l-2 3q0 12 11 20q63 171 73 293q-8 3 -8 15zM916 312h8v-8
q-19 -33 -53 -45l-8 15q7 0 53 38zM909 365h7v-15q-13 0 -38 -23h-15q0 12 46 38zM1046 746l7 -15v-8h-22v8q2 15 15 15zM424 1q-30 -11 -58 -11h-26q-234 0 -315 245v61q0 22 18 79q-18 0 -35 -52h-18v17q204 718 455 718h44q87 0 144 -45q53 9 153 15q230 44 298 84v-8
q-38 -64 -38 -76h7q30 23 46 23q0 -8 8 -8q-22 -167 -115 -167q-188 -11 -259 -31q76 -67 22 -251q35 0 216 33v-7q-62 -92 -99 -92v-7h8l46 7h7v-7q0 -56 -216 -57q0 -44 -76 -304h8q162 0 275 15q0 -10 -200 -101q177 2 177 -6q-108 -76 -405 -76q-45 4 -72 9z" />
    </font>
</defs>
</svg>
